<svg width="467" height="464" viewBox="0 0 467 464" fill="none" xmlns="http://www.w3.org/2000/svg">
<path d="M408.75 0H406.98V94.41H408.75V0Z" fill="#EBEBEB"/>
<path d="M412.77 86.54H402.95V93.18H412.77V86.54Z" fill="#DBDBDB"/>
<path d="M412.77 88.75H402.95V93.18H412.77V88.75Z" fill="#C7C7C7"/>
<path d="M409.589 144.473C413.653 143.516 416.173 139.446 415.217 135.382C414.26 131.318 410.19 128.798 406.126 129.755C402.062 130.711 399.542 134.781 400.499 138.845C401.455 142.909 405.525 145.429 409.589 144.473Z" fill="#EBEBEB"/>
<path d="M432.47 137.12H383.26L392.17 121.33L399.44 92H416.29L423.55 121.33L432.47 137.12Z" fill="#DBDBDB"/>
<path d="M317.25 0H315.48V78.88H317.25V0Z" fill="#EBEBEB"/>
<path d="M321.28 71.01H311.46V77.65H321.28V71.01Z" fill="#DBDBDB"/>
<path d="M321.28 73.22H311.46V77.65H321.28V73.22Z" fill="#C7C7C7"/>
<path d="M323.93 121.59C323.924 123.084 323.476 124.543 322.641 125.782C321.807 127.021 320.624 127.986 319.242 128.553C317.86 129.121 316.341 129.266 314.877 128.971C313.412 128.676 312.068 127.954 311.014 126.895C309.959 125.837 309.242 124.49 308.953 123.024C308.664 121.558 308.815 120.04 309.388 118.66C309.961 117.28 310.93 116.101 312.173 115.272C313.416 114.443 314.876 114 316.37 114C317.366 113.999 318.352 114.194 319.272 114.576C320.191 114.957 321.027 115.516 321.729 116.222C322.432 116.927 322.988 117.765 323.366 118.686C323.744 119.607 323.935 120.594 323.93 121.59Z" fill="#EBEBEB"/>
<path d="M340.97 121.59H291.77L300.68 105.8L307.95 76.47H324.79L332.06 105.8L340.97 121.59Z" fill="#DBDBDB"/>
<path d="M229.49 0H227.72V62.66H229.49V0Z" fill="#EBEBEB"/>
<path d="M233.51 54.79H223.69V61.43H233.51V54.79Z" fill="#DBDBDB"/>
<path d="M233.51 57H223.69V61.43H233.51V57Z" fill="#C7C7C7"/>
<path d="M236.16 105.37C236.16 106.865 235.717 108.327 234.886 109.57C234.055 110.813 232.875 111.782 231.493 112.355C230.112 112.927 228.592 113.076 227.125 112.785C225.659 112.493 224.312 111.773 223.254 110.716C222.197 109.658 221.477 108.311 221.185 106.845C220.894 105.378 221.043 103.858 221.616 102.477C222.188 101.096 223.157 99.9148 224.4 99.0841C225.643 98.2534 227.105 97.81 228.6 97.81C230.605 97.81 232.528 98.6065 233.946 100.024C235.364 101.442 236.16 103.365 236.16 105.37Z" fill="#EBEBEB"/>
<path d="M253.21 105.37H204L212.91 89.57L220.18 60.25H237.03L244.3 89.57L253.21 105.37Z" fill="#DBDBDB"/>
<path d="M464.53 359.74C450.41 378.85 435.7 401 432.11 425C432.11 425.37 432.65 425.49 432.74 425.13C434.36 418.59 436.446 412.173 438.98 405.93C448.26 403.38 457.36 401.28 462.24 392.07C467.24 382.61 466.57 370.26 465.63 359.95C465.56 359.4 464.81 359.37 464.53 359.74Z" fill="#EBEBEB"/>
<path d="M439.12 405.75C445.46 391.53 453.6 377.24 463.94 365.54C464.01 365.46 464.12 365.54 464.06 365.66C457.28 373.99 452.14 383.06 447.11 392.3C451.78 387.55 456.9 383.3 461.33 378.3C461.42 378.2 461.55 378.35 461.47 378.44C457.08 383.72 452.28 389.44 446.55 393.35C445.01 396.19 443.47 399.03 441.9 401.87C442.28 401.65 442.68 401.46 443.07 401.27C443.14 401.27 443.2 401.34 443.13 401.37C442.7 401.59 442.26 401.82 441.81 402.02C441.07 403.36 440.33 404.71 439.57 406.02C439.4 406.32 438.98 406.05 439.12 405.75Z" fill="#A6A6A6"/>
<path d="M443.83 400.79C447.626 398.665 451.25 396.248 454.67 393.56C454.76 393.48 454.89 393.61 454.8 393.69C451.488 396.549 447.861 399.021 443.99 401.06C443.81 401.15 443.66 400.89 443.83 400.79Z" fill="#A6A6A6"/>
<path d="M430.48 421.44C430.48 421.73 431 421.73 431 421.44C431.07 413.54 431 405.61 431.12 397.69C433.12 393.6 437.49 391.35 440.5 388.08C442.672 385.692 444.561 383.061 446.13 380.24C449.772 373.502 451.994 366.09 452.66 358.46C453.5 350.02 450.29 322.16 446.73 323.12C444.89 323.63 438.92 337.43 437.33 341.99C434.764 349.515 432.883 357.256 431.71 365.12C428.83 383.67 429.07 402.75 430.48 421.44Z" fill="#EBEBEB"/>
<path d="M430.42 387.39C430.85 377.39 433.1 367.32 435.21 357.63C437.48 347.19 440.13 337.37 445.5 328.06C445.52 328.024 445.553 327.998 445.593 327.987C445.632 327.975 445.674 327.98 445.71 328C445.746 328.02 445.772 328.053 445.784 328.093C445.795 328.132 445.79 328.174 445.77 328.21C442.186 335.449 439.413 343.062 437.5 350.91C437.86 350.35 438.3 349.82 438.67 349.28C438.82 349.07 439.16 349.28 439.02 349.49C438.537 350.332 437.975 351.126 437.34 351.86C437.34 351.86 437.29 351.86 437.27 351.86C435.42 359.32 434.09 366.95 432.96 374.56L433.21 374.26C433.224 374.251 433.24 374.247 433.256 374.247C433.272 374.248 433.288 374.253 433.301 374.263C433.314 374.273 433.324 374.287 433.329 374.302C433.334 374.318 433.335 374.334 433.33 374.35C433.19 374.61 433.03 374.86 432.88 375.11C432.3 378.97 431.77 382.83 431.24 386.65C438.12 380.77 443.99 373.84 447.31 365.3C447.31 365.3 447.38 365.3 447.37 365.3C444.12 374.16 439.01 382.03 431.13 387.4C430.99 388.4 430.84 389.46 430.7 390.49C430.7 390.7 430.33 390.64 430.33 390.44C430.33 389.53 430.33 388.61 430.41 387.7C430.389 387.68 430.373 387.655 430.362 387.628C430.351 387.601 430.346 387.572 430.347 387.543C430.348 387.514 430.355 387.485 430.367 387.459C430.38 387.432 430.398 387.409 430.42 387.39Z" fill="#A6A6A6"/>
<path d="M433.66 372.92C438.92 365.07 443.83 357.45 447.66 348.78C447.66 348.69 447.87 348.78 447.83 348.86C444.59 357.47 440.05 366.2 433.91 373.12C433.8 373.26 433.56 373.08 433.66 372.92Z" fill="#A6A6A6"/>
<path d="M440.65 346.85C442.83 342.99 445.12 339.24 447.17 335.32C447.23 335.21 447.38 335.32 447.34 335.41C445.656 339.495 443.526 343.382 440.99 347C440.84 347.24 440.52 347.07 440.65 346.85Z" fill="#A6A6A6"/>
<path d="M439.8 348.52V348.59C439.8 348.59 439.76 348.52 439.8 348.52Z" fill="#A6A6A6"/>
<path d="M425.14 398.61C425.034 403.844 424.418 409.056 423.3 414.17C423.39 414.73 423.47 415.29 423.55 415.87C425.151 410.219 426.074 404.399 426.3 398.53C426.347 398.45 426.373 398.358 426.373 398.265C426.373 398.172 426.347 398.08 426.3 398C426.53 390.131 425.947 382.259 424.56 374.51C422.12 360.01 416.78 346.08 406.66 335.21C406.576 335.139 406.477 335.089 406.37 335.062C406.263 335.035 406.152 335.032 406.044 335.055C405.937 335.077 405.835 335.123 405.748 335.19C405.661 335.256 405.59 335.342 405.54 335.44C401.46 345.82 402.88 358.21 406.36 368.57C408.246 374.175 410.941 379.475 414.36 384.3C417.9 389.16 422.3 393.28 425.14 398.61Z" fill="#EBEBEB"/>
<path d="M407.9 340.05C417.48 355.61 424.16 374.05 424.97 392.44C424.97 392.77 424.44 392.85 424.39 392.52C424.17 390.87 423.91 389.23 423.65 387.6C419.65 383.8 415.65 379.79 412.77 375.04C412.764 375.022 412.764 375.002 412.77 374.984C412.776 374.965 412.787 374.949 412.803 374.938C412.819 374.927 412.838 374.921 412.857 374.922C412.876 374.922 412.895 374.928 412.91 374.94C416.36 378.88 419.58 382.94 423.48 386.44C422.79 382.37 421.98 378.37 421.01 374.44L420.25 373.55C420.09 373.36 420.37 373.07 420.54 373.27L420.77 373.52C419.421 368.122 417.752 362.809 415.77 357.61C413.33 354.69 410.6 352.18 408.82 348.67C408.77 348.59 408.89 348.52 408.95 348.6C410.38 350.6 411.76 352.6 413.38 354.48C414.03 355.22 414.74 355.92 415.38 356.64C413.165 351.003 410.542 345.535 407.53 340.28C407.509 340.231 407.505 340.177 407.521 340.126C407.537 340.076 407.57 340.032 407.615 340.004C407.66 339.976 407.714 339.966 407.766 339.974C407.818 339.982 407.866 340.009 407.9 340.05Z" fill="#A6A6A6"/>
<path d="M409.83 359.25C412.93 363.42 416.47 367.4 419.35 371.71C419.43 371.83 419.25 371.96 419.15 371.86C415.44 368.39 412.31 363.65 409.63 359.37C409.54 359.23 409.74 359.12 409.83 359.25Z" fill="#A6A6A6"/>
<path d="M419.78 372.67L419.91 372.8C420 372.9 419.86 373.04 419.77 372.95L419.64 372.81C419.626 372.791 419.619 372.767 419.62 372.743C419.622 372.719 419.632 372.696 419.649 372.679C419.666 372.662 419.689 372.652 419.713 372.65C419.737 372.649 419.761 372.656 419.78 372.67Z" fill="#A6A6A6"/>
<path d="M392.87 370C393.64 378 397.87 387.57 402.99 393.74C405.25 396.423 408.046 398.604 411.2 400.14C414.75 401.9 418.47 403.93 422.2 405.37C423.947 409.819 425.243 414.432 426.07 419.14L426.43 417.92C424.07 397.65 410.95 380.33 394.18 369.21C394.049 369.109 393.891 369.049 393.726 369.039C393.56 369.03 393.396 369.07 393.254 369.156C393.112 369.241 393 369.368 392.931 369.518C392.863 369.669 392.841 369.837 392.87 370Z" fill="#EBEBEB"/>
<path d="M398.67 376C398.55 375.9 398.67 375.69 398.84 375.78C408.058 382.638 415.408 391.697 420.22 402.13C420.34 402.41 419.96 402.65 419.8 402.37C419.02 401.037 418.227 399.703 417.42 398.37C413.59 397.65 409.96 394.96 407.12 392.37C407.04 392.3 407.12 392.19 407.23 392.25C408.697 393.585 410.327 394.731 412.08 395.66C413.64 396.45 415.32 396.95 416.94 397.59C415.52 395.33 414.05 393.17 412.5 391.08C408.367 389.499 404.489 387.319 400.99 384.61C400.88 384.53 400.99 384.35 401.1 384.42C404.561 386.518 408.133 388.427 411.8 390.14C409.465 387.056 406.943 384.117 404.25 381.34C402.94 380.65 401.62 379.96 400.36 379.22C400.343 379.204 400.331 379.183 400.326 379.16C400.322 379.137 400.325 379.113 400.335 379.092C400.345 379.071 400.362 379.053 400.382 379.042C400.403 379.031 400.427 379.027 400.45 379.03C401.505 379.394 402.512 379.884 403.45 380.49C401.9 378.94 400.3 377.43 398.67 376Z" fill="#A6A6A6"/>
<path d="M399.03 383C399.255 383.136 399.469 383.29 399.67 383.46C399.68 383.472 399.686 383.487 399.687 383.503C399.687 383.518 399.682 383.534 399.673 383.546C399.664 383.559 399.651 383.568 399.636 383.573C399.621 383.577 399.604 383.576 399.59 383.57C399.358 383.459 399.134 383.332 398.92 383.19C398.897 383.174 398.88 383.151 398.874 383.123C398.868 383.096 398.872 383.068 398.886 383.043C398.9 383.019 398.923 383.001 398.949 382.993C398.976 382.985 399.005 382.988 399.03 383Z" fill="#A6A6A6"/>
<path d="M452.56 463H406.59L410.3 421.13L411.11 411.9H448.04L448.85 421.13L452.56 463Z" fill="#C7C7C7"/>
<path d="M448.85 421.13H410.3L411.11 411.9H448.04L448.85 421.13Z" fill="#A6A6A6"/>
<path d="M450.23 405.44H408.91V414.58H450.23V405.44Z" fill="#C7C7C7"/>
<path d="M413.59 298.45C411.609 299.686 409.441 300.594 407.17 301.14C401.729 302.47 395.986 301.7 391.087 298.984C386.189 296.267 382.494 291.803 380.741 286.483C378.989 281.163 379.306 275.377 381.63 270.281C383.954 265.184 388.115 261.151 393.281 258.986C398.447 256.822 404.24 256.684 409.503 258.602C414.766 260.519 419.113 264.35 421.676 269.331C424.239 274.312 424.831 280.076 423.332 285.473C421.833 290.87 418.354 295.504 413.59 298.45Z" fill="#EBEBEB"/>
<path d="M408.66 277C408.66 278.339 408.263 279.648 407.519 280.761C406.775 281.875 405.718 282.742 404.481 283.255C403.244 283.767 401.882 283.901 400.569 283.64C399.256 283.379 398.05 282.734 397.103 281.787C396.156 280.84 395.511 279.634 395.25 278.321C394.989 277.007 395.123 275.646 395.635 274.409C396.148 273.172 397.015 272.115 398.129 271.371C399.242 270.627 400.551 270.23 401.89 270.23C403.685 270.233 405.405 270.947 406.674 272.216C407.943 273.485 408.657 275.205 408.66 277Z" fill="white"/>
<path d="M413.59 295.66V298.45C411.609 299.686 409.441 300.594 407.17 301.14C404.3 301.848 401.317 301.974 398.397 301.511C395.477 301.047 392.68 300.003 390.17 298.44V295.66C390.17 292.557 391.403 289.581 393.597 287.387C395.791 285.193 398.767 283.96 401.87 283.96C404.973 283.96 407.949 285.193 410.143 287.387C412.337 289.581 413.57 292.557 413.57 295.66H413.59Z" fill="white"/>
<path d="M0 463.3L55.95 463.06L111.91 462.97L223.82 462.8L335.73 462.97L391.68 463.06L447.64 463.3L391.68 463.55L335.73 463.63L223.82 463.8L111.91 463.63L55.95 463.55L0 463.3Z" fill="#263238"/>
<path d="M202.47 452.74H75.07V463.29H202.47V452.74Z" fill="#455A64"/>
<path d="M445.04 452.74H202.46V463.29H445.04V452.74Z" fill="#37474F"/>
<path d="M317.67 452.74H75.07L42 297.17H284.6L317.67 452.74Z" fill="#263238"/>
<path d="M151.69 442.91H82.8L53.91 306.99H122.8L151.69 442.91Z" fill="white"/>
<path d="M81.36 358C80.8786 358.344 80.3353 358.592 79.76 358.73C78.1319 359.105 76.4219 358.844 74.98 358C73.447 357.164 72.2209 355.861 71.48 354.28C70 351.02 71.29 347.74 74.38 346.95C77.47 346.16 81.17 348.15 82.66 351.4C83.86 354.06 83.25 356.7 81.36 358Z" fill="#C7C7C7"/>
<path d="M78.77 352.19C78.8282 352.408 78.8343 352.637 78.7878 352.858C78.7414 353.079 78.6436 353.285 78.5025 353.462C78.3614 353.638 78.1809 353.778 77.9755 353.872C77.77 353.965 77.5455 354.009 77.32 354C76.7966 353.981 76.2939 353.791 75.8892 353.458C75.4845 353.126 75.2002 352.67 75.08 352.16C75.0165 351.94 75.0063 351.707 75.0501 351.482C75.094 351.257 75.1906 351.045 75.3322 350.864C75.4737 350.684 75.6561 350.539 75.8644 350.443C76.0726 350.347 76.3007 350.301 76.53 350.31C77.0578 350.334 77.563 350.532 77.9677 350.871C78.3725 351.211 78.6544 351.674 78.77 352.19Z" fill="white"/>
<path d="M81.2 357.28L81.36 358.04C80.8786 358.384 80.3353 358.632 79.76 358.77C78.1319 359.145 76.4219 358.884 74.98 358.04L74.82 357.28C74.7102 356.899 74.6926 356.497 74.7687 356.108C74.8447 355.719 75.0123 355.353 75.2575 355.042C75.5027 354.73 75.8185 354.481 76.1789 354.316C76.5393 354.15 76.9338 354.073 77.33 354.09C78.2338 354.13 79.1001 354.463 79.7982 355.038C80.4963 355.614 80.9883 356.4 81.2 357.28Z" fill="white"/>
<path d="M114.31 349.19H86.68L86.17 346.81H113.81L114.31 349.19Z" fill="#C7C7C7"/>
<path d="M125.36 353.56H87.6L87.31 352.19H125.06L125.36 353.56Z" fill="#C7C7C7"/>
<path d="M125.99 356.52H88.23L87.94 355.15H125.7L125.99 356.52Z" fill="#C7C7C7"/>
<path d="M85.44 377C84.9611 377.342 84.4215 377.59 83.85 377.73C82.2186 378.106 80.5054 377.845 79.06 377C77.5277 376.167 76.3041 374.862 75.57 373.28C74.08 370.02 75.37 366.74 78.46 365.95C81.55 365.16 85.25 367.15 86.74 370.4C87.89 373 87.28 375.67 85.44 377Z" fill="#FE0F56"/>
<path d="M82.8 371.16C82.8639 371.38 82.8744 371.612 82.8306 371.837C82.7868 372.062 82.6899 372.273 82.5481 372.453C82.4064 372.633 82.2237 372.776 82.0153 372.871C81.8069 372.967 81.5788 373.011 81.35 373C80.8271 372.979 80.3252 372.789 79.9208 372.456C79.5164 372.124 79.2317 371.669 79.11 371.16C79.0465 370.94 79.0363 370.707 79.0801 370.482C79.124 370.257 79.2206 370.045 79.3622 369.864C79.5037 369.684 79.6861 369.539 79.8944 369.443C80.1026 369.347 80.3307 369.301 80.56 369.31C81.0838 369.333 81.5859 369.526 81.9901 369.86C82.3943 370.193 82.6787 370.65 82.8 371.16Z" fill="white"/>
<path d="M85.23 376.25L85.44 377C84.9611 377.342 84.4215 377.59 83.85 377.73C82.2186 378.106 80.5054 377.845 79.06 377L78.9 376.24C78.7902 375.859 78.7726 375.457 78.8487 375.068C78.9247 374.679 79.0923 374.313 79.3375 374.002C79.5827 373.69 79.8985 373.441 80.2589 373.276C80.6193 373.11 81.0138 373.033 81.41 373.05C82.3064 373.101 83.1623 373.44 83.8506 374.017C84.5388 374.593 85.0226 375.376 85.23 376.25Z" fill="white"/>
<path d="M118.34 368.17H90.71L90.2 365.78H117.84L118.34 368.17Z" fill="#C7C7C7"/>
<path d="M129.39 372.53H91.64L91.35 371.16H129.1L129.39 372.53Z" fill="#C7C7C7"/>
<path d="M130.02 375.49H92.27L91.98 374.12H129.73L130.02 375.49Z" fill="#C7C7C7"/>
<path d="M89.44 396C88.9594 396.341 88.4206 396.592 87.85 396.74C86.2108 397.112 84.4916 396.847 83.04 396C81.5077 395.167 80.2841 393.862 79.55 392.28C78.06 389.03 79.36 385.74 82.44 384.95C85.52 384.16 89.24 386.15 90.73 389.4C91.92 392 91.31 394.64 89.44 396Z" fill="#455A64"/>
<path d="M86.83 390.13C86.8998 390.352 86.9148 390.587 86.8737 390.816C86.8327 391.045 86.7368 391.261 86.5943 391.444C86.4518 391.628 86.2669 391.775 86.0554 391.871C85.844 391.968 85.6122 392.012 85.38 392C84.8571 391.979 84.3552 391.789 83.9508 391.456C83.5464 391.124 83.2617 390.669 83.14 390.16C83.0762 389.939 83.0661 389.705 83.1104 389.479C83.1548 389.253 83.2523 389.041 83.395 388.86C83.5378 388.679 83.7215 388.535 83.931 388.439C84.1406 388.344 84.3699 388.299 84.6 388.31C85.1185 388.331 85.6161 388.52 86.0181 388.849C86.4202 389.177 86.705 389.626 86.83 390.13Z" fill="white"/>
<path d="M89.26 395.22L89.44 396C88.9594 396.341 88.4206 396.592 87.85 396.74C86.2108 397.112 84.4916 396.847 83.04 396L82.88 395.24C82.7611 394.852 82.7381 394.44 82.8131 394.041C82.8881 393.642 83.0588 393.267 83.3105 392.949C83.5622 392.63 83.8875 392.377 84.2584 392.212C84.6293 392.047 85.0348 391.974 85.44 392C86.3395 392.051 87.1983 392.392 87.8872 392.973C88.5761 393.553 89.0578 394.342 89.26 395.22Z" fill="white"/>
<path d="M122.38 387.14H94.74L94.24 384.75H121.87L122.38 387.14Z" fill="#C7C7C7"/>
<path d="M133.42 391.5H95.67L95.38 390.13H133.13L133.42 391.5Z" fill="#C7C7C7"/>
<path d="M134.05 394.46H96.3L96.01 393.09H133.76L134.05 394.46Z" fill="#C7C7C7"/>
<path d="M93.44 415C92.9605 415.343 92.4213 415.594 91.85 415.74C90.2172 416.107 88.5061 415.842 87.06 415C85.5321 414.161 84.31 412.858 83.57 411.28C82.09 408 83.44 404.69 86.44 403.9C89.44 403.11 93.23 405.1 94.72 408.35C95.95 411 95.34 413.61 93.44 415Z" fill="#263238"/>
<path d="M90.87 409.1C90.9402 409.322 90.9564 409.557 90.9172 409.787C90.8779 410.016 90.7845 410.233 90.6446 410.418C90.5046 410.604 90.3223 410.754 90.1128 410.855C89.9033 410.956 89.6726 411.006 89.44 411C88.9162 410.977 88.4141 410.784 88.0099 410.45C87.6057 410.117 87.3213 409.66 87.2 409.15C87.1385 408.929 87.1301 408.696 87.1754 408.471C87.2206 408.246 87.3184 408.035 87.4606 407.855C87.6028 407.674 87.7856 407.53 87.994 407.434C88.2024 407.337 88.4306 407.292 88.66 407.3C89.1719 407.326 89.6622 407.515 90.0596 407.838C90.4571 408.162 90.7409 408.604 90.87 409.1Z" fill="white"/>
<path d="M93.29 414.19L93.44 415C92.9605 415.343 92.4213 415.594 91.85 415.74C90.2172 416.107 88.5061 415.842 87.06 415L86.9 414.24C86.7818 413.853 86.7587 413.444 86.8327 413.047C86.9067 412.649 87.0756 412.276 87.325 411.958C87.5744 411.639 87.8969 411.386 88.2651 411.22C88.6334 411.053 89.0364 410.978 89.44 411C90.3413 411.041 91.2046 411.375 91.8993 411.95C92.594 412.526 93.0822 413.312 93.29 414.19Z" fill="white"/>
<path d="M126.41 406.11H98.77L98.27 403.72H125.9L126.41 406.11Z" fill="#C7C7C7"/>
<path d="M137.45 410.47H99.7L99.41 409.1H137.16L137.45 410.47Z" fill="#C7C7C7"/>
<path d="M138.08 413.43H100.33L100.04 412.06H137.79L138.08 413.43Z" fill="#C7C7C7"/>
<path d="M97.49 433.92C97.0069 434.263 96.4644 434.514 95.89 434.66C94.2604 435.027 92.5523 434.763 91.11 433.92C89.577 433.084 88.3509 431.781 87.61 430.2C86.13 426.95 87.42 423.66 90.51 422.87C93.6 422.08 97.3 424.07 98.79 427.33C99.99 430 99.38 432.58 97.49 433.92Z" fill="#C7C7C7"/>
<path d="M94.9 428.07C94.9638 428.291 94.9739 428.525 94.9296 428.751C94.8852 428.977 94.7876 429.189 94.6449 429.37C94.5022 429.551 94.3185 429.695 94.109 429.791C93.8994 429.886 93.6701 429.931 93.44 429.92C92.9175 429.897 92.4169 429.703 92.0143 429.37C91.6118 429.036 91.3293 428.579 91.21 428.07C91.1465 427.85 91.1363 427.617 91.1801 427.392C91.224 427.167 91.3206 426.955 91.4622 426.774C91.6037 426.594 91.7861 426.449 91.9943 426.353C92.2026 426.257 92.4307 426.211 92.66 426.22C93.1838 426.243 93.6859 426.436 94.0901 426.77C94.4943 427.103 94.7787 427.56 94.9 428.07Z" fill="white"/>
<path d="M97.33 433.16L97.49 433.92C97.0069 434.263 96.4644 434.514 95.89 434.66C94.2604 435.027 92.5523 434.763 91.11 433.92L90.94 433.16C90.8384 432.782 90.8267 432.385 90.9058 432.002C90.9849 431.618 91.1527 431.259 91.3956 430.952C91.6385 430.644 91.9499 430.398 92.3049 430.233C92.6599 430.068 93.0486 429.988 93.44 430C94.3428 430.036 95.2098 430.363 95.9111 430.932C96.6124 431.502 97.1102 432.284 97.33 433.16Z" fill="white"/>
<path d="M130.44 425.08H102.81L102.3 422.69H129.93L130.44 425.08Z" fill="#C7C7C7"/>
<path d="M141.49 429.44H103.73L103.44 428.07H141.2L141.49 429.44Z" fill="#C7C7C7"/>
<path d="M142.12 432.4H104.36L104.07 431.03H141.82L142.12 432.4Z" fill="#C7C7C7"/>
<path d="M70.99 325.68C70.6879 325.894 70.3489 326.05 69.99 326.14C68.968 326.376 67.8943 326.211 66.99 325.68C66.0384 325.162 65.2779 324.352 64.82 323.37C63.89 321.37 64.7 319.3 66.62 318.8C67.667 318.621 68.7436 318.798 69.6786 319.302C70.6137 319.805 71.3533 320.607 71.78 321.58C72.1529 322.247 72.2781 323.024 72.1335 323.774C71.989 324.524 71.5839 325.199 70.99 325.68Z" fill="#C7C7C7"/>
<path d="M69.37 322C69.4097 322.137 69.4163 322.281 69.3893 322.421C69.3622 322.561 69.3023 322.693 69.2144 322.805C69.1265 322.918 69.0132 323.008 68.8837 323.067C68.7543 323.127 68.6125 323.156 68.47 323.15C68.1444 323.137 67.8322 323.017 67.5812 322.809C67.3301 322.602 67.1541 322.317 67.08 322C67.0403 321.863 67.0337 321.719 67.0607 321.579C67.0878 321.439 67.1477 321.307 67.2356 321.195C67.3235 321.082 67.4368 320.993 67.5663 320.933C67.6957 320.873 67.8375 320.844 67.98 320.85C68.3051 320.865 68.6165 320.985 68.8672 321.193C69.1179 321.4 69.2944 321.683 69.37 322Z" fill="white"/>
<path d="M70.88 325.21L70.99 325.68C70.6879 325.894 70.3489 326.05 69.99 326.14C68.968 326.376 67.8943 326.211 66.99 325.68L66.89 325.21C66.8219 324.971 66.8112 324.72 66.859 324.477C66.9067 324.233 67.0115 324.005 67.1647 323.809C67.3179 323.614 67.5151 323.458 67.7403 323.354C67.9655 323.25 68.2121 323.2 68.46 323.21C69.0267 323.232 69.5704 323.44 70.0076 323.802C70.4448 324.163 70.7513 324.658 70.88 325.21Z" fill="white"/>
<path d="M118.29 323.3C118.278 323.262 118.276 323.223 118.284 323.184C118.291 323.145 118.308 323.109 118.332 323.078C118.357 323.048 118.389 323.024 118.425 323.008C118.461 322.993 118.501 322.987 118.54 322.99C118.63 322.993 118.716 323.025 118.786 323.081C118.856 323.137 118.907 323.213 118.93 323.3C118.939 323.339 118.939 323.379 118.931 323.418C118.922 323.457 118.904 323.493 118.879 323.524C118.854 323.555 118.822 323.58 118.786 323.596C118.749 323.613 118.71 323.621 118.67 323.62C118.58 323.617 118.493 323.584 118.424 323.526C118.355 323.468 118.308 323.388 118.29 323.3Z" fill="#C7C7C7"/>
<path d="M118.02 322C118.009 321.962 118.007 321.922 118.014 321.883C118.022 321.844 118.039 321.807 118.063 321.776C118.087 321.745 118.119 321.72 118.155 321.703C118.191 321.686 118.23 321.678 118.27 321.68C118.361 321.682 118.449 321.715 118.52 321.773C118.591 321.831 118.64 321.911 118.66 322C118.671 322.038 118.673 322.078 118.666 322.117C118.658 322.156 118.641 322.193 118.617 322.224C118.593 322.255 118.561 322.28 118.525 322.297C118.489 322.314 118.45 322.322 118.41 322.32C118.319 322.318 118.231 322.285 118.16 322.227C118.089 322.169 118.04 322.089 118.02 322Z" fill="#C7C7C7"/>
<path d="M117.75 320.78C117.739 320.742 117.737 320.702 117.744 320.663C117.752 320.624 117.768 320.587 117.793 320.556C117.817 320.525 117.849 320.5 117.885 320.483C117.921 320.466 117.96 320.458 118 320.46C118.091 320.462 118.179 320.495 118.25 320.553C118.321 320.611 118.37 320.691 118.39 320.78C118.401 320.818 118.403 320.858 118.396 320.897C118.388 320.936 118.371 320.973 118.347 321.004C118.323 321.035 118.291 321.06 118.255 321.077C118.219 321.094 118.18 321.102 118.14 321.1C118.05 321.095 117.963 321.061 117.893 321.003C117.823 320.946 117.773 320.868 117.75 320.78Z" fill="#C7C7C7"/>
<path d="M113.64 322.85H109.99L109.48 320.46H113.13L113.64 322.85Z" fill="#C7C7C7"/>
<path d="M109.99 322.85L110.15 323.62L110.78 322.85H109.99Z" fill="#C7C7C7"/>
<path d="M112.57 321.1H110.31L110.26 320.87H112.52L112.57 321.1Z" fill="white"/>
<path d="M112.67 321.57H110.41L110.36 321.35H112.62L112.67 321.57Z" fill="white"/>
<path d="M112.77 322.04H110.51L110.46 321.82H112.73L112.77 322.04Z" fill="white"/>
<path d="M278.43 314.34H55.47L53.91 306.99H276.87L278.43 314.34Z" fill="#37474F"/>
<path d="M60.53 310.66C60.5937 310.878 60.6046 311.108 60.5618 311.331C60.5191 311.553 60.4239 311.763 60.2842 311.942C60.1445 312.12 59.9642 312.263 59.7583 312.359C59.5524 312.454 59.3267 312.499 59.1 312.49C58.5822 312.469 58.0857 312.278 57.6866 311.947C57.2874 311.617 57.0076 311.165 56.89 310.66C56.8283 310.443 56.8188 310.214 56.8625 309.993C56.9061 309.771 57.0016 309.563 57.1411 309.385C57.2806 309.208 57.4601 309.066 57.665 308.971C57.8699 308.876 58.0944 308.831 58.32 308.84C58.8364 308.861 59.3319 309.05 59.7309 309.379C60.1298 309.707 60.4105 310.157 60.53 310.66Z" fill="#C7C7C7"/>
<path d="M67.98 310.66C68.0417 310.879 68.0508 311.109 68.0066 311.331C67.9624 311.554 67.8662 311.763 67.7258 311.941C67.5854 312.12 67.4047 312.263 67.1987 312.358C66.9926 312.453 66.7669 312.499 66.54 312.49C66.0232 312.465 65.5283 312.274 65.1298 311.944C64.7313 311.614 64.4506 311.163 64.33 310.66C64.2679 310.442 64.2586 310.212 64.3028 309.99C64.3469 309.768 64.4433 309.559 64.5839 309.381C64.7246 309.203 64.9055 309.062 65.1117 308.968C65.3179 308.873 65.5436 308.83 65.77 308.84C66.286 308.863 66.7806 309.052 67.1793 309.381C67.5779 309.709 67.859 310.158 67.98 310.66Z" fill="white"/>
<path d="M75.44 310.66C75.5037 310.878 75.5146 311.108 75.4718 311.331C75.4291 311.553 75.3339 311.763 75.1942 311.942C75.0545 312.12 74.8742 312.263 74.6683 312.359C74.4624 312.454 74.2367 312.499 74.01 312.49C73.4922 312.469 72.9957 312.278 72.5966 311.947C72.1974 311.617 71.9176 311.165 71.8 310.66C71.7383 310.443 71.7288 310.214 71.7725 309.993C71.8161 309.771 71.9116 309.563 72.0511 309.385C72.1906 309.208 72.3701 309.066 72.575 308.971C72.7799 308.876 73.0044 308.831 73.23 308.84C73.7464 308.861 74.2419 309.05 74.6409 309.379C75.0398 309.707 75.3205 310.157 75.44 310.66Z" fill="#FFC727"/>
<path d="M278.43 314.34H124.36L151.69 442.91H305.76L278.43 314.34Z" fill="#EBEBEB"/>
<path d="M292.45 436.71H164.51L162.91 429.22H290.86L292.45 436.71Z" fill="white"/>
<path d="M289.89 433.06C289.953 433.281 289.964 433.513 289.92 433.738C289.876 433.963 289.779 434.175 289.638 434.356C289.496 434.536 289.314 434.681 289.106 434.777C288.897 434.873 288.669 434.919 288.44 434.91C287.917 434.886 287.415 434.692 287.012 434.359C286.608 434.025 286.323 433.569 286.2 433.06C286.138 432.839 286.129 432.607 286.175 432.382C286.22 432.158 286.318 431.947 286.46 431.767C286.603 431.588 286.786 431.445 286.994 431.349C287.203 431.254 287.431 431.21 287.66 431.22C288.181 431.243 288.681 431.435 289.083 431.767C289.486 432.099 289.769 432.553 289.89 433.06Z" fill="#FFC727"/>
<path d="M287.48 432L288.85 433.06L287.93 434.13L287.65 433.88L288.34 433.06L287.3 432.25L287.48 432Z" fill="white"/>
<path d="M166.29 435.2H165.8L164.85 430.73H165.34L166.29 435.2Z" fill="#263238"/>
<path d="M297.44 436.77C297.396 436.769 297.354 436.754 297.32 436.727C297.285 436.7 297.261 436.662 297.25 436.62L296.87 434.82C296.863 434.801 296.861 434.781 296.864 434.762C296.867 434.742 296.875 434.724 296.887 434.708C296.899 434.692 296.915 434.679 296.933 434.671C296.95 434.663 296.97 434.659 296.99 434.66C297.035 434.663 297.077 434.68 297.111 434.709C297.145 434.738 297.169 434.777 297.18 434.82L297.56 436.62C297.565 436.638 297.565 436.657 297.561 436.675C297.557 436.693 297.549 436.71 297.538 436.725C297.526 436.74 297.511 436.751 297.494 436.759C297.477 436.767 297.459 436.771 297.44 436.77Z" fill="#A6A6A6"/>
<path d="M298.44 436.77H296.44C296.396 436.769 296.354 436.754 296.32 436.727C296.285 436.7 296.261 436.662 296.25 436.62C296.246 436.601 296.245 436.582 296.249 436.563C296.253 436.545 296.261 436.527 296.272 436.512C296.284 436.497 296.299 436.484 296.315 436.475C296.332 436.466 296.351 436.461 296.37 436.46H298.37C298.415 436.461 298.458 436.478 298.493 436.507C298.527 436.536 298.551 436.576 298.56 436.62C298.565 436.638 298.565 436.657 298.561 436.675C298.557 436.693 298.549 436.71 298.538 436.725C298.526 436.74 298.511 436.751 298.494 436.759C298.477 436.767 298.459 436.771 298.44 436.77Z" fill="#A6A6A6"/>
<path d="M297.44 430.49L297.99 433.1C298.033 433.252 298.039 433.411 298.008 433.566C297.977 433.72 297.911 433.866 297.813 433.989C297.716 434.113 297.59 434.212 297.447 434.278C297.304 434.344 297.147 434.376 296.99 434.37C296.736 434.36 296.488 434.291 296.265 434.168C296.043 434.044 295.853 433.87 295.71 433.66C295.589 433.493 295.504 433.302 295.46 433.1L294.9 430.49C294.857 430.338 294.851 430.179 294.882 430.024C294.913 429.87 294.98 429.724 295.077 429.601C295.174 429.477 295.3 429.378 295.443 429.312C295.586 429.246 295.743 429.214 295.9 429.22C296.267 429.219 296.622 429.35 296.9 429.59C297.17 429.802 297.364 430.097 297.45 430.43C297.45 430.43 297.44 430.47 297.44 430.49Z" fill="#A6A6A6"/>
<path d="M297.08 435C296.576 434.99 296.089 434.811 295.7 434.49C295.272 434.158 294.972 433.688 294.85 433.16L294.62 432.06C294.613 432.041 294.611 432.021 294.614 432.002C294.617 431.982 294.625 431.964 294.637 431.948C294.649 431.932 294.665 431.919 294.683 431.911C294.7 431.903 294.72 431.899 294.74 431.9C294.784 431.902 294.826 431.919 294.859 431.948C294.891 431.977 294.913 432.017 294.92 432.06L295.16 433.16C295.264 433.6 295.515 433.991 295.87 434.27C296.212 434.553 296.646 434.703 297.09 434.69C297.276 434.681 297.458 434.63 297.622 434.54C297.786 434.451 297.927 434.325 298.035 434.173C298.143 434.02 298.215 433.846 298.245 433.662C298.275 433.477 298.263 433.289 298.21 433.11L297.99 432.06C297.983 432.041 297.981 432.021 297.984 432.002C297.987 431.982 297.995 431.964 298.007 431.948C298.019 431.932 298.035 431.919 298.053 431.911C298.07 431.903 298.09 431.899 298.11 431.9C298.154 431.902 298.196 431.919 298.229 431.948C298.261 431.977 298.283 432.017 298.29 432.06L298.52 433.11C298.584 433.325 298.598 433.553 298.561 433.775C298.524 433.997 298.436 434.207 298.305 434.389C298.173 434.572 298.002 434.722 297.803 434.828C297.605 434.934 297.385 434.993 297.16 435H297.08Z" fill="#A6A6A6"/>
<path d="M160.99 433C161.109 433.447 161.123 433.915 161.03 434.368C160.938 434.821 160.743 435.246 160.459 435.611C160.176 435.976 159.812 436.271 159.395 436.472C158.979 436.673 158.522 436.775 158.06 436.77C157 436.725 155.983 436.337 155.163 435.664C154.342 434.991 153.762 434.071 153.51 433.04C153.391 432.593 153.378 432.125 153.47 431.672C153.562 431.219 153.757 430.794 154.041 430.429C154.324 430.064 154.688 429.769 155.105 429.568C155.521 429.367 155.978 429.265 156.44 429.27C157.501 429.312 158.519 429.699 159.34 430.372C160.161 431.045 160.741 431.968 160.99 433Z" fill="white"/>
<path d="M155.83 432.23C155.849 432.293 155.853 432.359 155.841 432.424C155.83 432.489 155.803 432.549 155.762 432.601C155.722 432.653 155.67 432.695 155.611 432.722C155.551 432.75 155.486 432.763 155.42 432.76C155.27 432.756 155.125 432.703 155.008 432.609C154.89 432.515 154.807 432.386 154.77 432.24C154.753 432.177 154.751 432.11 154.764 432.045C154.777 431.981 154.805 431.92 154.846 431.869C154.887 431.817 154.939 431.776 154.999 431.748C155.059 431.721 155.124 431.708 155.19 431.71C155.339 431.715 155.482 431.768 155.598 431.862C155.713 431.956 155.795 432.085 155.83 432.23Z" fill="#A6A6A6"/>
<path d="M159.44 432.22C159.459 432.283 159.463 432.349 159.451 432.414C159.44 432.478 159.413 432.539 159.372 432.591C159.332 432.643 159.28 432.685 159.221 432.712C159.161 432.74 159.096 432.753 159.03 432.75C158.88 432.743 158.737 432.688 158.621 432.592C158.506 432.497 158.425 432.366 158.39 432.22C158.371 432.157 158.367 432.091 158.379 432.026C158.39 431.962 158.417 431.901 158.458 431.849C158.498 431.797 158.55 431.755 158.609 431.728C158.669 431.7 158.734 431.687 158.8 431.69C158.95 431.697 159.093 431.752 159.209 431.848C159.324 431.943 159.405 432.074 159.44 432.22Z" fill="#A6A6A6"/>
<path d="M157.85 432.06C157.891 432.23 157.866 432.408 157.78 432.56C157.723 432.654 157.642 432.732 157.546 432.785C157.449 432.837 157.34 432.863 157.23 432.86C156.971 432.856 156.724 432.752 156.54 432.57C156.4 432.434 156.303 432.26 156.26 432.07L157.85 432.06Z" fill="#A6A6A6"/>
<path d="M157.78 432.56C157.723 432.654 157.642 432.732 157.546 432.785C157.449 432.837 157.34 432.863 157.23 432.86C156.971 432.856 156.724 432.752 156.54 432.57C156.614 432.495 156.703 432.435 156.801 432.396C156.899 432.356 157.004 432.337 157.11 432.34C157.351 432.341 157.586 432.418 157.78 432.56Z" fill="#DBDBDB"/>
<path d="M71.77 338.54L71.3 338.97L69.98 337.6L69.5 337.1C69.5709 337.074 69.6356 337.033 69.69 336.98C69.7972 336.882 69.8707 336.752 69.9 336.61L70.41 337.14L71.77 338.54Z" fill="#A6A6A6"/>
<path d="M69.99 335.34C69.7308 335.021 69.3597 334.814 68.9526 334.76C68.5455 334.706 68.1332 334.81 67.8 335.05C67.6684 335.201 67.5682 335.376 67.5054 335.566C67.4426 335.756 67.4184 335.956 67.4342 336.156C67.4501 336.355 67.5056 336.549 67.5976 336.727C67.6896 336.905 67.8162 337.062 67.97 337.19C68.2121 337.468 68.5391 337.66 68.9006 337.734C69.2621 337.808 69.6379 337.761 69.97 337.6C70.0355 337.565 70.0961 337.521 70.15 337.47C70.2533 337.377 70.3381 337.265 70.4 337.14C70.5231 336.834 70.5498 336.498 70.4765 336.176C70.4032 335.854 70.2335 335.563 69.99 335.34ZM69.69 336.98C69.6356 337.033 69.5709 337.074 69.5 337.1C69.3063 337.174 69.0944 337.185 68.8938 337.133C68.6932 337.081 68.5136 336.968 68.38 336.81C68.2881 336.735 68.2122 336.642 68.1567 336.537C68.1013 336.432 68.0674 336.317 68.0572 336.198C68.0469 336.08 68.0605 335.961 68.097 335.848C68.1336 335.735 68.1924 335.63 68.27 335.54C68.4725 335.401 68.719 335.342 68.9624 335.373C69.2058 335.405 69.4292 335.525 69.59 335.71C69.7083 335.825 69.7979 335.967 69.8517 336.123C69.9055 336.28 69.9221 336.446 69.9 336.61C69.8748 336.76 69.801 336.897 69.69 337V336.98Z" fill="#A6A6A6"/>
<path d="M77.76 337.52C77.7675 337.511 77.7767 337.505 77.7871 337.5C77.7974 337.495 77.8086 337.493 77.82 337.493C77.8313 337.493 77.8426 337.495 77.8529 337.5C77.8633 337.505 77.8725 337.511 77.88 337.52C78.1692 337.737 78.5185 337.859 78.88 337.87C79.0824 337.88 79.2816 337.816 79.44 337.69C79.5012 337.645 79.548 337.583 79.5746 337.512C79.6013 337.441 79.6066 337.364 79.59 337.29C79.5716 337.209 79.535 337.134 79.483 337.07C79.431 337.006 79.365 336.955 79.29 336.92C79.0784 336.805 78.8483 336.727 78.61 336.69C78.3668 336.661 78.1321 336.583 77.92 336.46C77.8268 336.413 77.7446 336.347 77.6791 336.266C77.6135 336.185 77.5661 336.091 77.54 335.99C77.5192 335.897 77.525 335.799 77.5568 335.709C77.5887 335.619 77.6452 335.54 77.72 335.48C77.8918 335.341 78.109 335.269 78.33 335.28C78.6565 335.303 78.9707 335.414 79.24 335.6C79.253 335.617 79.26 335.638 79.26 335.66C79.26 335.682 79.253 335.703 79.24 335.72C79.2335 335.728 79.2251 335.735 79.2156 335.74C79.206 335.744 79.1956 335.747 79.185 335.747C79.1744 335.747 79.164 335.744 79.1544 335.74C79.1449 335.735 79.1366 335.728 79.13 335.72C78.8895 335.555 78.6105 335.455 78.32 335.43C78.1338 335.425 77.9511 335.481 77.8 335.59C77.7441 335.634 77.7015 335.693 77.6768 335.76C77.6521 335.827 77.6463 335.9 77.66 335.97C77.6819 336.041 77.7181 336.107 77.7662 336.164C77.8143 336.22 77.8734 336.267 77.94 336.3C78.1337 336.404 78.3432 336.475 78.56 336.51C78.8234 336.546 79.0777 336.631 79.31 336.76C79.4104 336.811 79.4989 336.883 79.5695 336.971C79.6402 337.059 79.6915 337.161 79.72 337.27C79.7395 337.371 79.7312 337.476 79.696 337.573C79.6608 337.669 79.5999 337.755 79.52 337.82C79.3347 337.964 79.1046 338.038 78.87 338.03C78.477 338.006 78.0988 337.871 77.78 337.64C77.7639 337.625 77.7533 337.605 77.7497 337.583C77.746 337.562 77.7497 337.539 77.76 337.52Z" fill="#A6A6A6"/>
<path d="M80.21 337.08C80.1667 336.965 80.1527 336.841 80.1692 336.719C80.1857 336.598 80.2323 336.482 80.3048 336.383C80.3772 336.284 80.4732 336.204 80.5841 336.151C80.695 336.098 80.8173 336.074 80.94 336.08C81.1936 336.094 81.4362 336.188 81.6337 336.347C81.8311 336.507 81.9732 336.725 82.04 336.97C82.0414 336.981 82.0404 336.993 82.037 337.004C82.0337 337.015 82.028 337.025 82.0204 337.033C82.0128 337.042 82.0035 337.048 81.9931 337.053C81.9827 337.058 81.9714 337.06 81.96 337.06H80.44C80.4951 337.259 80.6101 337.435 80.7694 337.566C80.9287 337.697 81.1245 337.775 81.33 337.79C81.4456 337.797 81.5606 337.767 81.6578 337.704C81.7551 337.641 81.8295 337.549 81.87 337.44C81.8865 337.425 81.9079 337.417 81.93 337.417C81.9521 337.417 81.9735 337.425 81.99 337.44C82.0139 337.451 82.033 337.47 82.0441 337.494C82.0551 337.518 82.0572 337.545 82.05 337.57C81.9939 337.703 81.899 337.816 81.7777 337.895C81.6565 337.973 81.5144 338.013 81.37 338.01C81.1017 338.003 80.843 337.908 80.6336 337.74C80.4241 337.572 80.2754 337.34 80.21 337.08ZM80.38 336.92H81.82C81.7507 336.749 81.6356 336.601 81.4873 336.492C81.3391 336.382 81.1635 336.316 80.98 336.3C80.8987 336.297 80.8176 336.311 80.7421 336.341C80.6667 336.372 80.5984 336.418 80.5418 336.476C80.4852 336.535 80.4416 336.604 80.4137 336.681C80.3858 336.757 80.3743 336.839 80.38 336.92Z" fill="#A6A6A6"/>
<path d="M84.14 336.21L84.5 337.93C84.5029 337.941 84.5034 337.953 84.5014 337.964C84.4993 337.976 84.4948 337.987 84.4882 337.996C84.4815 338.006 84.4728 338.014 84.4628 338.02C84.4528 338.025 84.4416 338.029 84.43 338.03C84.4036 338.027 84.379 338.015 84.3593 337.997C84.3396 337.979 84.3259 337.956 84.32 337.93L84.26 337.65C84.1981 337.766 84.1057 337.862 83.9929 337.929C83.8801 337.996 83.7512 338.031 83.62 338.03C83.3521 338.008 83.099 337.898 82.9001 337.717C82.7012 337.536 82.5676 337.295 82.52 337.03C82.4833 336.921 82.4732 336.805 82.4905 336.691C82.5078 336.578 82.5521 336.47 82.6197 336.377C82.6872 336.284 82.7761 336.208 82.8788 336.157C82.9815 336.105 83.095 336.079 83.21 336.08C83.3612 336.085 83.5098 336.121 83.6472 336.185C83.7845 336.248 83.9079 336.338 84.01 336.45L83.95 336.17C83.9468 336.159 83.9462 336.148 83.9483 336.137C83.9503 336.126 83.955 336.116 83.9618 336.107C83.9687 336.098 83.9775 336.091 83.9876 336.086C83.9978 336.082 84.0088 336.08 84.02 336.08C84.0366 336.08 84.0531 336.083 84.0683 336.09C84.0836 336.097 84.0973 336.106 84.1086 336.119C84.1199 336.131 84.1285 336.145 84.1339 336.161C84.1393 336.177 84.1414 336.193 84.14 336.21ZM84.14 337.07C84.0927 336.866 83.9822 336.681 83.8243 336.543C83.6663 336.405 83.4689 336.32 83.26 336.3C83.1681 336.302 83.0779 336.325 82.9966 336.368C82.9153 336.411 82.8451 336.472 82.7917 336.547C82.7383 336.622 82.7031 336.708 82.6889 336.799C82.6747 336.89 82.6819 336.982 82.71 337.07C82.7573 337.274 82.8678 337.459 83.0257 337.597C83.1837 337.735 83.3811 337.82 83.59 337.84C83.681 337.837 83.7701 337.812 83.8501 337.769C83.9301 337.725 83.999 337.664 84.0513 337.589C84.1036 337.515 84.1379 337.429 84.1516 337.339C84.1652 337.249 84.1578 337.157 84.13 337.07H84.14Z" fill="#A6A6A6"/>
<path d="M86.61 337.07C86.5775 336.954 86.5734 336.832 86.5983 336.713C86.6231 336.595 86.676 336.485 86.7526 336.392C86.8291 336.299 86.927 336.225 87.038 336.178C87.149 336.131 87.2697 336.111 87.39 336.12C87.623 336.122 87.8499 336.195 88.04 336.33C88.0538 336.349 88.0613 336.372 88.0613 336.395C88.0613 336.418 88.0538 336.441 88.04 336.46C88.0219 336.475 87.9988 336.484 87.975 336.484C87.9512 336.484 87.9281 336.475 87.91 336.46C87.7548 336.351 87.5699 336.291 87.38 336.29C87.2828 336.283 87.1855 336.3 87.0961 336.339C87.0067 336.377 86.9278 336.437 86.8661 336.512C86.8045 336.588 86.7617 336.677 86.7415 336.772C86.7213 336.867 86.7242 336.966 86.75 337.06C86.8028 337.284 86.931 337.482 87.1132 337.623C87.2953 337.763 87.5202 337.836 87.75 337.83C87.9193 337.833 88.0837 337.773 88.21 337.66C88.2281 337.645 88.2512 337.636 88.275 337.636C88.2988 337.636 88.3219 337.645 88.34 337.66C88.34 337.66 88.34 337.76 88.34 337.79C88.1875 337.93 87.9868 338.005 87.78 338C87.5108 337.992 87.2515 337.897 87.0407 337.729C86.8299 337.562 86.6788 337.33 86.61 337.07Z" fill="#A6A6A6"/>
<path d="M90.33 336.87C90.2878 336.709 90.1931 336.566 90.061 336.465C89.9288 336.364 89.7666 336.309 89.6 336.31C89.5274 336.3 89.4535 336.309 89.3851 336.335C89.3166 336.361 89.2558 336.404 89.2082 336.46C89.1605 336.515 89.1274 336.582 89.112 336.654C89.0967 336.725 89.0994 336.8 89.12 336.87L89.34 337.93C89.3239 337.936 89.3061 337.936 89.29 337.93H89.21L88.99 336.87L88.68 335.42C88.6768 335.409 88.6762 335.398 88.6783 335.387C88.6803 335.376 88.685 335.366 88.6918 335.357C88.6987 335.348 88.7075 335.341 88.7176 335.336C88.7278 335.332 88.7389 335.33 88.75 335.33C88.7773 335.329 88.804 335.338 88.8258 335.354C88.8476 335.37 88.8632 335.394 88.87 335.42L89.09 336.42C89.1476 336.33 89.2278 336.257 89.3226 336.208C89.4174 336.159 89.5234 336.135 89.63 336.14C89.8571 336.133 90.0799 336.203 90.2616 336.34C90.4434 336.476 90.5733 336.67 90.63 336.89L90.85 337.95C90.853 337.961 90.8534 337.973 90.8514 337.984C90.8493 337.996 90.8448 338.007 90.8382 338.016C90.8315 338.026 90.8229 338.034 90.8128 338.04C90.8028 338.045 90.7916 338.049 90.78 338.05C90.7519 338.049 90.7249 338.038 90.7033 338.02C90.6817 338.002 90.6665 337.977 90.66 337.95L90.33 336.87Z" fill="#A6A6A6"/>
<path d="M92.44 337.07C92.4075 336.954 92.4035 336.832 92.4283 336.713C92.4531 336.595 92.506 336.485 92.5826 336.392C92.6591 336.299 92.7571 336.225 92.868 336.178C92.979 336.131 93.0997 336.111 93.22 336.12C93.453 336.122 93.6799 336.195 93.87 336.33C93.8838 336.349 93.8913 336.372 93.8913 336.395C93.8913 336.418 93.8838 336.441 93.87 336.46C93.8519 336.475 93.8288 336.484 93.805 336.484C93.7812 336.484 93.7581 336.475 93.74 336.46C93.5848 336.351 93.3999 336.291 93.21 336.29C93.1128 336.283 93.0155 336.3 92.9261 336.339C92.8367 336.377 92.7578 336.437 92.6962 336.512C92.6345 336.588 92.5917 336.677 92.5715 336.772C92.5513 336.867 92.5542 336.966 92.58 337.06C92.6328 337.284 92.7611 337.482 92.9432 337.623C93.1253 337.763 93.3502 337.836 93.58 337.83C93.7493 337.833 93.9137 337.773 94.04 337.66C94.0581 337.645 94.0812 337.636 94.105 337.636C94.1288 337.636 94.1519 337.645 94.17 337.66C94.17 337.66 94.17 337.76 94.17 337.79C94.0175 337.93 93.8168 338.005 93.61 338C93.3408 337.992 93.0815 337.897 92.8707 337.729C92.6599 337.562 92.5088 337.33 92.44 337.07Z" fill="#A6A6A6"/>
<path d="M96.11 336.87C96.0678 336.709 95.9731 336.566 95.841 336.465C95.7088 336.364 95.5466 336.309 95.38 336.31C95.3074 336.3 95.2335 336.309 95.1651 336.335C95.0966 336.361 95.0358 336.404 94.9882 336.46C94.9405 336.515 94.9074 336.582 94.8921 336.654C94.8767 336.725 94.8794 336.8 94.9 336.87L95.12 337.93C95.1039 337.936 95.0861 337.936 95.07 337.93H94.99L94.76 336.87L94.44 335.39C94.4368 335.379 94.4362 335.368 94.4383 335.357C94.4403 335.346 94.445 335.336 94.4518 335.327C94.4587 335.318 94.4675 335.311 94.4776 335.306C94.4878 335.302 94.4989 335.3 94.51 335.3C94.5373 335.299 94.564 335.308 94.5858 335.324C94.6076 335.34 94.6232 335.364 94.63 335.39L94.84 336.39C94.9006 336.301 94.9829 336.228 95.079 336.179C95.1752 336.13 95.2822 336.107 95.39 336.11C95.6171 336.103 95.8399 336.173 96.0216 336.31C96.2034 336.446 96.3333 336.64 96.39 336.86L96.61 337.92C96.6131 337.932 96.6134 337.945 96.6108 337.957C96.6082 337.969 96.6028 337.98 96.595 337.99C96.5873 338 96.5773 338.007 96.5661 338.013C96.5548 338.018 96.5424 338.02 96.53 338.02C96.5036 338.017 96.479 338.005 96.4593 337.987C96.4396 337.969 96.4259 337.946 96.42 337.92L96.11 336.87Z" fill="#A6A6A6"/>
<path d="M98.71 336.21L99.07 337.93C99.0729 337.941 99.0734 337.953 99.0714 337.964C99.0693 337.976 99.0648 337.987 99.0582 337.996C99.0515 338.006 99.0428 338.014 99.0328 338.02C99.0228 338.025 99.0116 338.029 99 338.03C98.9736 338.027 98.949 338.015 98.9293 337.997C98.9096 337.979 98.8959 337.956 98.89 337.93L98.83 337.65C98.7681 337.766 98.6757 337.862 98.5629 337.929C98.4501 337.996 98.3212 338.031 98.19 338.03C97.9214 338.007 97.6678 337.896 97.4675 337.716C97.2672 337.535 97.1312 337.295 97.08 337.03C97.0453 336.92 97.0371 336.804 97.0559 336.69C97.0747 336.577 97.1201 336.47 97.1884 336.377C97.2566 336.284 97.3458 336.209 97.4486 336.158C97.5514 336.106 97.665 336.079 97.78 336.08C97.9312 336.085 98.0798 336.121 98.2172 336.185C98.3546 336.248 98.4779 336.338 98.58 336.45L98.52 336.17C98.5168 336.159 98.5162 336.148 98.5183 336.137C98.5203 336.126 98.525 336.116 98.5318 336.107C98.5387 336.098 98.5475 336.091 98.5576 336.086C98.5678 336.082 98.5788 336.08 98.59 336.08C98.6219 336.085 98.6513 336.1 98.6731 336.124C98.695 336.147 98.708 336.178 98.71 336.21ZM98.71 337.07C98.6627 336.866 98.5522 336.681 98.3943 336.543C98.2363 336.405 98.0389 336.32 97.83 336.3C97.7381 336.302 97.6479 336.325 97.5666 336.368C97.4853 336.411 97.4151 336.472 97.3617 336.547C97.3083 336.622 97.2731 336.708 97.2589 336.799C97.2447 336.89 97.2519 336.982 97.28 337.07C97.3273 337.274 97.4378 337.459 97.5957 337.597C97.7537 337.735 97.9511 337.82 98.16 337.84C98.251 337.837 98.3401 337.812 98.4201 337.769C98.5001 337.725 98.569 337.664 98.6213 337.589C98.6736 337.515 98.7079 337.429 98.7216 337.339C98.7352 337.249 98.7279 337.157 98.7 337.07H98.71Z" fill="#A6A6A6"/>
<path d="M100.18 336.21C100.183 336.221 100.184 336.232 100.182 336.243C100.18 336.254 100.175 336.264 100.168 336.273C100.161 336.282 100.152 336.289 100.142 336.294C100.132 336.298 100.121 336.3 100.11 336.3H99.87L100.16 337.69C100.169 337.729 100.19 337.764 100.221 337.789C100.252 337.814 100.29 337.829 100.33 337.83C100.357 337.834 100.383 337.846 100.404 337.863C100.425 337.881 100.441 337.904 100.45 337.93C100.453 337.942 100.453 337.955 100.451 337.967C100.448 337.979 100.443 337.99 100.435 338C100.427 338.01 100.417 338.017 100.406 338.023C100.395 338.028 100.382 338.03 100.37 338.03C100.274 338.029 100.182 337.995 100.108 337.932C100.035 337.87 99.9864 337.785 99.97 337.69L99.67 336.3H99.44C99.35 336.3 99.34 336.3 99.33 336.21C99.32 336.12 99.33 336.12 99.4 336.12H99.64L99.49 335.41C99.4871 335.399 99.4866 335.387 99.4886 335.376C99.4907 335.364 99.4952 335.353 99.5018 335.344C99.5085 335.334 99.5172 335.326 99.5272 335.32C99.5372 335.315 99.5484 335.311 99.56 335.31C99.56 335.31 99.68 335.36 99.68 335.41L99.84 336.12H100.08C100.104 336.123 100.126 336.134 100.144 336.15C100.162 336.166 100.174 336.187 100.18 336.21Z" fill="#A6A6A6"/>
<path d="M130.37 342.49H61.48V342.74H130.37V342.49Z" fill="#A6A6A6"/>
<path d="M127.88 330.75H58.99V331H127.88V330.75Z" fill="#A6A6A6"/>
<path d="M113.342 459.56H89.4521V463.29H113.342V459.56Z" fill="#238FFF"/>
<path opacity="0.1" d="M113.342 459.56H89.4521V462.02H113.342V459.56Z" fill="black"/>
<path d="M61.0921 449.54C62.7597 452.073 65.2499 453.954 68.1427 454.865C71.0356 455.776 74.154 455.661 76.9721 454.54C78.1591 454.073 79.2923 453.48 80.3521 452.77L77.3521 448.27C76.789 448.66 76.1896 448.995 75.5621 449.27C69.8721 451.85 66.2721 447.37 65.5621 446.34C62.2821 441.74 61.1121 431.23 64.4321 427.19C64.6521 426.89 65.6121 426.41 69.4321 427.19C70.1421 427.35 70.9421 427.53 71.8521 427.78C72.5608 428.023 73.296 428.181 74.0421 428.25L74.1321 425.55L74.4021 422.85C74.1521 422.85 73.7621 422.7 73.2621 422.56C71.4815 422.04 69.6625 421.662 67.8221 421.43C64.9921 421.14 62.0321 421.43 60.2121 423.71C54.8121 430.41 56.9921 443.77 61.0921 449.54Z" fill="#238FFF"/>
<path opacity="0.1" d="M77.3121 448.32C76.749 448.71 76.1496 449.045 75.5221 449.32L76.9721 454.58C78.1591 454.113 79.2923 453.52 80.3521 452.81L77.3121 448.32Z" fill="black"/>
<path opacity="0.1" d="M67.8121 421.53L69.4221 427.29C70.1321 427.45 70.9321 427.63 71.8421 427.88C72.5508 428.123 73.286 428.281 74.0321 428.35L74.1221 425.65L74.3921 422.95C74.1421 422.95 73.7521 422.8 73.2521 422.66C71.4715 422.14 69.6525 421.762 67.8121 421.53Z" fill="black"/>
<path d="M133.172 414.49C133.172 414.49 130.312 438.83 125.362 449.09C120.412 459.35 113.502 460.47 109.202 460.47H93.5921C89.2921 460.47 82.3821 459.33 77.4321 449.09C72.4821 438.85 69.6221 414.49 69.6221 414.49H133.172Z" fill="#238FFF"/>
<g opacity="0.73">
<path d="M225.76 355.1H364.41V297.15H225.76V355.1Z" fill="url(#paint0_linear_1114_2215)"/>
<path d="M364.41 314.24V297.15H382.2L364.41 314.24Z" fill="url(#paint1_linear_1114_2215)"/>
<path d="M353.83 307.17H236.33V308.27H353.83V307.17Z" fill="#D9D9D9"/>
<path d="M319.91 313.11H236.33V314.21H319.91V313.11Z" fill="#D9D9D9"/>
<path d="M340.4 325.01H236.33V326.11H340.4V325.01Z" fill="#D9D9D9"/>
<path d="M353.83 330.95H236.33V332.05H353.83V330.95Z" fill="#D9D9D9"/>
<path d="M353.83 336.9H236.33V338H353.83V336.9Z" fill="#D9D9D9"/>
<path d="M308.57 342.85H236.33V343.95H308.57V342.85Z" fill="#D9D9D9"/>
<path d="M345.45 190.33H206.8V239.23H345.45V190.33Z" fill="url(#paint2_linear_1114_2215)"/>
<path d="M206.82 207.43V190.33H189.02L206.82 207.43Z" fill="url(#paint3_linear_1114_2215)"/>
<path d="M307.77 199.36H217.58V200.46H307.77V199.36Z" fill="white"/>
<path d="M335.08 205.31H217.58V206.41H335.08V205.31Z" fill="white"/>
<path d="M335.08 211.26H217.58V212.36H335.08V211.26Z" fill="white"/>
<path d="M322.14 217.2H217.58V218.3H322.14V217.2Z" fill="white"/>
<path d="M335.08 223.15H217.58V224.25H335.08V223.15Z" fill="white"/>
<path d="M292.41 229.1H217.58V230.2H292.41V229.1Z" fill="white"/>
<path d="M345.45 247.14H206.8V283.4H345.45V247.14Z" fill="url(#paint4_linear_1114_2215)"/>
<path d="M206.82 264.23V247.14H189.02L206.82 264.23Z" fill="url(#paint5_linear_1114_2215)"/>
<path d="M334.79 256.17H217.58V257.27H334.79V256.17Z" fill="white"/>
<path d="M305.93 262.12H217.58V263.22H305.93V262.12Z" fill="white"/>
<path d="M319.42 268.06H217.58V269.16H319.42V268.06Z" fill="white"/>
<path d="M285.64 274.01H217.58V275.11H285.64V274.01Z" fill="white"/>
<path d="M345.45 366.37H206.8V399.82H345.45V366.37Z" fill="url(#paint6_linear_1114_2215)"/>
<path d="M206.8 383.46V366.37H189L206.8 383.46Z" fill="url(#paint7_linear_1114_2215)"/>
<path d="M326 375.4H217.58V376.5H326V375.4Z" fill="white"/>
<path d="M297.92 381.34H217.58V382.44H297.92V381.34Z" fill="white"/>
<path d="M318.46 387.29H217.58V388.39H318.46V387.29Z" fill="white"/>
</g>
<path d="M415.02 310.359C432.704 310.359 447.04 296.023 447.04 278.339C447.04 260.655 432.704 246.319 415.02 246.319C397.336 246.319 383 260.655 383 278.339C383 296.023 397.336 310.359 415.02 310.359Z" fill="#A6A6A6"/>
<path d="M405.86 299.559L408.69 312.399L429.41 297.089L436.84 303.929C436.84 303.929 420.2 323.339 406.7 323.339C399.62 323.339 398.23 307.089 398.23 307.089L405.86 299.559Z" fill="#7F58FF"/>
<path d="M409.1 314.159C414.31 315.779 423.96 308.319 428 302.009C428.27 301.579 427.91 296.789 427.75 290.959C427.66 287.419 427.65 283.469 427.9 279.869C427.96 279.129 404.9 283.789 404.9 283.789C405.88 288.388 406.29 293.09 406.12 297.789C406.082 298.286 405.995 298.779 405.86 299.259C405.86 299.319 405.86 299.409 405.86 299.499C405.2 302.249 404.07 312.589 409.1 314.159Z" fill="#DD6A57"/>
<path d="M426.58 279.849C425.01 286.129 420.06 300.409 408.17 299.849C407.393 299.816 406.621 299.719 405.86 299.559C405.86 299.469 405.86 299.379 405.86 299.319C406.001 298.84 406.088 298.347 406.12 297.849V297.789C406.262 295.455 406.208 293.114 405.96 290.789C405.724 288.476 405.371 286.176 404.9 283.899L405.05 283.799C406.86 283.409 421.96 280.369 426.58 279.849Z" fill="#263238"/>
<path d="M429.86 251.199C432.64 259.119 429.39 282.459 423.91 287.869C415.96 295.709 402.45 296.999 395.67 287.329C389.09 277.959 393.86 247.609 400.03 242.639C409.13 235.329 425.74 239.509 429.86 251.199Z" fill="#DD6A57"/>
<path d="M427.8 270.789C422.33 269.959 422.74 259.869 422.74 259.869C422.74 259.869 413.57 256.929 413.25 249.659C413.25 249.659 403.49 254.029 396.86 250.449C390.23 246.869 392.86 239.159 393.86 237.579C394.86 235.999 398.31 239.719 398.31 239.719C398.31 239.719 399.41 235.299 400.68 235.019C401.95 234.739 402.85 237.649 402.85 237.649C402.85 237.649 412.33 235.959 420.49 237.399C428.65 238.839 431.49 247.719 431.49 247.719C431.49 247.719 435.73 249.299 436.7 252.579C437.67 255.859 431.28 271.279 427.8 270.789Z" fill="#263238"/>
<path d="M407.35 267.379C407.35 267.319 407.46 267.469 407.45 267.529C407.19 269.099 407.15 270.939 408.51 271.649C408.51 271.649 408.51 271.749 408.51 271.739C406.82 271.259 406.89 268.789 407.35 267.379Z" fill="#263238"/>
<path d="M409.01 265.919C411.57 266.069 411.09 271.169 408.72 271.039C406.35 270.909 406.87 265.789 409.01 265.919Z" fill="#263238"/>
<path d="M398.21 266.789C398.21 266.729 398.08 266.849 398.08 266.919C397.98 268.499 397.6 270.299 396.08 270.689V270.779C397.89 270.679 398.35 268.289 398.21 266.789Z" fill="#263238"/>
<path d="M396.96 264.979C394.43 264.549 393.75 269.629 396.09 270.029C398.43 270.429 399.07 265.349 396.96 264.979Z" fill="#263238"/>
<path d="M411.25 263.789C410.599 263.528 409.961 263.234 409.34 262.909C408.622 262.691 407.996 262.24 407.56 261.629C407.46 261.411 407.435 261.166 407.489 260.933C407.543 260.699 407.674 260.49 407.86 260.339C408.273 260.098 408.742 259.971 409.22 259.971C409.698 259.971 410.167 260.098 410.58 260.339C411.495 260.698 412.247 261.381 412.69 262.259C412.771 262.464 412.793 262.688 412.751 262.904C412.71 263.121 412.608 263.321 412.456 263.482C412.305 263.642 412.112 263.757 411.898 263.811C411.684 263.865 411.459 263.858 411.25 263.789Z" fill="#263238"/>
<path d="M395.23 262.229C395.929 262.156 396.624 262.042 397.31 261.889C398.057 261.877 398.778 261.617 399.36 261.149C399.516 260.967 399.607 260.739 399.618 260.499C399.629 260.26 399.559 260.024 399.42 259.829C399.092 259.481 398.677 259.227 398.218 259.094C397.76 258.96 397.273 258.951 396.81 259.069C395.832 259.168 394.924 259.623 394.26 260.349C394.121 260.524 394.035 260.735 394.014 260.958C393.992 261.18 394.035 261.404 394.137 261.603C394.24 261.801 394.397 261.966 394.591 262.077C394.785 262.188 395.007 262.241 395.23 262.229Z" fill="#263238"/>
<path d="M407.46 282.189C407.05 282.519 406.62 282.989 406.04 282.989C405.454 282.917 404.89 282.726 404.38 282.429C404.38 282.429 404.28 282.429 404.31 282.499C404.504 282.832 404.786 283.106 405.124 283.291C405.462 283.476 405.845 283.565 406.23 283.549C406.561 283.495 406.868 283.345 407.113 283.117C407.359 282.89 407.532 282.595 407.61 282.269C407.64 282.179 407.52 282.139 407.46 282.189Z" fill="#263238"/>
<path d="M406.26 277.389C405.791 277.97 405.207 278.448 404.545 278.793C403.882 279.137 403.155 279.34 402.41 279.389C401.758 279.442 401.102 279.405 400.46 279.279L400.09 279.199L399.75 279.109C399.668 279.082 399.597 279.029 399.547 278.959C399.497 278.889 399.47 278.805 399.47 278.719C399.464 278.666 399.464 278.612 399.47 278.559V278.429C399.56 277.199 399.88 275.359 399.88 275.359C399.41 275.539 397.03 276.359 397.13 275.689C398.01 270.449 398.98 264.629 400.95 259.609C400.962 259.574 400.987 259.545 401.02 259.527C401.053 259.51 401.09 259.505 401.127 259.514C401.163 259.522 401.194 259.544 401.215 259.575C401.236 259.605 401.245 259.642 401.24 259.679C400.6 264.739 399.07 269.679 398.35 274.739C399.195 274.446 400.077 274.274 400.97 274.229C401.14 274.299 400.3 277.779 400.3 278.329V278.389C402.3 278.869 403.93 278.389 406.06 277.249C406.25 277.149 406.35 277.269 406.26 277.389Z" fill="#263238"/>
<path d="M401.26 278.939C401.875 279.853 402.715 280.594 403.7 281.089C404.246 281.344 404.858 281.42 405.45 281.309C406.74 281.049 406.84 279.889 406.67 278.879C406.573 278.343 406.415 277.819 406.2 277.319C404.768 278.372 403.037 278.94 401.26 278.939Z" fill="#263238"/>
<path d="M403.7 281.089C404.246 281.344 404.858 281.42 405.45 281.309C406.74 281.049 406.84 279.889 406.67 278.879C405.999 278.862 405.342 279.071 404.803 279.471C404.265 279.872 403.877 280.441 403.7 281.089Z" fill="#FF99BA"/>
<path d="M425.71 270.289C425.71 270.289 430.78 262.679 434.22 264.469C437.66 266.259 433.97 277.219 430.01 278.799C429.515 279.035 428.978 279.168 428.431 279.191C427.883 279.214 427.337 279.126 426.824 278.933C426.312 278.739 425.843 278.444 425.447 278.066C425.051 277.687 424.736 277.232 424.52 276.729L425.71 270.289Z" fill="#DD6A57"/>
<path d="M433.09 267.669C433.15 267.669 433.16 267.749 433.09 267.779C430.31 268.969 428.9 271.599 427.93 274.319C428.74 273.259 429.86 272.669 431.27 273.629C431.34 273.679 431.27 273.799 431.2 273.779C430.704 273.633 430.174 273.644 429.685 273.813C429.196 273.981 428.771 274.298 428.47 274.719C427.962 275.418 427.536 276.173 427.2 276.969C427.07 277.219 426.62 277.099 426.71 276.809C426.706 276.786 426.706 276.762 426.71 276.739C426.6 273.169 429.26 268.119 433.09 267.669Z" fill="#263238"/>
<path d="M406.12 297.939L408.9 311.219L428.01 294.149L432.77 299.509C432.77 299.509 414.13 326.509 414.01 325.299L408.35 313.869L400.5 321.949L403.65 301.869L406.12 297.939Z" fill="white"/>
<path d="M403.52 302.059C403.52 301.939 403.75 301.879 403.75 302.059C403.57 306.159 400.96 317.919 401.01 320.959C401.34 320.609 408.28 313.839 408.36 313.959C409.57 315.769 413.7 324.089 413.98 324.849C416.62 320.959 428.88 304.969 431.87 300.909C431.885 300.882 431.909 300.863 431.938 300.854C431.967 300.846 431.999 300.849 432.025 300.864C432.052 300.879 432.071 300.903 432.08 300.932C432.088 300.961 432.085 300.992 432.07 301.019C429.85 305.539 414.36 326.539 414.16 326.479C412.01 322.528 410.07 318.465 408.35 314.309C407.18 315.779 400.18 323.409 400.15 322.919C399.9 319.599 402.4 306.169 403.52 302.059Z" fill="#263238"/>
<path d="M161.663 385.176C174.386 372.453 174.386 351.824 161.663 339.101C148.939 326.378 128.311 326.378 115.588 339.101C102.864 351.824 102.864 372.453 115.588 385.176C128.311 397.899 148.939 397.899 161.663 385.176Z" fill="#A6A6A6"/>
<path d="M147.96 383.73L145.07 396.73L125.37 383.21L120.48 390.43C120.48 390.43 133.37 407.87 147.1 407.87C154.31 407.87 155.72 391.34 155.72 391.34L147.96 383.73Z" fill="#FFC727"/>
<path d="M144.66 398.58C139.36 400.23 129.54 392.64 125.43 386.22C125.15 385.78 125.52 380.91 125.69 374.97C125.77 371.37 125.79 367.36 125.53 363.7C125.48 362.94 128.13 364.15 128.13 364.15L132.95 364.96L148.89 367.69C147.9 372.362 147.483 377.137 147.65 381.91C147.688 382.414 147.775 382.913 147.91 383.4C147.91 383.47 147.91 383.55 147.91 383.64C148.62 386.47 149.82 397 144.66 398.58Z" fill="#EB9481"/>
<path d="M147.91 383.48C147.91 383.55 147.91 383.64 147.91 383.73C147.136 383.89 146.35 383.987 145.56 384.02C130.06 384.75 126.77 365.21 126.77 365.21L132.9 365.05L148.84 367.77C148.84 367.77 147.12 375.61 147.6 381.99C147.652 382.496 147.756 382.995 147.91 383.48Z" fill="#263238"/>
<path d="M123.54 334.53C120.71 342.58 124.01 366.33 129.59 371.84C137.68 379.84 151.42 381.13 158.33 371.29C165.02 361.75 160.16 330.87 153.88 325.82C144.63 318.38 127.73 322.63 123.54 334.53Z" fill="#EB9481"/>
<path d="M146.4 351C146.4 350.94 146.29 351.09 146.3 351.15C146.56 352.75 146.6 354.62 145.22 355.34C145.22 355.34 145.22 355.45 145.22 355.43C146.98 354.94 146.91 352.45 146.4 351Z" fill="#263238"/>
<path d="M144.75 349.51C142.15 349.66 142.64 354.85 145.05 354.71C147.46 354.57 146.93 349.38 144.75 349.51Z" fill="#263238"/>
<path d="M155.73 350.37C155.73 350.3 155.87 350.43 155.87 350.5C155.97 352.11 156.36 353.94 157.87 354.34V354.43C156.06 354.35 155.57 351.91 155.73 350.37Z" fill="#263238"/>
<path d="M157.01 348.55C159.58 348.11 160.27 353.28 157.89 353.69C155.51 354.1 154.82 348.92 157.01 348.55Z" fill="#263238"/>
<path d="M142.47 347.33C143.16 347.08 143.76 346.74 144.42 346.43C145.147 346.207 145.78 345.75 146.22 345.13C146.322 344.909 146.348 344.661 146.293 344.424C146.239 344.187 146.108 343.975 145.92 343.82C145.5 343.574 145.022 343.444 144.535 343.444C144.048 343.444 143.57 343.574 143.15 343.82C142.218 344.18 141.455 344.876 141.01 345.77C140.927 345.978 140.905 346.206 140.946 346.426C140.988 346.646 141.091 346.85 141.244 347.014C141.397 347.178 141.594 347.294 141.811 347.35C142.028 347.406 142.257 347.399 142.47 347.33Z" fill="#263238"/>
<path d="M158.82 345.75C158.111 345.672 157.407 345.559 156.71 345.41C155.949 345.393 155.214 345.126 154.62 344.65C154.461 344.464 154.368 344.231 154.356 343.987C154.343 343.743 154.411 343.501 154.55 343.3C154.887 342.947 155.312 342.69 155.782 342.557C156.251 342.423 156.748 342.417 157.22 342.54C158.212 342.628 159.134 343.089 159.8 343.83C159.943 344.007 160.032 344.222 160.056 344.449C160.079 344.676 160.037 344.905 159.933 345.108C159.829 345.311 159.669 345.48 159.472 345.594C159.274 345.708 159.048 345.762 158.82 345.75Z" fill="#263238"/>
<path d="M146.33 366.05C146.75 366.39 147.18 366.87 147.77 366.87C148.367 366.8 148.943 366.606 149.46 366.3C149.465 366.295 149.47 366.29 149.476 366.287C149.483 366.284 149.489 366.282 149.496 366.282C149.503 366.281 149.51 366.282 149.517 366.285C149.524 366.287 149.53 366.29 149.535 366.295C149.54 366.3 149.545 366.305 149.548 366.311C149.551 366.318 149.553 366.324 149.553 366.331C149.553 366.338 149.553 366.345 149.55 366.352C149.548 366.359 149.545 366.365 149.54 366.37C149.338 366.715 149.044 366.998 148.691 367.187C148.338 367.376 147.94 367.463 147.54 367.44C147.204 367.386 146.892 367.234 146.643 367.002C146.394 366.771 146.219 366.471 146.14 366.14C146.15 366.05 146.27 366 146.33 366.05Z" fill="#263238"/>
<path d="M147.31 361.77C148.95 363.1 154.43 363.1 154.45 362.92L154 359.07C154.48 359.26 156.88 360.07 156.78 359.43C155.96 354.11 155.04 348.19 153.09 343.06C153.078 343.025 153.053 342.996 153.02 342.978C152.987 342.961 152.95 342.956 152.914 342.965C152.877 342.973 152.846 342.995 152.825 343.026C152.804 343.056 152.795 343.093 152.8 343.13C153.39 348.28 154.88 353.29 155.56 358.45C154.703 358.147 153.807 357.965 152.9 357.91C152.73 357.98 153.54 361.52 153.54 362.08C151.542 362.169 149.544 361.902 147.64 361.29C147.01 361.09 146.87 361.42 147.31 361.77Z" fill="#263238"/>
<path d="M126.43 353.71C128.43 353.2 130.37 346.55 130.43 340.09C130.43 335.94 132.13 330.7 136.76 329.14C139.84 328.14 145.2 330.64 148.26 329.89C151.32 329.14 151.89 327.39 153.71 327.44C155.53 327.49 157.53 331.94 157.53 331.94C157.53 331.94 154.3 317.88 136.22 322.4C117.22 327.17 121 343.48 122.83 348.71C124.25 352.75 126.43 353.71 126.43 353.71Z" fill="#263238"/>
<path d="M127.82 354C127.82 354 122.65 346.26 119.15 348.08C115.65 349.9 119.41 361.08 123.44 362.65C123.941 362.892 124.487 363.03 125.043 363.056C125.6 363.081 126.155 362.994 126.677 362.798C127.198 362.603 127.675 362.304 128.078 361.919C128.48 361.534 128.801 361.072 129.02 360.56L127.82 354Z" fill="#EB9481"/>
<path d="M120.26 351.28C120.249 351.285 120.24 351.292 120.234 351.302C120.227 351.312 120.224 351.323 120.224 351.335C120.224 351.347 120.227 351.358 120.234 351.368C120.24 351.378 120.249 351.385 120.26 351.39C123.09 352.61 124.53 355.29 125.52 358.05C124.69 356.98 123.52 356.37 122.12 357.35C122.04 357.35 122.12 357.52 122.19 357.5C122.695 357.354 123.232 357.367 123.73 357.537C124.227 357.706 124.66 358.025 124.97 358.45C125.475 359.169 125.907 359.936 126.26 360.74C126.38 361 126.85 360.88 126.76 360.58C126.754 360.557 126.754 360.533 126.76 360.51C126.82 356.88 124.15 351.74 120.26 351.28Z" fill="#263238"/>
<path d="M148.89 203.849C167.607 203.849 182.78 188.676 182.78 169.959C182.78 151.242 167.607 136.069 148.89 136.069C130.173 136.069 115 151.242 115 169.959C115 188.676 130.173 203.849 148.89 203.849Z" fill="#A6A6A6"/>
<path d="M184.37 195.809H181.48C181.18 192.119 178.84 186.479 179.48 189.319C179.853 191.461 179.977 193.639 179.85 195.809H130.89C130.32 190.259 132.8 181.129 132.8 181.129C129.97 185.719 128.88 192.229 128.47 195.809H123.85C123.37 192.489 124.55 186.809 124.55 186.809C123.28 189.039 122.55 193.229 122.18 195.809H116.92C116.72 190.259 118.61 182.959 123.04 176.339C126.59 171.029 122.19 167.939 122.28 157.599C122.37 143.839 131.81 138.599 133.38 137.119C154.73 117.339 174.11 135.699 176.19 148.769C178.19 161.549 174.52 163.239 180.46 174.849C184.95 183.519 184.37 195.809 184.37 195.809Z" fill="#263238"/>
<path d="M126.82 202.939C126.82 202.939 126.92 202.999 126.96 203.039C134.06 207.879 148.08 216.389 155.58 213.689C161.35 211.609 164.73 205.689 165.12 203.779C162.12 201.079 157.77 198.619 155.85 197.339C144.78 189.979 134.81 194.389 126.82 202.939Z" fill="#455A64"/>
<path d="M137.51 198.749C138.01 200.389 146.68 210.659 154.26 209.799C156.73 209.509 155.77 195.959 155.77 195.959L155.93 194.959L158.13 180.729L140.96 171.259L138.48 170.019C138.48 170.019 138.14 173.949 137.76 178.849L137.7 179.549C137.7 179.829 137.64 180.089 137.63 180.349C137.56 181.079 137.5 181.829 137.45 182.569C137.45 183.139 137.37 183.689 137.35 184.289C137.33 184.889 137.29 185.469 137.26 186.069C137.055 190.297 137.139 194.533 137.51 198.749Z" fill="#AD6359"/>
<path d="M137.76 178.809C139.439 182.651 141.934 186.083 145.072 188.864C148.209 191.646 151.914 193.712 155.93 194.919L158.13 180.689L140.96 171.219L138.48 169.979C138.48 169.979 138.12 173.939 137.76 178.809Z" fill="#263238"/>
<path d="M175.72 157.029C179.72 182.029 165.19 187.179 159.8 188.029C154.92 188.799 138.18 190.809 131.66 166.389C125.14 141.969 135.49 132.249 146.57 129.889C157.65 127.529 171.76 132.079 175.72 157.029Z" fill="#AD6359"/>
<path d="M133.7 168.149C139.95 167.399 140.18 147.979 140.18 145.589C140.25 147.099 140.69 155.049 141.33 155.319C141.998 155.244 142.65 155.062 143.26 154.779C143.19 153.827 143.19 152.871 143.26 151.919C143.26 151.479 143.51 152.859 143.89 154.559C144.24 154.429 144.61 154.279 145.02 154.139C144.782 152.114 144.815 150.066 145.12 148.049C145.24 147.289 145.72 150.649 146.68 153.529C151.902 151.525 157.328 150.1 162.86 149.279C164.41 149.089 165.77 148.999 166.97 148.959C166.78 146.609 166.3 144.139 166.52 144.659C167.104 146.036 167.553 147.466 167.86 148.929C168.51 148.929 169.11 148.929 169.65 148.929C169.54 145.609 167.53 140.459 168.12 141.219C169.898 143.578 171.214 146.252 172 149.099C174.29 149.349 175 149.739 175 149.149C175 148.089 173 138.929 165.19 132.739C156.74 126.019 140.95 125.459 133.08 137.559C133.08 137.559 126.22 142.899 125.71 150.629C125.2 158.359 130.12 168.569 133.7 168.149Z" fill="#263238"/>
<path d="M165.3 171.569C164.767 172.654 163.965 173.583 162.97 174.269C162.412 174.623 161.76 174.798 161.1 174.769C159.66 174.679 159.37 173.439 159.41 172.309C159.436 171.714 159.53 171.123 159.69 170.549C161.402 171.481 163.369 171.839 165.3 171.569Z" fill="white"/>
<path d="M170.51 153.969C169.92 153.969 169.37 153.829 168.78 153.759C168.162 153.769 167.558 153.575 167.06 153.209C166.924 153.063 166.84 152.875 166.821 152.676C166.803 152.477 166.852 152.278 166.96 152.109C167.221 151.811 167.558 151.589 167.934 151.464C168.31 151.339 168.712 151.317 169.1 151.399C169.917 151.451 170.684 151.808 171.25 152.399C171.351 152.543 171.412 152.712 171.427 152.887C171.442 153.063 171.41 153.239 171.335 153.399C171.26 153.558 171.144 153.695 170.999 153.795C170.854 153.895 170.686 153.955 170.51 153.969Z" fill="#263238"/>
<path d="M154.31 156.029C154.89 155.909 155.41 155.699 155.97 155.529C156.584 155.427 157.149 155.129 157.58 154.679C157.685 154.512 157.733 154.314 157.715 154.117C157.697 153.92 157.614 153.735 157.48 153.589C157.171 153.341 156.802 153.18 156.41 153.122C156.018 153.064 155.618 153.111 155.25 153.259C154.456 153.448 153.761 153.925 153.3 154.599C153.222 154.76 153.189 154.939 153.203 155.117C153.218 155.295 153.28 155.466 153.383 155.612C153.486 155.758 153.627 155.874 153.79 155.947C153.953 156.02 154.132 156.049 154.31 156.029Z" fill="#263238"/>
<path d="M158.22 162.089C158.22 162.029 158.09 162.189 158.1 162.259C158.35 163.959 158.34 165.949 156.86 166.689C156.81 166.689 156.86 166.799 156.86 166.789C158.74 166.309 158.72 163.659 158.22 162.089Z" fill="#263238"/>
<path d="M156.49 160.469C153.72 160.569 154.12 166.109 156.69 166.019C159.26 165.929 158.82 160.389 156.49 160.469Z" fill="#263238"/>
<path d="M155.42 160.809C154.96 161.149 154.53 161.739 153.95 161.809C153.37 161.879 152.73 161.379 152.25 160.859C152.25 160.799 152.15 160.859 152.16 160.929C152.22 161.989 152.7 163.049 153.85 163.129C155 163.209 155.58 162.199 155.77 161.129C155.8 160.979 155.61 160.709 155.42 160.809Z" fill="#263238"/>
<path d="M167.75 160.529C167.75 160.469 167.89 160.609 167.89 160.679C167.89 162.399 168.3 164.359 169.89 164.829C169.89 164.829 169.89 164.929 169.89 164.919C167.97 164.809 167.52 162.169 167.75 160.529Z" fill="#263238"/>
<path d="M169.12 158.639C171.87 158.249 172.45 163.779 169.9 164.139C167.35 164.499 166.86 158.969 169.12 158.639Z" fill="#263238"/>
<path d="M170.35 158.879C170.82 159.129 171.35 159.619 171.83 159.599C172.31 159.579 172.83 158.929 173.15 158.319C173.15 158.259 173.24 158.319 173.25 158.369C173.38 159.419 173.15 160.559 172.16 160.869C171.17 161.179 170.48 160.309 170.16 159.289C170.05 159.099 170.17 158.809 170.35 158.879Z" fill="#263238"/>
<path d="M158.85 175.189C159.27 175.589 159.69 176.129 160.32 176.189C160.961 176.155 161.587 175.988 162.16 175.699C162.172 175.695 162.185 175.694 162.197 175.698C162.209 175.702 162.22 175.709 162.228 175.719C162.235 175.729 162.24 175.741 162.24 175.754C162.241 175.766 162.237 175.779 162.23 175.789C161.997 176.136 161.674 176.413 161.295 176.589C160.916 176.765 160.496 176.835 160.08 176.789C159.726 176.709 159.404 176.525 159.155 176.262C158.906 175.998 158.74 175.667 158.68 175.309C158.65 175.179 158.78 175.139 158.85 175.189Z" fill="#263238"/>
<path d="M165.49 168.399C165.49 168.399 166.06 170.929 166.16 172.129C166.16 172.249 165.89 172.329 165.48 172.379C165.48 172.379 165.48 172.379 165.43 172.379C164.408 172.655 163.33 172.645 162.314 172.348C161.298 172.052 160.383 171.481 159.67 170.699C159.58 170.589 159.67 170.449 159.84 170.519C161.468 171.445 163.352 171.817 165.21 171.579C165.27 171.239 164.09 167.279 164.28 167.249C165.226 167.256 166.168 167.387 167.08 167.639C166.08 162.329 164.17 157.239 163.22 151.939C163.217 151.902 163.226 151.864 163.247 151.833C163.267 151.801 163.297 151.777 163.333 151.764C163.368 151.752 163.407 151.751 163.442 151.763C163.478 151.775 163.509 151.798 163.53 151.829C165.87 157.039 167.19 163.119 168.4 168.569C168.56 169.259 165.99 168.559 165.49 168.399Z" fill="#263238"/>
<path d="M155.34 170.669C153.931 170.66 152.552 170.255 151.362 169.501C150.171 168.746 149.216 167.673 148.605 166.403C147.994 165.133 147.752 163.717 147.906 162.316C148.06 160.915 148.604 159.586 149.476 158.479C150.349 157.372 151.514 156.532 152.84 156.054C154.166 155.577 155.6 155.481 156.978 155.778C158.355 156.075 159.622 156.753 160.634 157.734C161.645 158.716 162.361 159.961 162.7 161.329C163.178 163.268 162.867 165.317 161.836 167.026C160.805 168.736 159.137 169.967 157.2 170.449C156.591 170.596 155.967 170.67 155.34 170.669ZM155.43 156.619C154.887 156.614 154.346 156.678 153.82 156.809C152.207 157.207 150.806 158.205 149.903 159.6C149 160.995 148.663 162.681 148.96 164.316C149.257 165.951 150.166 167.411 151.501 168.399C152.837 169.387 154.5 169.829 156.15 169.634C157.8 169.439 159.314 168.623 160.383 167.351C161.452 166.079 161.996 164.447 161.904 162.788C161.813 161.129 161.092 159.568 159.889 158.421C158.686 157.275 157.092 156.631 155.43 156.619Z" fill="#FE0F56"/>
<path d="M172.5 168.669C169.62 168.669 167.03 165.669 166.6 161.779C166.357 159.919 166.707 158.029 167.6 156.379C167.939 155.644 168.462 155.008 169.119 154.535C169.776 154.061 170.544 153.765 171.349 153.675C172.154 153.586 172.968 153.706 173.713 154.024C174.458 154.341 175.108 154.846 175.6 155.489C176.831 156.909 177.586 158.678 177.76 160.549C178.21 164.669 176.09 168.309 173.02 168.649C172.848 168.672 172.674 168.679 172.5 168.669ZM171.83 154.669C171.704 154.659 171.576 154.659 171.45 154.669C170.81 154.764 170.203 155.013 169.68 155.395C169.158 155.776 168.736 156.279 168.45 156.859C167.666 158.326 167.358 160 167.57 161.649C167.97 165.229 170.34 167.909 172.86 167.649C175.38 167.389 177.11 164.229 176.72 160.649C176.563 158.991 175.895 157.422 174.81 156.159C174.444 155.718 173.99 155.358 173.477 155.101C172.964 154.845 172.403 154.698 171.83 154.669Z" fill="#FE0F56"/>
<path d="M162.54 162.219L161.81 161.529C162.81 160.449 165.33 158.879 167.37 160.629L166.71 161.389C164.89 159.809 162.64 162.129 162.54 162.219Z" fill="#FE0F56"/>
<path d="M129.42 167.809L128.48 167.449C128.65 167.019 130.19 163.159 132.38 162.549C134.57 161.939 147.98 161.749 148.56 161.739V162.739C144.68 162.799 134.23 163.069 132.64 163.509C131.05 163.949 129.83 166.809 129.42 167.809Z" fill="#FE0F56"/>
<path d="M135.93 167.679C135.93 167.679 129.87 160.199 126.44 162.419C123.01 164.639 127.96 175.749 132.26 177.009C132.801 177.208 133.376 177.296 133.952 177.267C134.528 177.238 135.092 177.093 135.61 176.841C136.128 176.589 136.59 176.235 136.968 175.8C137.346 175.364 137.633 174.858 137.81 174.309L135.93 167.679Z" fill="#AD6359"/>
<path d="M127.94 165.569C127.929 165.574 127.92 165.581 127.914 165.591C127.907 165.601 127.904 165.612 127.904 165.624C127.904 165.636 127.907 165.647 127.914 165.657C127.92 165.667 127.929 165.674 127.94 165.679C130.94 166.679 132.71 169.279 133.94 172.029C132.99 171.029 131.76 170.489 130.37 171.629C130.3 171.699 130.37 171.809 130.47 171.789C130.981 171.575 131.546 171.529 132.085 171.656C132.625 171.784 133.109 172.079 133.47 172.499C134.064 173.183 134.58 173.931 135.01 174.729C135.17 174.979 135.63 174.809 135.51 174.519V174.449C135.27 170.699 131.99 165.659 127.94 165.569Z" fill="#263238"/>
<path d="M165.12 203.809C164.73 205.689 161.35 211.629 155.58 213.699C148.08 216.409 134.05 207.899 126.95 203.069L126.82 202.969C128.178 201.5 129.646 200.137 131.21 198.889C134.143 200.708 137.341 202.057 140.69 202.889C143.369 203.554 146.12 203.889 148.88 203.889C151.254 203.891 153.621 203.636 155.94 203.129C157.974 202.712 159.964 202.099 161.88 201.299C163.009 202.071 164.091 202.909 165.12 203.809Z" fill="#455A64"/>
<path d="M155.94 203.089C155.87 206.409 155.46 209.659 154.26 209.789C149.36 210.349 144.01 206.259 140.69 202.849C143.369 203.514 146.12 203.849 148.88 203.849C151.254 203.851 153.621 203.596 155.94 203.089Z" fill="#DD6A57"/>
<defs>
<linearGradient id="paint0_linear_1114_2215" x1="233.27" y1="363" x2="364.27" y2="297" gradientUnits="userSpaceOnUse">
<stop stop-color="#0057C9"/>
<stop offset="1" stop-color="#238FFF"/>
</linearGradient>
<linearGradient id="paint1_linear_1114_2215" x1="373.306" y1="314.24" x2="373.306" y2="297.147" gradientUnits="userSpaceOnUse">
<stop stop-color="#238FFF"/>
<stop offset="1" stop-color="#238FFF"/>
</linearGradient>
<linearGradient id="paint2_linear_1114_2215" x1="276.134" y1="239.23" x2="276.134" y2="190.322" gradientUnits="userSpaceOnUse">
<stop stop-color="#D906E3"/>
<stop offset="1" stop-color="#FF6DF9"/>
</linearGradient>
<linearGradient id="paint3_linear_1114_2215" x1="197.921" y1="207.43" x2="197.921" y2="190.327" gradientUnits="userSpaceOnUse">
<stop stop-color="#D906E3"/>
<stop offset="1" stop-color="#FF6DF9"/>
</linearGradient>
<linearGradient id="paint4_linear_1114_2215" x1="276.134" y1="283.4" x2="276.134" y2="247.134" gradientUnits="userSpaceOnUse">
<stop stop-color="#D906E3"/>
<stop offset="1" stop-color="#FF6DF9"/>
</linearGradient>
<linearGradient id="paint5_linear_1114_2215" x1="197.921" y1="264.23" x2="197.921" y2="247.137" gradientUnits="userSpaceOnUse">
<stop stop-color="#D906E3"/>
<stop offset="1" stop-color="#FF6DF9"/>
</linearGradient>
<linearGradient id="paint6_linear_1114_2215" x1="276.134" y1="399.82" x2="276.134" y2="366.364" gradientUnits="userSpaceOnUse">
<stop stop-color="#D906E3"/>
<stop offset="1" stop-color="#FF6DF9"/>
</linearGradient>
<linearGradient id="paint7_linear_1114_2215" x1="197.901" y1="383.46" x2="197.901" y2="366.367" gradientUnits="userSpaceOnUse">
<stop stop-color="#D906E3"/>
<stop offset="1" stop-color="#FF6DF9"/>
</linearGradient>
</defs>
</svg>
