<svg width="293" height="424" viewBox="0 0 293 424" fill="none" xmlns="http://www.w3.org/2000/svg">
<path d="M96.9655 368.23H31.6655V377.2H96.9655V368.23Z" fill="#263238"/>
<path d="M97.0754 377.32H31.5554V368.12H97.0754V377.32ZM31.7754 377.09H96.8554V368.34H31.7754V377.09Z" fill="#263238"/>
<path d="M37.7253 374.22L47.1153 420.59H81.8953L90.9853 377.2L37.7253 374.22Z" fill="#263238"/>
<path d="M37.7253 416.2L42.7353 423.09H85.0053L90.9853 416.2H37.7253Z" fill="#455A64"/>
<path d="M61.8655 375.57C61.7355 375.57 61.5755 354.09 61.4955 327.57C61.4155 301.05 61.4955 279.57 61.5955 279.57C61.6955 279.57 61.8855 301.05 61.9655 327.57C62.0455 354.09 61.9955 375.57 61.8655 375.57Z" fill="#263238"/>
<path d="M76.4155 321.81C76.372 321.982 76.3117 322.15 76.2355 322.31C76.0855 322.68 75.8855 323.14 75.6555 323.7C75.5255 324.01 75.3855 324.34 75.2255 324.7C75.0655 325.06 74.9455 325.49 74.7955 325.92L74.2855 327.32C74.1155 327.82 73.9755 328.32 73.8055 328.92C73.0296 331.546 72.4185 334.218 71.9755 336.92C71.4737 340.234 71.1399 343.572 70.9755 346.92C70.7394 353.012 70.9131 359.112 71.4955 365.18C71.7055 367.52 71.9155 369.4 72.0755 370.7C72.1355 371.31 72.1955 371.81 72.2355 372.2C72.249 372.376 72.249 372.554 72.2355 372.73C72.1725 372.563 72.1321 372.388 72.1155 372.21C72.0455 371.82 71.9655 371.33 71.8655 370.73C71.6555 369.43 71.3855 367.55 71.1355 365.22C70.4554 359.139 70.2382 353.014 70.4855 346.9C70.6338 343.534 70.9677 340.179 71.4855 336.85C71.948 334.142 72.5962 331.469 73.4255 328.85C73.6055 328.29 73.7555 327.75 73.9355 327.26L74.4755 325.86L74.9555 324.65C75.1155 324.28 75.2755 323.96 75.4155 323.65L76.0855 322.29C76.1693 322.114 76.2807 321.952 76.4155 321.81Z" fill="#263238"/>
<path d="M74.7454 304.44C74.6901 304.681 74.62 304.918 74.5354 305.15C74.3654 305.64 74.1354 306.31 73.8554 307.15L73.3554 308.59C73.1954 309.13 73.0154 309.71 72.8254 310.33C72.4454 311.57 72.0054 312.98 71.6154 314.57L70.9554 317.06C70.7554 317.93 70.5554 318.84 70.3454 319.77C69.8854 321.64 69.5554 323.67 69.1354 325.77C68.4154 330.03 67.7854 334.77 67.3454 339.72C66.9054 344.67 66.7554 349.46 66.6954 353.79C66.6354 358.12 66.6954 362.02 66.9154 365.29C66.9654 366.93 67.0754 368.4 67.1554 369.7C67.2354 371 67.3154 372.12 67.3954 373.03C67.4754 373.94 67.5154 374.61 67.5554 375.14C67.5688 375.383 67.5688 375.627 67.5554 375.87C67.4912 375.635 67.451 375.394 67.4354 375.15C67.3754 374.62 67.2954 373.93 67.1854 373.05C67.0754 372.17 66.9654 371.05 66.8654 369.72C66.7654 368.39 66.6354 366.95 66.5554 365.31C66.3354 362.03 66.2454 358.13 66.2354 353.79C66.2254 349.45 66.4354 344.68 66.8554 339.69C67.2754 334.7 67.9454 329.97 68.6854 325.69C69.1154 323.56 69.4654 321.53 69.9354 319.69C70.1554 318.75 70.3754 317.84 70.5754 316.97L71.2654 314.49C71.6754 312.9 72.1454 311.49 72.5554 310.25C72.7554 309.63 72.9454 309.06 73.1154 308.52C73.2854 307.98 73.4854 307.52 73.6554 307.09L74.4154 305.09C74.5006 304.862 74.6113 304.644 74.7454 304.44Z" fill="#263238"/>
<path d="M57.7354 379.37C57.725 379.287 57.725 379.203 57.7354 379.12C57.7354 378.93 57.7354 378.69 57.6754 378.38C57.6254 377.7 57.5654 376.75 57.4854 375.54C57.3254 373.03 57.1054 369.47 56.8254 365.07C56.2654 356.24 55.4454 344.07 53.9554 330.62C53.1954 323.9 52.3154 317.53 51.3954 311.75C50.9154 308.87 50.4754 306.13 49.9654 303.57C49.4554 301.01 48.9654 298.64 48.5654 296.47C48.1654 294.3 47.6554 292.36 47.2654 290.65C46.8754 288.94 46.5254 287.46 46.2654 286.26C46.0054 285.06 45.7554 284.16 45.5854 283.49C45.5254 283.2 45.4654 282.96 45.4254 282.77C45.41 282.687 45.41 282.603 45.4254 282.52C45.4666 282.595 45.4969 282.676 45.5154 282.76L45.7154 283.47C45.9054 284.13 46.1554 285.05 46.4854 286.22C46.8154 287.39 47.2054 288.87 47.6154 290.59C48.0254 292.31 48.5254 294.24 48.9754 296.41C49.4254 298.58 49.9754 300.94 50.4354 303.5C50.8954 306.06 51.4354 308.8 51.9154 311.69C52.8554 317.47 53.7454 323.85 54.5054 330.56C55.9954 344 56.7654 356.21 57.2454 365.05C57.4854 369.48 57.6554 373.05 57.7554 375.53C57.7554 376.74 57.8354 377.69 57.8554 378.38C57.8554 378.68 57.8554 378.93 57.8554 379.12C57.8281 379.209 57.7877 379.293 57.7354 379.37Z" fill="#263238"/>
<path d="M61.3355 289.96C61.0455 286.96 57.9755 284.62 54.9155 284.59C53.385 284.657 51.8899 285.072 50.5437 285.804C49.1974 286.535 48.0353 287.563 47.1455 288.81C45.3854 291.32 44.1132 294.139 43.3955 297.12C41.3355 304.29 40.2155 311.82 41.0955 319.23C41.9755 326.64 44.9755 333.93 50.2955 339.16C51.1555 340.02 52.2955 340.87 53.4655 340.61C54.0987 340.425 54.6737 340.081 55.1355 339.61C60.3425 334.843 64.4695 329.017 67.2394 322.523C70.0094 316.029 71.3583 309.018 71.1955 301.96C71.1155 299.15 70.7455 296.21 69.1955 293.87C67.6455 291.53 63.9955 289.03 61.3455 289.97" fill="url(#paint0_linear_1114_2218)"/>
<path d="M38.5055 265.56L34.2055 273.36C34.1055 273.54 33.9755 273.75 33.7655 273.76C33.5555 273.77 33.3655 273.57 33.2455 273.38L21.8655 255.96L24.4855 254.47L38.5055 265.56Z" fill="url(#paint1_linear_1114_2218)"/>
<g opacity="0.2">
<path opacity="0.2" d="M38.5055 265.56L34.2055 273.36C34.1055 273.54 33.9755 273.75 33.7655 273.76C33.5555 273.77 33.3655 273.57 33.2455 273.38L21.8655 255.96L24.4855 254.47L38.5055 265.56Z" fill="black"/>
</g>
<path d="M61.5954 279.61L22.7754 256.7C22.5545 256.615 22.3524 256.488 22.1808 256.325C22.0092 256.162 21.8715 255.966 21.7754 255.75C21.6254 255.18 22.0554 254.62 22.4654 254.19C25.1366 251.422 28.3723 249.261 31.9528 247.855C35.5332 246.449 39.3744 245.83 43.2154 246.04C47.0548 246.316 50.7692 247.523 54.0378 249.556C57.3063 251.59 60.0306 254.388 61.9754 257.71C65.7154 264.4 65.8454 273.26 61.5454 279.61" fill="url(#paint2_linear_1114_2218)"/>
<path d="M28.4155 249.39C28.5815 249.344 28.7535 249.324 28.9255 249.33C29.2555 249.33 29.7555 249.25 30.3955 249.26C32.1979 249.236 33.9987 249.376 35.7755 249.68C38.4226 250.134 41.0026 250.917 43.4555 252.01C47.6892 253.915 51.4491 256.733 54.4659 260.261C57.4827 263.79 59.6818 267.942 60.9055 272.42C61.4065 274.158 61.7413 275.939 61.9055 277.74C61.9855 278.37 61.9655 278.87 61.9855 279.21C62.0028 279.38 62.0028 279.551 61.9855 279.72C61.9855 279.72 61.8955 279.02 61.7355 277.72C61.5141 275.944 61.1496 274.188 60.6455 272.47C59.0176 266.77 55.8245 261.64 51.4285 257.663C47.0325 253.686 41.6097 251.021 35.7755 249.97C34.0173 249.636 32.2347 249.445 30.4455 249.4C29.0755 249.41 28.4155 249.43 28.4155 249.39Z" fill="#263238"/>
<path d="M56.3354 263.8C55.7097 264.181 55.0375 264.48 54.3354 264.69C53.0954 265.18 51.3354 265.8 49.4354 266.42C47.5354 267.04 45.7354 267.52 44.4354 267.84C43.7456 268.051 43.0346 268.185 42.3154 268.24C42.9551 267.931 43.6254 267.689 44.3154 267.52L49.2554 265.97L54.1854 264.38C54.8811 264.116 55.6013 263.922 56.3354 263.8Z" fill="#263238"/>
<path d="M50.2254 247.38C50.5729 248.796 50.7276 250.253 50.6854 251.71C50.7995 253.164 50.7188 254.627 50.4454 256.06C50.2579 254.621 50.1844 253.17 50.2254 251.72C50.1111 250.276 50.1111 248.825 50.2254 247.38Z" fill="#263238"/>
<path d="M22.4155 256.27C23.3238 255.853 24.2675 255.519 25.2355 255.27C26.9955 254.72 29.4555 254.03 32.2355 253.37C35.0155 252.71 37.4755 252.21 39.2355 251.89C40.222 251.67 41.2258 251.536 42.2355 251.49C41.2862 251.795 40.3173 252.036 39.3355 252.21C37.5355 252.61 35.0555 253.21 32.3355 253.83C29.6155 254.45 27.1455 255.12 25.3355 255.58C24.3785 255.874 23.4031 256.105 22.4155 256.27Z" fill="#263238"/>
<path d="M43.6955 282.74C40.3555 280.21 36.8255 279.74 32.6355 279.87C28.4448 280.137 24.341 281.185 20.5355 282.96C13.9855 285.82 7.83546 290.05 3.92546 296.03C0.0154634 302.01 -1.35454 309.93 1.57546 316.45C1.80601 317.132 2.27943 317.705 2.90546 318.06C3.63274 318.263 4.40817 318.203 5.09546 317.89C12.5455 315.46 20.0355 313.01 26.8855 309.21C33.7355 305.41 39.9655 300.12 43.6355 293.21C44.5753 291.597 45.1807 289.812 45.4155 287.96C45.5156 287.023 45.4149 286.076 45.12 285.181C44.8252 284.286 44.3429 283.464 43.7055 282.77" fill="url(#paint3_linear_1114_2218)"/>
<path d="M43.7555 281.96C43.5887 282.055 43.4106 282.129 43.2255 282.18L41.6655 282.72L40.5355 283.09C40.1255 283.24 39.6855 283.42 39.2155 283.61C38.2755 283.99 37.2155 284.37 36.0255 284.93L34.2055 285.76C33.5655 286.05 32.9355 286.41 32.2655 286.76C30.9155 287.42 29.5555 288.27 28.0955 289.13C21.8596 292.996 16.3104 297.873 11.6755 303.56C10.6755 304.89 9.62549 306.14 8.79549 307.4C8.36549 308.02 7.93549 308.6 7.55549 309.19L6.55549 310.89C5.85549 311.96 5.33549 313 4.83549 313.89C4.59549 314.33 4.35549 314.74 4.15549 315.13C3.95549 315.52 3.79549 315.87 3.64549 316.2L2.90549 317.68C2.83579 317.859 2.74155 318.027 2.62549 318.18C2.6742 317.994 2.7412 317.813 2.82549 317.64L3.47549 316.12C3.62549 315.79 3.78549 315.43 3.95549 315.03C4.12549 314.63 4.37549 314.22 4.60549 313.77C5.08549 312.86 5.60549 311.77 6.26549 310.72C6.60549 310.17 6.94549 309.59 7.26549 308.99C7.58549 308.39 8.06549 307.81 8.48549 307.18C9.30549 305.9 10.3155 304.64 11.3455 303.29C13.6761 300.425 16.2308 297.75 18.9855 295.29C21.7708 292.87 24.7472 290.68 27.8855 288.74C29.3555 287.88 30.7355 287.04 32.0955 286.39C32.7755 286.05 33.4155 285.7 34.0955 285.39L35.9455 284.59C37.1155 284.04 38.2155 283.68 39.1755 283.32C39.6555 283.15 40.0955 282.98 40.5155 282.84L41.6555 282.5L43.2455 282.05C43.413 282.008 43.5835 281.977 43.7555 281.96Z" fill="#263238"/>
<path d="M17.6754 296.08C15.0168 297.093 12.3063 297.964 9.55541 298.69C6.84593 299.571 4.08805 300.296 1.29541 300.86C3.95407 299.847 6.66454 298.976 9.41541 298.25C12.1265 297.375 14.8841 296.65 17.6754 296.08Z" fill="#263238"/>
<path d="M17.3355 313.96C17.1991 313.124 17.1389 312.277 17.1555 311.43C17.1555 309.87 17.1555 307.7 17.1555 305.32C17.1555 302.94 17.3555 300.77 17.4855 299.21C17.5059 298.361 17.6131 297.517 17.8055 296.69C17.8729 297.535 17.8729 298.385 17.8055 299.23C17.7455 300.94 17.6855 303.02 17.6155 305.33C17.5455 307.64 17.5055 309.72 17.4555 311.43C17.493 312.275 17.4528 313.122 17.3355 313.96Z" fill="#263238"/>
<path d="M32.6955 306.18C32.5655 306.18 32.1555 301.79 31.7855 296.36C31.4155 290.93 31.2055 286.52 31.3355 286.52C31.4655 286.52 31.8655 290.9 32.2455 296.33C32.6255 301.76 32.8255 306.17 32.6955 306.18Z" fill="#263238"/>
<path d="M13.5854 286.09C14.4476 285.981 15.3182 285.954 16.1854 286.01C17.7854 286.01 20.0055 286.07 22.4555 286.15C24.9055 286.23 27.1155 286.33 28.7155 286.42C29.5842 286.431 30.4506 286.515 31.3055 286.67C30.4433 286.779 29.5727 286.806 28.7055 286.75C27.1055 286.75 24.8854 286.7 22.4354 286.61C19.9854 286.52 17.7755 286.43 16.1655 286.34C15.2999 286.33 14.4368 286.247 13.5854 286.09Z" fill="#263238"/>
<path d="M51.9654 341.24C51.921 341.064 51.9008 340.882 51.9054 340.7C51.9054 340.31 51.9054 339.8 51.8354 339.18C51.7754 337.85 51.7654 335.94 51.8354 333.56C51.9054 331.18 52.0354 328.37 52.3154 325.25C52.5954 322.13 53.0554 318.7 53.6854 315.13C54.3154 311.56 55.0954 308.21 55.8854 305.13C56.6754 302.05 57.5354 299.4 58.3154 297.13C59.0954 294.86 59.7554 293.13 60.3154 291.87C60.5554 291.29 60.7455 290.87 60.9054 290.46C60.9668 290.293 61.0438 290.132 61.1354 289.98C61.1135 290.157 61.0629 290.329 60.9855 290.49L60.4154 291.96C59.9554 293.2 59.3254 294.96 58.5954 297.26C57.8654 299.56 57.0654 302.26 56.2754 305.26C55.4854 308.26 54.7454 311.64 54.1054 315.2C53.4654 318.76 53.0354 322.2 52.7154 325.27C52.3954 328.34 52.2154 331.19 52.1354 333.55C52.0554 335.91 52.0054 337.83 52.0054 339.16C52.0054 339.78 52.0054 340.28 52.0054 340.68C52.0052 340.867 51.9919 341.055 51.9654 341.24Z" fill="#263238"/>
<path d="M54.0054 314.75C53.5514 315.371 53.0317 315.941 52.4554 316.45C51.4554 317.45 50.0254 318.79 48.4054 320.22C46.7854 321.65 45.2554 322.88 44.1254 323.75C43.5473 324.253 42.9171 324.692 42.2454 325.06C42.7543 324.485 43.3168 323.959 43.9254 323.49L48.0954 319.87L52.2354 316.21C52.7776 315.668 53.3703 315.179 54.0054 314.75Z" fill="#263238"/>
<path d="M66.2954 324.64C65.6873 323.924 65.1356 323.162 64.6454 322.36L60.8154 316.76L56.8954 311.22C56.3141 310.481 55.7892 309.698 55.3254 308.88C56.0022 309.534 56.615 310.25 57.1554 311.02C58.2354 312.39 59.6754 314.31 61.1554 316.5C62.6354 318.69 63.9754 320.7 64.8854 322.18C65.4314 322.954 65.9034 323.778 66.2954 324.64Z" fill="#263238"/>
<path d="M59.8554 293.51C59.9254 293.62 55.8554 296.37 50.7454 299.65C45.6354 302.93 41.4454 305.51 41.3754 305.4C41.3054 305.29 45.3754 302.54 50.4954 299.26C55.6154 295.98 59.7954 293.41 59.8554 293.51Z" fill="#263238"/>
<path d="M71.4155 305.96C69.2605 304.166 67.2011 302.26 65.2455 300.25C63.1864 298.359 61.2334 296.356 59.3955 294.25C61.5582 296.039 63.6213 297.945 65.5755 299.96C67.6359 301.846 69.5858 303.849 71.4155 305.96Z" fill="#263238"/>
<path d="M74.2654 305.69L77.7654 305.4C80.2543 305.196 82.6697 304.456 84.8454 303.23C85.9102 302.609 87.0123 302.055 88.1454 301.57C92.4754 299.84 97.3154 300.15 101.975 299.91C109.611 299.525 117.091 297.615 123.975 294.29C124.389 294.108 124.737 293.804 124.975 293.42C125.695 292.11 124.355 290.94 123.205 290.23C117.295 286.59 111.285 282.91 104.595 281.1C97.9054 279.29 90.2954 279.6 84.5954 283.53C77.8954 288.15 75.4454 297.63 74.3154 305.69" fill="url(#paint4_linear_1114_2218)"/>
<path d="M125.005 292.96C124.804 292.877 124.607 292.784 124.415 292.68L122.755 291.81C121.315 291.05 119.245 289.93 116.615 288.68C113.569 287.176 110.393 285.95 107.125 285.02C103.13 283.871 98.9445 283.531 94.8155 284.02C90.6806 284.48 86.7754 286.157 83.5955 288.84C81.1116 291.148 79.1245 293.938 77.7555 297.04C76.5255 299.67 75.7555 301.91 75.2155 303.43L74.5855 305.2C74.5235 305.41 74.4432 305.614 74.3455 305.81C74.3742 305.592 74.4245 305.378 74.4955 305.17C74.6355 304.72 74.8155 304.12 75.0355 303.38C75.7028 301.195 76.4975 299.052 77.4155 296.96C78.763 293.786 80.759 290.928 83.2755 288.57C86.5001 285.792 90.4865 284.05 94.7155 283.57C98.9005 283.064 103.144 283.404 107.195 284.57C110.481 285.535 113.672 286.8 116.725 288.35C119.335 289.65 121.385 290.81 122.805 291.62L124.425 292.57C124.634 292.675 124.829 292.806 125.005 292.96Z" fill="#263238"/>
<path d="M116.595 297.51C116.525 297.61 111.935 294.65 106.355 290.89C100.775 287.13 96.3054 283.99 96.3554 283.89C96.4054 283.79 101.005 286.75 106.585 290.51C112.165 294.27 116.665 297.4 116.595 297.51Z" fill="#263238"/>
<path d="M112.196 283.44C109.86 284.174 107.396 284.403 104.966 284.11C106.154 283.863 107.362 283.722 108.576 283.69C109.773 283.502 110.984 283.419 112.196 283.44Z" fill="#263238"/>
<path d="M91.6453 279.76C90.7708 281.83 89.624 283.774 88.2354 285.54C88.5933 284.475 89.0982 283.465 89.7354 282.54C90.2369 281.528 90.88 280.591 91.6453 279.76Z" fill="#263238"/>
<path d="M95.7455 300.21C94.9722 299.888 94.2349 299.486 93.5455 299.01C92.2155 298.21 90.4255 297.01 88.5455 295.64C86.6655 294.27 84.9555 292.94 83.7355 291.98C83.0525 291.497 82.4164 290.952 81.8354 290.35C82.5785 290.737 83.2819 291.196 83.9355 291.72L88.8255 295.27C90.7255 296.65 92.4754 297.86 93.7554 298.74C94.4604 299.171 95.1262 299.663 95.7455 300.21Z" fill="#263238"/>
<path d="M79.4156 320.58C76.0756 319.69 72.0856 322.94 71.4156 326.33C70.7456 329.72 72.0056 333.18 73.4856 336.33C76.6704 343.324 81.3947 349.508 87.3056 354.42C93.2675 359.309 100.706 362.04 108.416 362.17C107.006 355.61 108.786 348.75 108.006 342.08C107.309 336.205 104.64 330.74 100.435 326.579C96.2297 322.418 90.7374 319.806 84.8556 319.17C82.7256 318.94 80.2556 318.61 79.4056 320.58" fill="url(#paint5_linear_1114_2218)"/>
<path d="M108.416 362.17C108.248 362.115 108.087 362.041 107.936 361.95C107.498 361.703 107.08 361.422 106.686 361.11C105.285 359.891 104.16 358.388 103.386 356.7C102.856 355.7 102.256 354.54 101.676 353.29C101.096 352.04 100.516 350.72 99.8756 349.29C99.2341 347.826 98.4958 346.406 97.6656 345.04C96.7751 343.584 95.7721 342.2 94.6656 340.9C92.3856 338.22 89.9256 335.9 87.7956 333.67C85.8698 331.729 84.1165 329.625 82.5556 327.38C81.5099 325.858 80.6504 324.217 79.9956 322.49C79.7856 321.88 79.6256 321.39 79.5456 321.06C79.4902 320.895 79.4566 320.724 79.4456 320.55C79.4456 320.55 79.6756 321.23 80.1656 322.43C80.8787 324.111 81.7705 325.71 82.8256 327.2C84.4164 329.396 86.1821 331.459 88.1056 333.37C90.2456 335.57 92.7156 337.89 95.0256 340.6C96.1576 341.917 97.1841 343.322 98.0956 344.8C98.9224 346.189 99.6605 347.628 100.306 349.11L102.066 353.11C102.626 354.35 103.206 355.49 103.726 356.52C104.455 358.192 105.517 359.699 106.846 360.95C107.806 361.81 108.466 362.13 108.416 362.17Z" fill="#263238"/>
<path d="M91.1455 356.72C91.1656 355.961 91.2695 355.206 91.4555 354.47C91.7155 353.09 92.1455 351.2 92.7255 349.14C93.3055 347.08 93.9255 345.25 94.4255 343.94C94.6444 343.213 94.9499 342.514 95.3355 341.86C95.2004 342.603 94.9996 343.333 94.7355 344.04C94.3155 345.38 93.7355 347.22 93.1755 349.27C92.6155 351.32 92.1755 353.18 91.7755 354.54C91.6377 355.286 91.4267 356.016 91.1455 356.72Z" fill="#263238"/>
<path d="M107.805 340.61C107.005 340.493 106.215 340.309 105.445 340.06C104.005 339.69 102.015 339.17 99.8054 338.67C97.5954 338.17 95.5754 337.79 94.1154 337.51C93.3148 337.407 92.525 337.233 91.7554 336.99C92.5636 336.97 93.3716 337.037 94.1654 337.19C95.6454 337.38 97.6854 337.72 99.9054 338.19C102.125 338.66 104.115 339.26 105.535 339.72C106.321 339.937 107.082 340.236 107.805 340.61Z" fill="#263238"/>
<path d="M78.7454 345.29C78.783 344.411 78.9036 343.537 79.1054 342.68C79.4054 341.09 79.8654 338.89 80.4954 336.5C81.1254 334.11 81.7854 331.96 82.3054 330.42C82.562 329.574 82.8968 328.754 83.3054 327.97C83.1601 328.836 82.9461 329.688 82.6654 330.52C82.2254 332.08 81.6054 334.23 80.9854 336.61C80.3654 338.99 79.8454 341.18 79.4754 342.75C79.3048 343.616 79.0606 344.466 78.7454 345.29Z" fill="#263238"/>
<path d="M100.135 326.57C100.135 326.69 95.9455 326.36 90.8155 325.81C85.6855 325.26 81.5255 324.72 81.5455 324.6C84.663 324.69 87.7738 324.94 90.8655 325.35C93.9742 325.599 97.0683 326.006 100.135 326.57Z" fill="#263238"/>
<path d="M97.0754 377.17C97.0754 377.3 82.4054 377.4 64.3154 377.4C46.2254 377.4 31.5554 377.3 31.5554 377.17C31.5554 377.04 46.2254 376.94 64.3154 376.94C82.4054 376.94 97.0754 377.04 97.0754 377.17Z" fill="#455A64"/>
<path d="M86.8754 396.04C86.8754 396.17 76.9853 396.28 64.7953 396.28C52.6053 396.28 42.7253 396.17 42.7253 396.04C42.7253 395.91 52.6053 395.81 64.7953 395.81C76.9853 395.81 86.8754 395.96 86.8754 396.04Z" fill="#455A64"/>
<path d="M87.2555 398.74C87.2555 398.87 77.3755 398.97 65.1855 398.97C52.9955 398.97 43.1155 398.87 43.1155 398.74C43.1155 398.61 52.9955 398.51 65.1855 398.51C77.3755 398.51 87.2555 398.61 87.2555 398.74Z" fill="#455A64"/>
<path d="M87.2555 393.82C87.2555 393.95 77.0355 394.05 64.4255 394.05C51.8155 394.05 41.5955 393.95 41.5955 393.82C41.5955 393.69 51.8155 393.59 64.4255 393.59C77.0355 393.59 87.2555 393.69 87.2555 393.82Z" fill="#455A64"/>
<path d="M284 0H59V139.076H248.417L260.138 166L270.541 139.076H284V0Z" fill="#FAFAFA"/>
<path d="M283.832 0.226609C283.832 1.57785 283.891 53.9405 284 139.547V139.715H270.42L270.579 139.606C267.335 148.057 263.831 157.164 260.21 166.572L260.051 167L259.866 166.58C256.195 158.137 252.23 148.997 248.13 139.614L248.306 139.732H77.2994H59V139.514C59 89.8702 59 42.7613 59 0.193037V0H59.2012L283.857 0.193037L59.2012 0.394463L59.4024 0.193037C59.4024 42.7362 59.4024 89.845 59.4024 139.514L59.1844 139.295H77.2743H248.281H248.407L248.457 139.413L260.193 166.387H259.849L270.261 139.446L270.303 139.329H283.832L283.665 139.497C283.832 53.907 283.832 1.57785 283.832 0.226609Z" fill="#263238"/>
<path d="M284 13.4638C284 13.7536 233.848 14 172.004 14C110.16 14 60 13.7536 60 13.4638C60 13.1739 110.143 13 172.004 13C233.865 13 284 13.1739 284 13.4638Z" fill="#263238"/>
<path d="M71 7.50001C71 7.79698 70.8824 8.08726 70.6623 8.33407C70.4421 8.58089 70.1292 8.77315 69.7632 8.88648C69.3973 8.9998 68.9947 9.02911 68.6065 8.97067C68.2182 8.91224 67.8619 8.7687 67.5826 8.55824C67.3032 8.34778 67.1135 8.07987 67.0373 7.78845C66.9612 7.49703 67.0021 7.19522 67.1549 6.92125C67.3076 6.64728 67.5654 6.41349 67.8955 6.24949C68.2256 6.08549 68.6131 5.99867 69.0091 6.00002C69.5379 6.00182 70.0443 6.16065 70.4174 6.44176C70.7905 6.72287 71 7.10337 71 7.50001Z" fill="#263238"/>
<path d="M78 7.50001C78 7.79698 77.8825 8.08726 77.6623 8.33407C77.4421 8.58089 77.1292 8.77315 76.7633 8.88648C76.3973 8.9998 75.9947 9.02911 75.6065 8.97067C75.2183 8.91224 74.8619 8.7687 74.5826 8.55824C74.3032 8.34778 74.1135 8.07987 74.0373 7.78845C73.9612 7.49703 74.0021 7.19522 74.1549 6.92125C74.3076 6.64728 74.5654 6.41349 74.8955 6.24949C75.2256 6.08549 75.6131 5.99867 76.0091 6.00002C76.5379 6.00182 77.0443 6.16065 77.4174 6.44176C77.7906 6.72287 78 7.10337 78 7.50001Z" fill="#263238"/>
<path d="M85 7.5C85 7.79667 84.8827 8.08668 84.6629 8.33335C84.4432 8.58003 84.1308 8.77228 83.7654 8.88582C83.3999 8.99935 82.9978 9.02906 82.6098 8.97118C82.2218 8.9133 81.8655 8.77044 81.5858 8.56066C81.3061 8.35088 81.1156 8.08361 81.0384 7.79263C80.9613 7.50166 81.0009 7.20006 81.1522 6.92597C81.3036 6.65188 81.5599 6.41762 81.8888 6.25279C82.2177 6.08797 82.6044 6 83 6C83.5304 6 84.0391 6.15803 84.4142 6.43934C84.7893 6.72064 85 7.10217 85 7.5Z" fill="#263238"/>
<path d="M84 38.3147L78.435 40.5L84 42.6764V44L77 41.184V39.8249L84 37V38.3147Z" fill="#263238"/>
<path d="M89.5362 33H91L85.445 47H84L89.5362 33Z" fill="#263238"/>
<path d="M98 39.8266V41.1911L91 44V42.6797L96.5825 40.5089L91 38.3203V37L98 39.8266Z" fill="#263238"/>
<path d="M100 44.9919C99.9979 44.8611 100.023 44.7311 100.073 44.6098C100.123 44.4885 100.197 44.3783 100.292 44.2857C100.386 44.1932 100.498 44.1202 100.622 44.0712C100.746 44.0221 100.879 43.9979 101.012 44.0001C101.144 43.999 101.275 44.024 101.397 44.0737C101.519 44.1235 101.63 44.1969 101.722 44.2896C101.814 44.3822 101.886 44.4922 101.934 44.6129C101.982 44.7336 102.004 44.8626 101.999 44.9919C102.004 45.1221 101.982 45.2518 101.934 45.3734C101.887 45.495 101.815 45.606 101.723 45.7C101.631 45.7939 101.52 45.8689 101.398 45.9204C101.276 45.9719 101.145 45.999 101.012 46C100.878 46 100.745 45.9738 100.621 45.923C100.497 45.8721 100.385 45.7976 100.291 45.7038C100.196 45.61 100.122 45.4987 100.072 45.3765C100.022 45.2543 99.9979 45.1235 100 44.9919Z" fill="#263238"/>
<path d="M103 44.992C102.997 44.8609 103.021 44.7304 103.071 44.6086C103.121 44.4867 103.195 44.3761 103.29 44.2833C103.385 44.1906 103.499 44.1176 103.624 44.069C103.748 44.0203 103.882 43.997 104.017 44.0003C104.148 44.0002 104.279 44.0261 104.401 44.0763C104.522 44.1265 104.632 44.2001 104.724 44.2926C104.815 44.3852 104.887 44.4948 104.934 44.6149C104.982 44.7351 105.004 44.8633 104.999 44.992C105.004 45.1215 104.982 45.2505 104.935 45.3715C104.887 45.4926 104.816 45.6032 104.725 45.6971C104.633 45.7909 104.523 45.866 104.402 45.918C104.28 45.97 104.149 45.9979 104.017 46C103.881 46.0011 103.747 45.9757 103.622 45.9252C103.497 45.8747 103.384 45.8003 103.289 45.7062C103.195 45.6122 103.12 45.5005 103.07 45.3778C103.021 45.2551 102.997 45.1239 103 44.992Z" fill="#263238"/>
<path d="M106 44.992C105.997 44.8609 106.021 44.7304 106.071 44.6086C106.121 44.4867 106.195 44.3761 106.29 44.2833C106.385 44.1906 106.499 44.1176 106.624 44.069C106.748 44.0203 106.882 43.997 107.017 44.0003C107.148 44.0002 107.279 44.0261 107.401 44.0763C107.522 44.1265 107.632 44.2001 107.724 44.2926C107.815 44.3852 107.887 44.4948 107.934 44.6149C107.982 44.7351 108.004 44.8633 107.999 44.992C108.004 45.1215 107.982 45.2505 107.935 45.3715C107.887 45.4926 107.816 45.6032 107.725 45.6971C107.633 45.7909 107.523 45.866 107.402 45.918C107.28 45.97 107.149 45.9979 107.017 46C106.881 46.0011 106.747 45.9757 106.622 45.9252C106.497 45.8747 106.384 45.8003 106.289 45.7062C106.195 45.6122 106.12 45.5005 106.071 45.3778C106.021 45.2551 105.997 45.1239 106 44.992Z" fill="#263238"/>
<path d="M226 58.5069C226 58.7808 192.647 59 151.504 59C110.362 59 77 58.7808 77 58.5069C77 58.2329 110.353 58 151.504 58C192.655 58 226 58.2192 226 58.5069Z" fill="#455A64"/>
<path d="M171 117.507C171 117.781 149.955 118 124.004 118C98.0533 118 77 117.781 77 117.507C77 117.233 98.0449 117 124.004 117C149.963 117 171 117.233 171 117.507Z" fill="#455A64"/>
<path d="M206 117.507C206 117.781 200.18 118 193 118C185.82 118 180 117.781 180 117.507C180 117.233 185.82 117 193 117C200.18 117 206 117.233 206 117.507Z" fill="#263238"/>
<path d="M84 77.4931C84 77.7671 82.4321 78 80.4954 78C78.5586 78 77 77.7671 77 77.4931C77 77.2192 78.5679 77 80.4954 77C82.4229 77 84 77.2192 84 77.4931Z" fill="#7F58FF"/>
<path d="M106 77.5068C106 77.7808 102.865 78 99 78C95.1347 78 92 77.7808 92 77.5068C92 77.2329 95.1347 77 99 77C102.865 77 106 77.2329 106 77.5068Z" fill="#263238"/>
<path d="M120 77.5068C120 77.7808 117.314 78 114 78C110.686 78 108 77.7808 108 77.5068C108 77.2329 110.686 77 114 77C117.314 77 120 77.2329 120 77.5068Z" fill="#263238"/>
<path d="M137 77.5068C137 77.7808 134.315 78 131.004 78C127.694 78 125 77.7808 125 77.5068C125 77.2329 127.685 77 131.004 77C134.323 77 137 77.2329 137 77.5068Z" fill="#263238"/>
<path d="M153 77.5068C153 77.7808 150.536 78 147.5 78C144.464 78 142 77.7808 142 77.5068C142 77.2329 144.464 77 147.5 77C150.536 77 153 77.2329 153 77.5068Z" fill="#263238"/>
<path d="M205 77.5068C205 77.7808 194.034 78 180.504 78C166.975 78 156 77.7808 156 77.5068C156 77.2329 166.966 77 180.504 77C194.042 77 205 77.2329 205 77.5068Z" fill="#263238"/>
<path d="M83 85.5C83 85.7703 81.6606 86 80 86C78.3395 86 77 85.7703 77 85.5C77 85.2297 78.3395 85 80 85C81.6606 85 83 85.2297 83 85.5Z" fill="#7F58FF"/>
<path d="M83 103.507C83 103.781 81.6588 104 80 104C78.3412 104 77 103.781 77 103.507C77 103.233 78.3412 103 80 103C81.6588 103 83 103.219 83 103.507Z" fill="#7F58FF"/>
<path d="M221.594 323.91L241.734 304L205.814 242.49C202.076 238.212 197.344 234.919 192.034 232.9L179.384 228.09L147.934 222.32L125.614 231.15C122.868 232.23 120.557 234.19 119.043 236.723C117.528 239.256 116.896 242.219 117.244 245.15L123.084 294.31L126.524 358.31L207.654 344.23L199.494 320.56L199.764 283.64L221.594 323.91Z" fill="url(#paint6_linear_1114_2218)"/>
<path d="M200.234 318.97C200.424 318.97 200.474 306.18 200.344 290.41C200.214 274.64 199.964 261.85 199.774 261.85C199.584 261.85 199.534 274.64 199.664 290.41C199.794 306.18 200.044 318.97 200.234 318.97Z" fill="#263238"/>
<path d="M197.264 328.35L148.264 308.62C146.325 307.839 144.643 306.532 143.406 304.847C142.169 303.161 141.428 301.164 141.264 299.08L137.684 252.08C137.684 252.08 138.104 232.08 125.624 231.08L118.514 233.87C109.324 238.79 107.054 252.15 108.324 262.47C110.094 277.13 110.834 297.88 112.824 310.61C114.454 321.02 120.704 329.25 130.604 332.86L190.984 345.93L197.264 328.35Z" fill="url(#paint7_linear_1114_2218)"/>
<path d="M138.374 259.25C138.449 259.603 138.499 259.96 138.524 260.32C138.604 261.09 138.714 262.12 138.844 263.42C139.094 266.17 139.444 270.05 139.844 274.82C140.244 279.59 140.744 285.38 141.294 291.73C141.424 293.32 141.564 294.95 141.704 296.62C141.802 298.299 142.013 299.969 142.334 301.62C142.673 303.301 143.522 304.838 144.764 306.02C146.112 307.197 147.642 308.146 149.294 308.83C162.804 314.68 175.294 319.51 184.294 322.9L195.034 326.9L197.954 327.97C198.3 328.078 198.635 328.219 198.954 328.39C198.615 328.317 198.281 328.22 197.954 328.1L194.954 327.1C192.384 326.25 188.684 324.97 184.134 323.34C175.044 320.05 162.564 315.34 149.004 309.43C147.288 308.712 145.701 307.719 144.304 306.49C142.966 305.221 142.055 303.569 141.694 301.76C141.37 300.07 141.162 298.359 141.074 296.64C140.934 294.973 140.804 293.343 140.684 291.75C140.184 285.39 139.744 279.66 139.364 274.82C138.984 269.98 138.744 266.17 138.534 263.41C138.454 262.11 138.394 261.07 138.344 260.3C138.331 259.95 138.341 259.599 138.374 259.25Z" fill="#263238"/>
<path d="M110.324 284.8C110.394 285.003 110.428 285.216 110.424 285.43C110.424 285.92 110.524 286.52 110.584 287.24C110.734 288.92 110.934 291.17 111.164 293.91C111.394 296.65 111.774 300.07 112.264 303.77C112.748 307.784 113.49 311.762 114.484 315.68C114.941 317.696 115.75 319.615 116.874 321.35C117.957 322.956 119.182 324.462 120.534 325.85C122.825 328.214 125.474 330.202 128.384 331.74C131.092 333.117 133.997 334.068 136.994 334.56C136.782 334.584 136.567 334.584 136.354 334.56C135.743 334.526 135.135 334.449 134.534 334.33C132.306 333.909 130.148 333.175 128.124 332.15C125.137 330.643 122.415 328.66 120.064 326.28C118.672 324.877 117.413 323.347 116.304 321.71C115.132 319.919 114.286 317.935 113.804 315.85C112.807 311.904 112.078 307.895 111.624 303.85C111.174 300.13 110.874 296.77 110.624 293.95C110.374 291.13 110.314 288.84 110.254 287.26C110.254 286.53 110.254 285.93 110.254 285.43C110.252 285.218 110.275 285.006 110.324 284.8Z" fill="#263238"/>
<path d="M131.254 317.69C131.377 316.767 131.679 315.877 132.144 315.07C133.15 313.063 134.548 311.277 136.255 309.819C137.963 308.361 139.945 307.26 142.084 306.58C142.952 306.248 143.876 306.089 144.804 306.11C144.804 306.22 143.804 306.42 142.244 307.02C140.221 307.804 138.342 308.92 136.684 310.32C135.035 311.742 133.639 313.432 132.554 315.32C131.714 316.74 131.324 317.72 131.254 317.69Z" fill="#263238"/>
<g opacity="0.3">
<path opacity="0.3" d="M183.174 322.75C177.934 319.75 172.804 317.51 167.324 315.02C161.844 312.53 156.474 309.33 152.894 304.5C146.124 295.38 146.894 282.22 139.974 273.22L141.324 291.37C141.744 296.92 140.894 302.37 144.464 306.17C147.464 309.34 153.344 311.78 157.464 313.17C165.814 315.92 174.804 320.01 183.144 322.77" fill="black"/>
</g>
<path opacity="0.3" d="M199.774 265.31L204.014 291.46L200.004 284.05L199.774 265.31Z" fill="black"/>
<path d="M136.894 249.15C136.523 249.23 136.143 249.261 135.764 249.24L132.664 249.32C130.054 249.39 126.454 249.52 122.484 249.8C118.514 250.08 114.934 250.47 112.334 250.8L109.264 251.16C108.891 251.225 108.513 251.252 108.134 251.24C108.486 251.095 108.856 251.001 109.234 250.96C109.954 250.81 110.994 250.63 112.234 250.43C114.824 250.03 118.414 249.59 122.394 249.3C126.374 249.01 129.994 248.94 132.614 248.97C133.924 248.97 134.984 249.02 135.714 249.06C136.11 249.047 136.505 249.077 136.894 249.15Z" fill="#455A64"/>
<path d="M138.324 274.21C138.324 274.35 131.904 275 123.974 275.65C116.044 276.3 109.584 276.73 109.574 276.58C109.564 276.43 115.984 275.79 123.924 275.13C131.864 274.47 138.324 274.06 138.324 274.21Z" fill="#455A64"/>
<path d="M140.654 300.52C140.343 300.749 140.008 300.943 139.654 301.1C138.984 301.45 138.004 301.91 136.754 302.43C130.266 305.143 123.35 306.694 116.324 307.01C114.974 307.07 113.884 307.07 113.134 307.01C112.745 307.032 112.355 307.001 111.974 306.92C112.356 306.844 112.745 306.807 113.134 306.81C113.884 306.81 114.964 306.72 116.304 306.61C119.768 306.366 123.21 305.879 126.604 305.15C130.005 304.39 133.347 303.388 136.604 302.15C137.854 301.67 138.864 301.27 139.604 300.98C139.936 300.787 140.288 300.633 140.654 300.52Z" fill="#455A64"/>
<path d="M158.084 314.02C156.312 315.118 154.68 316.428 153.224 317.92C151.898 319.527 150.76 321.282 149.834 323.15C149.9 322.525 150.084 321.917 150.374 321.36C151.614 318.568 153.717 316.248 156.374 314.74C156.89 314.387 157.472 314.142 158.084 314.02Z" fill="#455A64"/>
<path d="M175.814 331.34C176.593 327.711 178.414 324.388 181.054 321.78C181.174 321.88 179.634 323.78 178.194 326.43C176.754 329.08 175.964 331.39 175.814 331.34Z" fill="#455A64"/>
<path d="M147.874 234.45C145.604 235.122 143.288 235.63 140.944 235.97C138.638 236.473 136.299 236.807 133.944 236.97C136.213 236.291 138.53 235.783 140.874 235.45C143.18 234.947 145.52 234.613 147.874 234.45Z" fill="#455A64"/>
<path d="M194.804 236.59C191.584 236.469 188.373 236.175 185.184 235.71C181.978 235.419 178.79 234.952 175.634 234.31C178.854 234.437 182.065 234.731 185.254 235.19C188.46 235.487 191.648 235.954 194.804 236.59Z" fill="#455A64"/>
<path d="M198.804 258.41C198.602 258.44 198.397 258.44 198.194 258.41H196.434H189.964C184.504 258.41 176.964 258.41 168.634 258.66C160.304 258.91 152.774 259.22 147.314 259.51L140.854 259.85L139.104 259.92C138.899 259.951 138.69 259.951 138.484 259.92C138.685 259.872 138.889 259.841 139.094 259.83L140.844 259.65C142.364 259.51 144.564 259.34 147.294 259.15C152.744 258.77 160.294 258.37 168.624 258.15C176.954 257.93 184.504 257.95 189.974 258.05C192.704 258.1 194.914 258.16 196.434 258.23L198.194 258.31C198.4 258.324 198.605 258.358 198.804 258.41Z" fill="#455A64"/>
<path d="M199.384 286.06C199.384 286.2 186.534 287.16 170.664 288.21C154.794 289.26 141.914 289.98 141.904 289.84C141.894 289.7 154.754 288.73 170.624 287.69C186.494 286.65 199.374 285.91 199.384 286.06Z" fill="#455A64"/>
<path d="M198.014 310.41C197.671 310.6 197.309 310.754 196.934 310.87C196.224 311.14 195.194 311.49 193.934 311.87C191.364 312.71 187.774 313.76 183.764 314.73C179.754 315.7 176.084 316.39 173.414 316.8C172.074 317.02 170.994 317.17 170.244 317.25C169.855 317.315 169.459 317.342 169.064 317.33C169.436 317.194 169.822 317.1 170.214 317.05L173.344 316.44C175.994 315.93 179.644 315.18 183.644 314.22C187.644 313.26 191.234 312.27 193.824 311.52L196.894 310.63C197.257 310.511 197.634 310.437 198.014 310.41Z" fill="#455A64"/>
<path d="M218.584 266.27C215.522 267.332 212.404 268.227 209.244 268.95C206.129 269.845 202.968 270.572 199.774 271.13C202.838 270.072 205.956 269.177 209.114 268.45C212.229 267.551 215.39 266.823 218.584 266.27Z" fill="#455A64"/>
<path d="M208.774 247.58C207.445 248.084 206.057 248.42 204.644 248.58C203.256 248.918 201.833 249.086 200.404 249.08C201.74 248.584 203.13 248.248 204.544 248.08C205.929 247.742 207.349 247.574 208.774 247.58Z" fill="#455A64"/>
<path d="M138.524 253.38C138.424 253.38 138.264 251.72 137.354 249.21C136.174 245.929 134.198 242.992 131.605 240.66C129.012 238.329 125.882 236.676 122.494 235.85C119.894 235.21 118.204 235.24 118.214 235.14C118.604 235.07 119.001 235.053 119.394 235.09C120.464 235.133 121.528 235.271 122.574 235.5C126.065 236.24 129.3 237.885 131.954 240.271C134.608 242.656 136.588 245.698 137.694 249.09C138.038 250.105 138.286 251.149 138.434 252.21C138.518 252.594 138.548 252.988 138.524 253.38Z" fill="#263238"/>
<path d="M196.924 240.05C197.677 243.061 198.255 246.113 198.654 249.19C199.235 252.241 199.639 255.323 199.864 258.42C199.123 255.404 198.549 252.349 198.144 249.27C197.565 246.222 197.158 243.144 196.924 240.05Z" fill="#263238"/>
<path d="M251.564 387.44C251.564 387.44 289.244 397.86 290.754 398.44C293.024 399.24 292.644 407.55 289.114 407.44C287.444 407.38 260.174 408.44 256.724 408.24C253.274 408.04 242.884 403.93 242.884 403.93L251.564 387.44Z" fill="#1D2238"/>
<path d="M267.264 401.81C267.454 401.81 267.704 399.81 268.924 397.81C270.144 395.81 271.704 394.49 271.584 394.34C271.464 394.19 269.644 395.26 268.374 397.49C267.104 399.72 267.104 401.83 267.264 401.81Z" fill="#263238"/>
<path d="M263.324 400.03C263.504 400.03 263.884 398.28 264.894 396.31C265.904 394.34 267.084 392.97 266.894 392.84C265.728 393.624 264.817 394.733 264.274 396.03C263.324 398.15 263.174 400.02 263.324 400.03Z" fill="#263238"/>
<path d="M259.644 399.05C259.834 399.05 259.644 397.15 260.524 395.05C261.404 392.95 262.714 391.67 262.584 391.53C262.454 391.39 260.814 392.53 259.944 394.83C259.074 397.13 259.494 399.15 259.644 399.05Z" fill="#263238"/>
<path d="M260.324 394.15C260.66 393.253 260.799 392.295 260.734 391.34C260.722 390.305 260.591 389.275 260.344 388.27C260.204 387.673 260.016 387.088 259.784 386.52C259.67 386.165 259.463 385.848 259.184 385.6C258.997 385.456 258.765 385.383 258.528 385.394C258.292 385.405 258.068 385.499 257.894 385.66C257.599 385.942 257.418 386.323 257.384 386.73C257.365 387.063 257.365 387.397 257.384 387.73C257.387 388.354 257.464 388.975 257.614 389.58C257.868 390.588 258.259 391.557 258.774 392.46C259.194 393.314 259.767 394.083 260.464 394.73C260.554 394.67 259.924 393.79 259.164 392.25C258.724 391.359 258.388 390.419 258.164 389.45C258.047 388.884 257.987 388.308 257.984 387.73C257.984 387.15 257.984 386.43 258.334 386.15C258.402 386.085 258.491 386.049 258.584 386.049C258.678 386.049 258.767 386.085 258.834 386.15C259.027 386.33 259.168 386.558 259.244 386.81C259.471 387.35 259.662 387.905 259.814 388.47C260.079 389.431 260.246 390.416 260.314 391.41C260.384 393.15 260.214 394.15 260.324 394.15Z" fill="#263238"/>
<path d="M260.324 393.8C259.554 393.475 258.718 393.338 257.884 393.4C256.984 393.4 256.088 393.511 255.214 393.73C254.677 393.846 254.158 394.038 253.674 394.3C253.366 394.456 253.116 394.708 252.963 395.018C252.81 395.329 252.761 395.68 252.824 396.02C252.909 396.345 253.08 396.642 253.319 396.878C253.559 397.114 253.858 397.28 254.184 397.36C254.739 397.5 255.32 397.5 255.874 397.36C256.766 397.13 257.6 396.718 258.324 396.15C259.006 395.683 259.599 395.097 260.074 394.42C259.375 394.823 258.707 395.278 258.074 395.78C257.375 396.258 256.591 396.597 255.764 396.78C255.305 396.895 254.824 396.895 254.364 396.78C254.147 396.725 253.948 396.613 253.786 396.457C253.625 396.301 253.507 396.106 253.444 395.89C253.411 395.677 253.447 395.458 253.548 395.267C253.649 395.076 253.809 394.922 254.004 394.83C254.438 394.598 254.898 394.42 255.374 394.3C256.204 394.068 257.055 393.921 257.914 393.86C259.324 393.75 260.254 393.9 260.324 393.8Z" fill="#263238"/>
<path d="M273.054 402.22C273.234 402.22 273.054 400.59 273.794 398.82C274.534 397.05 275.794 396.01 275.634 395.87C275.474 395.73 274.004 396.61 273.214 398.58C272.424 400.55 272.894 402.28 273.054 402.22Z" fill="#263238"/>
<path d="M246.764 403.96C247.223 404.237 247.709 404.465 248.214 404.64C249.582 405.171 250.986 405.605 252.414 405.94C257.135 406.974 261.964 407.431 266.794 407.3C272.444 407.24 277.534 406.99 281.224 406.84L285.584 406.61C286.122 406.604 286.658 406.548 287.184 406.44C286.652 406.354 286.112 406.327 285.574 406.36H281.204L266.794 406.64C262.003 406.759 257.213 406.37 252.504 405.48C248.904 404.77 246.804 403.84 246.764 403.96Z" fill="#263238"/>
<path d="M245.644 404.82C245.644 404.9 246.724 404.3 248.464 403.54C250.682 402.481 253.153 402.069 255.594 402.35C257.995 402.871 260.161 404.159 261.764 406.02C262.436 406.809 263.161 407.551 263.934 408.24C263.434 407.317 262.812 406.466 262.084 405.71C261.346 404.841 260.51 404.06 259.594 403.38C258.444 402.528 257.107 401.962 255.694 401.73C253.15 401.433 250.576 401.929 248.324 403.15C247.347 403.559 246.442 404.123 245.644 404.82Z" fill="#263238"/>
<path d="M206.974 378.69C206.974 378.69 171.324 402.03 170.034 403C168.114 404.45 170.314 411.36 173.644 410.16C175.214 409.6 205.134 401.27 208.354 400.02C211.574 398.77 220.234 391.71 220.234 391.71L206.974 378.69Z" fill="#1D2238"/>
<path d="M196.384 397.15C196.534 397.15 195.904 395.06 193.994 393.34C192.084 391.62 189.994 391.15 189.994 391.34C189.994 391.53 191.814 392.2 193.584 393.83C195.354 395.46 196.214 397.24 196.384 397.15Z" fill="#263238"/>
<path d="M199.584 394.26C199.734 394.21 199.044 392.41 197.414 390.76C195.784 389.11 194.014 388.36 193.954 388.51C193.894 388.66 195.424 389.61 196.954 391.2C198.484 392.79 199.414 394.35 199.584 394.26Z" fill="#263238"/>
<path d="M202.794 392.2C202.954 392.2 202.794 390.2 201.234 388.28C199.674 386.36 197.754 385.79 197.724 385.95C197.694 386.11 199.344 386.95 200.724 388.68C202.104 390.41 202.614 392.25 202.794 392.2Z" fill="#263238"/>
<path d="M200.684 387.77C200.774 387.77 200.284 386.77 199.874 385.1C199.64 384.132 199.5 383.145 199.454 382.15C199.42 381.564 199.42 380.976 199.454 380.39C199.455 380.128 199.52 379.871 199.644 379.64C199.697 379.563 199.777 379.51 199.868 379.489C199.958 379.469 200.054 379.483 200.134 379.53C200.544 379.69 200.754 380.38 200.944 380.93C201.121 381.479 201.238 382.046 201.294 382.62C201.386 383.62 201.356 384.627 201.204 385.62C200.954 387.31 200.624 388.34 200.724 388.37C201.195 387.545 201.507 386.64 201.644 385.7C201.862 384.682 201.94 383.639 201.874 382.6C201.831 381.979 201.717 381.365 201.534 380.77C201.438 380.453 201.321 380.142 201.184 379.84C201.031 379.465 200.747 379.16 200.384 378.98C200.171 378.878 199.928 378.855 199.699 378.916C199.47 378.976 199.27 379.116 199.134 379.31C198.945 379.632 198.841 379.997 198.834 380.37C198.794 380.983 198.794 381.597 198.834 382.21C198.904 383.229 199.096 384.236 199.404 385.21C199.637 386.147 200.074 387.022 200.684 387.77Z" fill="#263238"/>
<path d="M200.604 387.39C200.654 387.48 201.484 387.06 202.924 386.71C203.761 386.508 204.615 386.391 205.474 386.36C205.966 386.33 206.46 386.36 206.944 386.45C207.156 386.479 207.353 386.576 207.506 386.725C207.659 386.875 207.76 387.069 207.794 387.28C207.802 387.506 207.751 387.73 207.646 387.93C207.54 388.129 207.385 388.299 207.194 388.42C206.792 388.67 206.336 388.82 205.864 388.86C205.023 388.937 204.174 388.852 203.364 388.61C202.604 388.328 201.826 388.097 201.034 387.92C201.691 388.426 202.437 388.803 203.234 389.03C204.092 389.357 205.009 389.497 205.924 389.44C206.498 389.403 207.053 389.228 207.544 388.93C207.829 388.751 208.061 388.499 208.216 388.2C208.37 387.901 208.442 387.566 208.424 387.23C208.383 386.887 208.231 386.566 207.991 386.317C207.751 386.068 207.436 385.904 207.094 385.85C206.553 385.754 206.002 385.73 205.454 385.78C204.554 385.837 203.664 386.005 202.804 386.28C201.996 386.478 201.244 386.857 200.604 387.39Z" fill="#263238"/>
<path d="M178.184 408.86C178.184 408.92 178.784 408.5 179.064 407.48C179.35 406.152 179.11 404.765 178.394 403.61C178.042 402.986 177.641 402.39 177.194 401.83C176.853 401.342 176.446 400.905 175.984 400.53C175.658 400.264 175.262 400.097 174.844 400.05C174.554 400.05 174.394 400.11 174.404 400.15C174.885 400.291 175.329 400.537 175.704 400.87C176.079 401.27 176.413 401.706 176.704 402.17C177.107 402.73 177.481 403.311 177.824 403.91C178.459 404.953 178.733 406.176 178.604 407.39C178.491 407.887 178.351 408.378 178.184 408.86Z" fill="#263238"/>
<path d="M190.984 399.3C191.154 399.3 191.104 397.5 189.734 395.88C188.364 394.26 186.604 393.88 186.594 394.04C186.584 394.2 188.034 394.8 189.244 396.29C190.454 397.78 190.804 399.33 190.984 399.3Z" fill="#263238"/>
<path d="M216.564 392.97C216.012 393.285 215.486 393.647 214.994 394.05C213.583 395.029 212.117 395.927 210.604 396.74C208.342 397.929 206.003 398.967 203.604 399.85C200.904 400.85 197.874 401.8 194.674 402.73C188.254 404.58 182.444 406.27 178.254 407.53L173.254 409.05C172.639 409.207 172.04 409.422 171.464 409.69C172.094 409.603 172.716 409.466 173.324 409.28L178.324 407.96C182.544 406.81 188.324 405.19 194.784 403.34C197.994 402.41 201.034 401.44 203.784 400.39C206.194 399.476 208.534 398.386 210.784 397.13C212.299 396.278 213.746 395.312 215.114 394.24C215.641 393.869 216.127 393.443 216.564 392.97Z" fill="#263238"/>
<path d="M217.884 393.45C216.934 393.024 215.921 392.754 214.884 392.65C212.354 392.172 209.737 392.49 207.394 393.56C206.12 394.212 205.02 395.158 204.184 396.32C203.515 397.253 202.954 398.259 202.514 399.32C202.047 400.27 201.71 401.279 201.514 402.32C202.042 401.43 202.507 400.505 202.904 399.55C203.754 397.89 205.094 395.46 207.664 394.18C209.912 393.187 212.391 392.841 214.824 393.18C216.704 393.29 217.864 393.55 217.884 393.45Z" fill="#263238"/>
<path d="M281.094 320.31C281.094 320.31 291.784 324.15 291.834 336.15C291.914 359.15 245.414 384.45 245.414 384.45L183.524 343.45L179.644 341.88C179.644 341.88 263.184 310.46 281.094 320.31Z" fill="#263238"/>
<path d="M214.874 364.15C215.445 363.84 215.984 363.474 216.484 363.06C217.484 362.33 218.944 361.23 220.724 359.86C224.264 357.13 229.084 353.24 234.274 348.79C239.464 344.34 244.024 340.16 247.274 337.07C248.894 335.53 250.194 334.26 251.074 333.37C251.558 332.935 252 332.457 252.394 331.94C251.865 332.316 251.367 332.734 250.904 333.19L246.974 336.74C243.654 339.74 239.044 343.87 233.864 348.31C228.684 352.75 223.924 356.69 220.454 359.52L216.324 362.84C215.806 363.236 215.321 363.674 214.874 364.15Z" fill="#455A64"/>
<path d="M263.624 328.89C261.61 328.574 259.548 328.763 257.624 329.44C254.394 330.38 252.224 332.1 252.324 332.22C252.424 332.34 254.684 330.95 257.804 330.04C260.924 329.13 263.624 329.09 263.624 328.89Z" fill="#455A64"/>
<path d="M258.324 325.27C256.849 325.791 255.571 326.755 254.664 328.03C253.014 330.03 252.574 332.18 252.734 332.2C252.894 332.22 253.594 330.34 255.154 328.43C256.714 326.52 258.384 325.44 258.324 325.27Z" fill="#455A64"/>
<path d="M284.494 398.02C284.494 397.95 283.754 397.8 282.894 398.5C281.892 399.446 281.261 400.719 281.114 402.09C280.9 403.449 281.095 404.842 281.674 406.09C282.114 407.03 282.594 407.48 282.674 407.43C282.754 407.38 282.424 406.85 282.114 405.93C281.713 404.737 281.594 403.467 281.764 402.22C281.904 400.982 282.413 399.815 283.224 398.87C283.854 398.15 284.504 398.15 284.494 398.02Z" fill="#263238"/>
<path d="M276.664 287.68L259.064 335.15C258.573 336.473 257.685 337.612 256.521 338.411C255.358 339.209 253.975 339.628 252.564 339.61L155.644 338.33V330.97L191.644 332.28L206.904 284.94C207.158 284.161 207.651 283.482 208.314 283.001C208.977 282.519 209.775 282.26 210.594 282.26L273.114 282.44C273.735 282.451 274.343 282.611 274.889 282.907C275.435 283.203 275.901 283.625 276.249 284.139C276.597 284.653 276.817 285.242 276.889 285.859C276.961 286.475 276.884 287.1 276.664 287.68Z" fill="#E0E0E0"/>
<path d="M276.664 287.68C276.664 287.68 276.664 287.68 276.664 287.53C276.717 287.387 276.758 287.24 276.784 287.09C276.929 286.502 276.929 285.888 276.784 285.3C276.583 284.521 276.139 283.827 275.517 283.317C274.895 282.806 274.127 282.506 273.324 282.46C272.664 282.46 271.934 282.46 271.174 282.46H245.094H226.824H216.554H211.164C210.266 282.371 209.362 282.571 208.584 283.03C207.811 283.516 207.239 284.266 206.974 285.14L191.754 332.4V332.51H191.634L155.634 331.21L155.794 331.05V338.41L155.644 338.26L216.584 339.07L243.074 339.44L249.184 339.52H252.184C253.139 339.577 254.096 339.437 254.994 339.11C255.868 338.792 256.665 338.295 257.335 337.651C258.004 337.007 258.532 336.23 258.884 335.37C259.524 333.65 260.154 331.96 260.774 330.32C265.684 317.15 269.654 306.51 272.394 299.15C273.774 295.49 274.834 292.64 275.564 290.7C276.294 288.76 276.684 287.77 276.684 287.77C276.684 287.77 276.334 288.77 275.624 290.77L272.484 299.15C269.764 306.52 265.834 317.15 260.954 330.35L259.074 335.42C258.712 336.307 258.169 337.109 257.481 337.775C256.792 338.441 255.973 338.957 255.074 339.29C254.144 339.631 253.154 339.781 252.164 339.73H249.164L243.064 339.65L216.574 339.32L155.624 338.53H155.474V330.85H155.634L191.634 332.17L191.484 332.28L206.744 285.03C207.024 284.095 207.636 283.295 208.464 282.78C209.285 282.298 210.237 282.088 211.184 282.18H216.574H226.844L245.114 282.26L271.194 282.38C271.954 282.38 272.674 282.38 273.354 282.38C274.174 282.434 274.956 282.747 275.587 283.273C276.218 283.8 276.665 284.513 276.864 285.31C277.012 285.901 277.012 286.519 276.864 287.11C276.814 287.305 276.747 287.496 276.664 287.68Z" fill="#263238"/>
<path d="M233.694 305.61C234.444 305.231 235.287 305.076 236.123 305.165C236.959 305.253 237.751 305.582 238.404 306.11C238.956 306.636 239.339 307.315 239.503 308.06C239.666 308.804 239.604 309.581 239.324 310.29C239.02 310.989 238.529 311.59 237.904 312.026C237.279 312.462 236.545 312.716 235.784 312.76C234.977 312.812 234.174 312.6 233.499 312.154C232.824 311.708 232.313 311.053 232.044 310.29C231.594 308.74 232.044 306.43 233.694 305.61Z" fill="white"/>
<path d="M255.844 387C255.844 387 168.504 331.06 164.654 328.86C161.374 326.99 152.594 321.59 143.944 323.98C135.294 326.37 127.534 334.15 123.654 345.46C121.444 351.94 120.394 362.99 119.904 371.28C119.243 381.207 122.471 391.001 128.904 398.59C131.751 402.129 135.524 404.809 139.804 406.33C140.714 406.61 141.664 406.85 142.634 407.06C159.164 410.65 176.154 403.23 185.444 389.06L187.444 385.96C187.444 385.96 244.644 406.96 245.534 406.67L255.844 387Z" fill="#263238"/>
<path d="M169.164 331.96C169.164 331.96 169.084 331.96 168.944 331.83L168.334 331.41C167.794 331.04 167.004 330.5 165.974 329.83C163.066 327.92 159.953 326.34 156.694 325.12C154.445 324.294 152.087 323.798 149.694 323.65C146.966 323.536 144.244 323.982 141.694 324.96C138.865 326.053 136.252 327.637 133.974 329.64C132.755 330.684 131.609 331.81 130.544 333.01C129.467 334.246 128.516 335.586 127.704 337.01C126.097 339.85 124.835 342.871 123.944 346.01C123.114 349.06 122.454 352.07 121.834 354.91C120.681 359.941 120.011 365.071 119.834 370.23C119.772 373.71 120.036 377.189 120.624 380.62C120.814 381.84 121.034 382.77 121.164 383.41L121.304 384.14C121.318 384.223 121.318 384.307 121.304 384.39C121.27 384.313 121.243 384.232 121.224 384.15C121.224 383.96 121.104 383.72 121.034 383.43C120.864 382.8 120.614 381.88 120.394 380.66C119.71 377.226 119.375 373.732 119.394 370.23C119.528 365.049 120.175 359.894 121.324 354.84C121.944 351.98 122.584 348.99 123.404 345.9C124.312 342.721 125.591 339.66 127.214 336.78C128.043 335.318 129.015 333.941 130.114 332.67C131.197 331.45 132.363 330.308 133.604 329.25C135.931 327.218 138.599 325.613 141.484 324.51C144.109 323.515 146.911 323.073 149.714 323.21C152.137 323.389 154.521 323.914 156.794 324.77C160.069 326.024 163.181 327.665 166.064 329.66C167.064 330.36 167.854 330.93 168.374 331.33L168.954 331.79C169.033 331.836 169.104 331.893 169.164 331.96Z" fill="#455A64"/>
<path d="M147.674 371.21C147.83 371.292 147.99 371.366 148.154 371.43L149.584 371.99L155.124 374.15L175.724 381.91C184.474 385.17 194.964 389.06 206.724 393.34C218.484 397.62 231.514 402.34 245.434 407.02L245.694 407.1L245.814 406.87C247.994 402.69 250.304 398.29 252.644 393.82L256.124 387.15L256.264 386.89L256.014 386.74L189.324 344.4L169.324 331.76L163.884 328.36L162.464 327.5C162.306 327.398 162.142 327.305 161.974 327.22C161.974 327.22 162.124 327.34 162.434 327.55L163.824 328.47L169.204 331.96L189.134 344.76L255.714 387.27L255.604 386.86C254.504 388.97 253.324 391.23 252.124 393.51L245.304 406.56L245.674 406.4C231.764 401.7 218.724 397.03 206.954 392.79L175.954 381.5L155.284 373.92L149.704 371.92L148.254 371.41L147.674 371.21Z" fill="#455A64"/>
<path d="M152.194 185.62C150.557 182.679 149.255 179.562 148.314 176.33C147.376 173.071 147.559 169.592 148.834 166.45C149.644 164.66 150.924 163.09 151.564 161.23C152.434 158.67 152.074 155.65 153.664 153.46C156.134 150.03 161.434 150.83 165.264 149.04C168.264 147.64 170.334 144.63 173.464 143.62C176.204 142.74 179.194 143.62 181.834 144.72C184.474 145.82 187.064 147.29 189.914 147.66C191.963 147.775 194.016 147.775 196.064 147.66C198.141 147.574 200.172 148.29 201.734 149.66C203.174 151.11 203.474 153.8 201.914 155.13C205.504 154.52 208.914 158.13 208.834 161.74C208.754 165.35 206.044 168.58 202.734 170.1C199.424 171.62 195.654 171.71 192.024 171.42C181.754 170.62 171.434 166.72 164.444 159.16" fill="#263238"/>
<path d="M154.404 172.77L147.404 223.62C147.121 225.669 147.258 227.754 147.806 229.749C148.353 231.743 149.301 233.606 150.591 235.223C151.88 236.84 153.485 238.178 155.308 239.156C157.131 240.133 159.134 240.73 161.194 240.91C165.101 241.249 168.989 240.073 172.053 237.625C175.117 235.178 177.122 231.645 177.654 227.76C178.174 223.93 178.654 220.76 178.654 220.35C178.654 220.35 191.764 220.91 194.464 208.23C195.764 202.1 197.464 189.23 198.784 177.62C199.486 171.604 197.902 165.544 194.346 160.641C190.79 155.738 185.521 152.351 179.584 151.15L178.354 150.91C164.974 149.02 155.904 159.34 154.404 172.77Z" fill="#FFBE9D"/>
<path d="M178.774 220.15C172.884 219.091 167.44 216.307 163.134 212.15C163.134 212.15 165.224 222.09 178.134 223.48L178.774 220.15Z" fill="#EB996E"/>
<path d="M193.144 188.43C193.054 188.905 192.782 189.325 192.386 189.602C191.99 189.878 191.501 189.989 191.024 189.91C190.791 189.882 190.566 189.807 190.362 189.691C190.157 189.575 189.978 189.419 189.835 189.233C189.692 189.047 189.587 188.834 189.527 188.607C189.466 188.38 189.452 188.143 189.484 187.91C189.572 187.436 189.842 187.014 190.236 186.736C190.63 186.457 191.118 186.344 191.594 186.42C191.829 186.447 192.057 186.521 192.263 186.637C192.469 186.754 192.649 186.91 192.794 187.098C192.938 187.285 193.044 187.499 193.104 187.728C193.164 187.957 193.178 188.196 193.144 188.43Z" fill="#263238"/>
<path d="M194.864 183.31C194.594 183.5 193.424 182.21 191.464 181.83C189.504 181.45 187.884 182.13 187.724 181.83C187.644 181.7 187.954 181.32 188.724 180.99C189.669 180.58 190.716 180.472 191.724 180.68C192.743 180.878 193.672 181.396 194.374 182.16C194.884 182.76 195.004 183.23 194.864 183.31Z" fill="#263238"/>
<path d="M174.924 185.28C174.834 185.755 174.562 186.175 174.166 186.452C173.77 186.728 173.281 186.839 172.804 186.76C172.571 186.733 172.345 186.659 172.14 186.544C171.935 186.428 171.755 186.272 171.612 186.085C171.468 185.899 171.364 185.686 171.304 185.458C171.244 185.23 171.231 184.993 171.264 184.76C171.352 184.286 171.622 183.866 172.017 183.589C172.412 183.312 172.899 183.201 173.374 183.28C173.609 183.307 173.835 183.381 174.04 183.496C174.246 183.612 174.426 183.768 174.57 183.954C174.714 184.14 174.82 184.354 174.881 184.581C174.942 184.809 174.957 185.047 174.924 185.28Z" fill="#263238"/>
<path d="M175.594 179.84C175.314 180.03 174.144 178.74 172.184 178.35C170.224 177.96 168.604 178.66 168.444 178.35C168.364 178.22 168.674 177.84 169.444 177.51C170.389 177.1 171.436 176.992 172.444 177.2C173.46 177.399 174.388 177.913 175.094 178.67C175.604 179.29 175.724 179.75 175.594 179.84Z" fill="#263238"/>
<path d="M179.784 195.75C180.879 195.629 181.985 195.649 183.074 195.81C183.584 195.86 184.074 195.81 184.224 195.53C184.384 195.026 184.384 194.484 184.224 193.98C184.004 192.68 183.764 191.32 183.514 189.89C182.514 184.07 181.954 179.33 182.184 179.29C182.414 179.25 183.394 183.94 184.364 189.76C184.584 191.19 184.804 192.55 185.014 193.86C185.202 194.522 185.156 195.228 184.884 195.86C184.773 196.025 184.624 196.163 184.451 196.262C184.278 196.361 184.084 196.418 183.884 196.43C183.593 196.448 183.301 196.428 183.014 196.37C181.916 196.301 180.831 196.093 179.784 195.75Z" fill="#263238"/>
<path d="M173.764 195.95C174.084 195.95 173.664 198.12 175.184 199.95C176.704 201.78 179.004 202.04 178.954 202.34C178.954 202.48 178.374 202.65 177.414 202.49C176.167 202.255 175.041 201.59 174.234 200.61C173.483 199.663 173.124 198.464 173.234 197.26C173.324 196.39 173.624 195.91 173.764 195.95Z" fill="#263238"/>
<path d="M177.624 172.28C177.324 172.77 175.424 172.13 173.074 171.95C170.724 171.77 168.754 172.02 168.544 171.49C168.454 171.23 168.874 170.8 169.724 170.43C170.849 170.005 172.056 169.839 173.254 169.945C174.452 170.05 175.611 170.425 176.644 171.04C177.414 171.54 177.754 172.05 177.624 172.28Z" fill="#1D2238"/>
<path d="M195.324 177.51C194.884 177.89 193.634 177.16 192.024 176.81C190.414 176.46 189.024 176.51 188.744 175.99C188.654 175.73 188.954 175.33 189.644 174.99C190.549 174.648 191.534 174.582 192.476 174.801C193.418 175.02 194.274 175.514 194.934 176.22C195.374 176.83 195.474 177.33 195.324 177.51Z" fill="#1D2238"/>
<path d="M153.564 182.39C153.364 182.25 145.344 178.06 143.884 186.81C142.424 195.56 151.514 195.22 151.564 194.97C151.614 194.72 153.564 182.39 153.564 182.39Z" fill="#FFBE9D"/>
<path d="M149.444 191.21C149.444 191.21 149.274 191.29 149.004 191.36C148.615 191.458 148.202 191.4 147.854 191.2C146.984 190.7 146.454 189.11 146.674 187.52C146.78 186.767 147.049 186.047 147.464 185.41C147.592 185.148 147.78 184.921 148.013 184.747C148.246 184.573 148.517 184.457 148.804 184.41C148.987 184.394 149.17 184.442 149.322 184.546C149.473 184.65 149.584 184.803 149.634 184.98C149.714 185.25 149.634 185.41 149.634 185.43C149.634 185.45 149.844 185.32 149.834 184.95C149.822 184.724 149.734 184.509 149.584 184.34C149.373 184.118 149.081 183.988 148.774 183.98C148.403 183.991 148.041 184.097 147.722 184.287C147.403 184.478 147.139 184.748 146.954 185.07C146.456 185.765 146.136 186.572 146.024 187.42C145.784 189.19 146.414 190.99 147.614 191.57C147.84 191.676 148.085 191.731 148.334 191.731C148.583 191.731 148.829 191.676 149.054 191.57C149.394 191.42 149.474 191.23 149.444 191.21Z" fill="#EB996E"/>
<path d="M201.324 165.81C199.824 169.04 192.104 170.29 186.444 168.58C181.234 167.01 179.334 163.7 176.024 160.81C173.924 158.98 173.924 158.98 170.494 158.63C167.724 158.34 165.494 161.1 163.404 162.93C164.574 169.93 161.484 176.77 158.464 183.14C158.21 183.884 157.714 184.522 157.054 184.95C155.874 185.53 154.454 184.61 153.744 183.49C152.748 181.606 152.321 179.473 152.514 177.35C152.542 172.51 153.532 167.724 155.424 163.27C157.322 158.783 160.501 154.957 164.564 152.27C169.771 149.087 176.01 148.055 181.964 149.39C187.884 150.76 193.22 153.962 197.214 158.54C199.165 160.566 200.578 163.048 201.324 165.76" fill="#263238"/>
<path d="M183.564 186.95C183.644 186.95 183.564 186.2 183.964 184.95C184.476 183.15 185.565 181.569 187.064 180.45C188.162 179.638 189.443 179.112 190.794 178.918C192.145 178.725 193.523 178.87 194.804 179.34C196.316 179.894 197.629 180.886 198.574 182.19C199.594 183.581 200.144 185.26 200.144 186.985C200.144 188.71 199.594 190.389 198.574 191.78C197.629 193.084 196.316 194.076 194.804 194.63C193.523 195.101 192.144 195.245 190.793 195.049C189.441 194.854 188.16 194.325 187.064 193.51C185.564 192.396 184.474 190.818 183.964 189.02C183.614 187.74 183.644 187.02 183.564 187.02C183.541 187.203 183.541 187.387 183.564 187.57C183.561 188.092 183.621 188.613 183.744 189.12C184.167 191.039 185.25 192.749 186.804 193.95C187.726 194.654 188.78 195.167 189.903 195.458C191.026 195.749 192.196 195.813 193.343 195.645C194.491 195.477 195.594 195.082 196.587 194.482C197.58 193.881 198.442 193.089 199.124 192.15C200.247 190.647 200.853 188.821 200.853 186.945C200.853 185.069 200.247 183.243 199.124 181.74C198.436 180.802 197.567 180.011 196.568 179.415C195.569 178.818 194.46 178.428 193.308 178.268C192.155 178.108 190.983 178.18 189.859 178.481C188.735 178.782 187.682 179.305 186.764 180.02C185.21 181.218 184.127 182.924 183.704 184.84C183.582 185.351 183.521 185.875 183.524 186.4C183.512 186.584 183.526 186.769 183.564 186.95Z" fill="#263238"/>
<path d="M162.814 183.33C162.894 183.33 162.814 182.58 163.214 181.33C163.724 179.529 164.813 177.947 166.314 176.83C167.411 176.017 168.693 175.49 170.044 175.296C171.395 175.102 172.773 175.248 174.054 175.72C175.566 176.27 176.878 177.259 177.824 178.56C178.845 179.952 179.395 181.634 179.395 183.36C179.395 185.086 178.845 186.768 177.824 188.16C176.882 189.464 175.568 190.454 174.054 191C172.773 191.472 171.395 191.618 170.044 191.424C168.693 191.23 167.411 190.703 166.314 189.89C164.813 188.773 163.724 187.191 163.214 185.39C162.864 184.12 162.894 183.39 162.814 183.39C162.791 183.569 162.791 183.751 162.814 183.93C162.811 184.455 162.872 184.979 162.994 185.49C163.417 187.409 164.5 189.119 166.054 190.32C166.974 191.034 168.027 191.556 169.151 191.856C170.276 192.157 171.449 192.229 172.602 192.068C173.755 191.908 174.864 191.519 175.864 190.923C176.864 190.327 177.734 189.537 178.424 188.6C179.544 187.094 180.149 185.267 180.149 183.39C180.149 181.513 179.544 179.686 178.424 178.18C177.736 177.242 176.867 176.451 175.868 175.855C174.869 175.258 173.76 174.868 172.608 174.708C171.455 174.548 170.282 174.62 169.159 174.921C168.035 175.222 166.982 175.745 166.064 176.46C164.512 177.663 163.429 179.372 163.004 181.29C162.882 181.801 162.821 182.325 162.824 182.85C162.802 183.009 162.798 183.17 162.814 183.33Z" fill="#263238"/>
<path d="M179.914 183.63C180.004 183.8 181.114 183.28 182.404 183.68C183.694 184.08 184.344 185.11 184.514 185.01C184.684 184.91 184.514 184.64 184.264 184.2C183.866 183.624 183.284 183.201 182.614 182.999C181.943 182.798 181.224 182.83 180.574 183.09C180.084 183.29 179.864 183.55 179.914 183.63Z" fill="#263238"/>
<path d="M151.064 181.09C151.064 181.29 153.854 181.4 157.294 181.36C160.734 181.32 163.514 181.11 163.514 180.91C163.514 180.71 160.724 180.6 157.284 180.65C153.844 180.7 151.064 180.89 151.064 181.09Z" fill="#263238"/>
<path d="M205.454 157.46C205.454 157.742 205.406 158.023 205.314 158.29C205.066 159.029 204.612 159.681 204.004 160.17C203.108 160.906 202.01 161.356 200.854 161.46C199.461 161.572 198.058 161.498 196.684 161.24C194.187 160.871 191.71 160.374 189.264 159.75C188.324 159.5 187.564 159.29 187.054 159.13L186.454 158.94L186.254 158.86C186.254 158.86 186.334 158.86 186.464 158.86L187.074 159.01L189.294 159.56C191.174 160.01 193.794 160.56 196.714 161C198.072 161.256 199.457 161.333 200.834 161.23C201.958 161.138 203.029 160.717 203.914 160.02C204.51 159.556 204.967 158.936 205.234 158.23C205.414 157.76 205.424 157.45 205.454 157.46Z" fill="white"/>
<path d="M207.394 159.44C207.271 160.274 207.018 161.084 206.644 161.84C205.777 163.697 204.373 165.25 202.614 166.3C200.854 167.35 198.82 167.848 196.774 167.73C195.935 167.702 195.105 167.543 194.314 167.26C194.537 167.286 194.758 167.33 194.974 167.39C195.572 167.501 196.177 167.568 196.784 167.59C198.794 167.663 200.781 167.153 202.507 166.12C204.232 165.087 205.62 163.576 206.504 161.77C206.784 161.229 207.012 160.663 207.184 160.08C207.24 159.862 207.31 159.648 207.394 159.44Z" fill="white"/>
<defs>
<linearGradient id="paint0_linear_1114_2218" x1="56.0007" y1="284.59" x2="56.0007" y2="340.658" gradientUnits="userSpaceOnUse">
<stop stop-color="#A671FD"/>
<stop offset="1" stop-color="#FE0F56"/>
</linearGradient>
<linearGradient id="paint1_linear_1114_2218" x1="30.1855" y1="254.47" x2="30.1855" y2="273.76" gradientUnits="userSpaceOnUse">
<stop stop-color="#A671FD"/>
<stop offset="1" stop-color="#FE0F56"/>
</linearGradient>
<linearGradient id="paint2_linear_1114_2218" x1="43.2607" y1="246" x2="43.2607" y2="279.61" gradientUnits="userSpaceOnUse">
<stop stop-color="#A671FD"/>
<stop offset="1" stop-color="#FE0F56"/>
</linearGradient>
<linearGradient id="paint3_linear_1114_2218" x1="22.7265" y1="279.851" x2="22.7265" y2="318.178" gradientUnits="userSpaceOnUse">
<stop stop-color="#A671FD"/>
<stop offset="1" stop-color="#FE0F56"/>
</linearGradient>
<linearGradient id="paint4_linear_1114_2218" x1="99.7218" y1="280.037" x2="99.7218" y2="305.69" gradientUnits="userSpaceOnUse">
<stop stop-color="#A671FD"/>
<stop offset="1" stop-color="#FE0F56"/>
</linearGradient>
<linearGradient id="paint5_linear_1114_2218" x1="89.8233" y1="318.995" x2="89.8233" y2="362.17" gradientUnits="userSpaceOnUse">
<stop stop-color="#A671FD"/>
<stop offset="1" stop-color="#FE0F56"/>
</linearGradient>
<linearGradient id="paint6_linear_1114_2218" x1="179.443" y1="222.32" x2="179.443" y2="358.31" gradientUnits="userSpaceOnUse">
<stop stop-color="#0057C9"/>
<stop offset="1" stop-color="#7F58FF"/>
</linearGradient>
<linearGradient id="paint7_linear_1114_2218" x1="152.632" y1="231.08" x2="152.632" y2="345.93" gradientUnits="userSpaceOnUse">
<stop stop-color="#0057C9"/>
<stop offset="1" stop-color="#7F58FF"/>
</linearGradient>
</defs>
</svg>
