<?xml version="1.0" encoding="UTF-8"?>
<svg version="1.1" xmlns="http://www.w3.org/2000/svg" width="225" height="225">
<path d="M0 0 C1.31814697 0.00942627 2.63629395 0.01885254 3.99438477 0.02856445 C13.05228416 0.16933176 21.34769375 0.75949922 30.0625 3.375 C31.25746094 3.70371094 32.45242187 4.03242187 33.68359375 4.37109375 C63.37560056 13.30032369 86.51028856 33.83213668 101.3125 60.75 C109.79446746 76.79836193 113.63858046 94.2164211 113.4375 112.3125 C113.42807373 113.63064697 113.41864746 114.94879395 113.40893555 116.30688477 C113.26816824 125.36478416 112.67800078 133.66019375 110.0625 142.375 C109.56943359 144.16744141 109.56943359 144.16744141 109.06640625 145.99609375 C100.13717631 175.68810056 79.60536332 198.82278856 52.6875 213.625 C36.63913807 222.10696746 19.2210789 225.95108046 1.125 225.75 C-0.19314697 225.74057373 -1.51129395 225.73114746 -2.86938477 225.72143555 C-11.92728416 225.58066824 -20.22269375 224.99050078 -28.9375 222.375 C-30.72994141 221.88193359 -30.72994141 221.88193359 -32.55859375 221.37890625 C-62.25060056 212.44967631 -85.38528856 191.91786332 -100.1875 165 C-108.66946746 148.95163807 -112.51358046 131.5335789 -112.3125 113.4375 C-112.30307373 112.11935303 -112.29364746 110.80120605 -112.28393555 109.44311523 C-112.14316824 100.38521584 -111.55300078 92.08980625 -108.9375 83.375 C-108.60878906 82.18003906 -108.28007813 80.98507813 -107.94140625 79.75390625 C-99.01217631 50.06189944 -78.48036332 26.92721144 -51.5625 12.125 C-35.51413807 3.64303254 -18.0960789 -0.20108046 0 0 Z " fill="#036976" transform="translate(111.9375,-0.375)"/>
<path d="M0 0 C8.6266531 7.16174975 8.6266531 7.16174975 10 10 C9.12122846 12.52169224 8.0430797 14.90613657 6.9296875 17.33203125 C3.11715935 26.29853264 1.72271747 36.63742734 5.36328125 45.890625 C9.90318285 55.91700687 14.88627672 62.64063652 25 67 C25 67.66 25 68.32 25 69 C29.66959014 69.91789135 34.19404016 70.15192598 38.9375 70.125 C39.61490234 70.12886719 40.29230469 70.13273437 40.99023438 70.13671875 C45.43703889 70.1281918 49.6270079 69.71837941 54 69 C53.649375 68.2575 53.29875 67.515 52.9375 66.75 C52 64 52 64 52 61.9375 C53.61615856 58.80619279 55.94664463 57.61648225 59 56 C61.375 56.25 61.375 56.25 63 57 C63 57.99 63 58.98 63 60 C64.32 60 65.64 60 67 60 C71.61807225 55.15784407 74.72005454 49.54194347 76 43 C76.66 43 77.32 43 78 43 C77.85803484 40.14559413 77.71154174 37.29153804 77.5625 34.4375 C77.52318359 33.63763672 77.48386719 32.83777344 77.44335938 32.01367188 C77.19251844 27.28628494 76.74678186 22.67523099 76 18 C78.84898046 19.29334447 80.89179433 20.64792666 83.08447266 22.87329102 C83.65831696 23.45051407 84.23216125 24.02773712 84.82339478 24.62245178 C85.43081512 25.24333176 86.03823547 25.86421173 86.6640625 26.50390625 C87.29734467 27.14238998 87.93062683 27.78087372 88.58309937 28.43870544 C90.60187989 30.47527375 92.61383729 32.51841075 94.625 34.5625 C96.64416725 36.60927118 98.66476901 38.65457266 100.68832397 40.69700623 C101.94648149 41.96743566 103.20195639 43.24052842 104.45449829 44.51649475 C107.43156495 47.64329284 107.43156495 47.64329284 111 50 C109.27423915 77.55266456 100.16022266 97.97670425 81 118 C80.37738281 118.68578125 79.75476563 119.3715625 79.11328125 120.078125 C68.25242073 131.6448276 50.1760773 143.64058114 34.25 146 C30.53368597 146.57384261 26.90057272 147.22503242 23.25 148.125 C19.08457933 149.09972367 15.26861173 149.15522224 11 149 C11 148.34 11 147.68 11 147 C10.40708035 146.73184227 9.81416069 146.46368454 9.20327377 146.18740082 C6.97962175 144.98901764 5.52786318 143.77931962 3.74761963 142.00158691 C2.81802177 141.08044853 2.81802177 141.08044853 1.86964417 140.14070129 C1.20142136 139.46843002 0.53319855 138.79615875 -0.15527344 138.10351562 C-0.86786819 137.39442551 -1.58046295 136.68533539 -2.31465149 135.95475769 C-4.66794864 133.61026141 -7.01385713 131.25852708 -9.359375 128.90625 C-10.99004327 127.27692855 -12.62100836 125.64790413 -14.2522583 124.01916504 C-17.66834407 120.60602805 -21.08078503 117.18929858 -24.49072266 113.77001953 C-28.87133734 109.37799248 -33.26089228 104.99502782 -37.65319443 100.61469269 C-41.02127101 97.25382585 -44.38459077 93.8882314 -47.74646759 90.52116394 C-49.3638025 88.90249101 -50.98263498 87.28531304 -52.60295868 85.66963196 C-54.86093659 83.41670662 -57.11244811 81.15751598 -59.36230469 78.89648438 C-60.03862442 78.2242131 -60.71494415 77.55194183 -61.41175842 76.85929871 C-62.02021103 76.24520645 -62.62866364 75.6311142 -63.2555542 74.99841309 C-64.05525194 74.19758427 -64.05525194 74.19758427 -64.87110519 73.38057709 C-66 72 -66 72 -66 70 C-64.92621094 69.96261719 -63.85242187 69.92523438 -62.74609375 69.88671875 C-61.3098638 69.82100888 -59.87366738 69.75456332 -58.4375 69.6875 C-57.73302734 69.66494141 -57.02855469 69.64238281 -56.30273438 69.61914062 C-49.85496414 69.29229513 -45.108586 67.7896165 -40.08203125 63.5234375 C-36.75307015 59.11661794 -37.46673953 53.88928805 -37.6875 48.625 C-37.71005859 47.60277344 -37.73261719 46.58054688 -37.75585938 45.52734375 C-37.81451918 43.01670419 -37.89654072 40.50912621 -38 38 C-38.66 38 -39.32 38 -40 38 C-40.3815625 37.27941406 -40.763125 36.55882812 -41.15625 35.81640625 C-43.63123487 32.03576199 -46.70239218 30.27754977 -50.5 27.9375 C-59.12567481 22.57315176 -59.12567481 22.57315176 -61 19 C-61.29296875 16.640625 -61.29296875 16.640625 -61.1875 14.25 C-61.14689453 13.05117187 -61.14689453 13.05117187 -61.10546875 11.828125 C-61.05326172 10.92320313 -61.05326172 10.92320313 -61 10 C-59.35 9.67 -57.7 9.34 -56 9 C-56 12.63 -56 16.26 -56 20 C-50.06 20 -44.12 20 -38 20 C-38 16.04 -38 12.08 -38 8 C-35.26256463 9.5739464 -33.818046 10.491203 -32 13 C-31.13203854 17.24137514 -31.30266455 21.42475319 -31.4140625 25.73828125 C-31.42255219 26.97418503 -31.43104187 28.21008881 -31.43978882 29.48344421 C-31.4676495 32.75735911 -31.52147746 36.02948153 -31.5880127 39.30279541 C-31.64957274 42.64765918 -31.67631986 45.99260124 -31.70703125 49.33789062 C-31.76805012 55.89335117 -31.88547288 62.44438262 -32 69 C-21.11 69 -10.22 69 1 69 C1 64.05 1 59.1 1 54 C-3.29 54 -7.58 54 -12 54 C-12 49.38 -12 44.76 -12 40 C-8.37 40 -4.74 40 -1 40 C-1 35.05 -1 30.1 -1 25 C-4.63 25 -8.26 25 -12 25 C-12 21.04 -12 17.08 -12 13 C-8.04 13 -4.08 13 0 13 C0 8.71 0 4.42 0 0 Z " fill="#075862" transform="translate(112,74)"/>
<path d="M0 0 C7.90433034 5.93444237 14.29514742 13.04925418 16.8125 22.8125 C17.36086154 28.80679333 17.10963667 34.81033927 16.8125 40.8125 C16.1525 40.8125 15.4925 40.8125 14.8125 40.8125 C14.8125 41.740625 14.8125 42.66875 14.8125 43.625 C14.03461853 49.62579993 9.4533691 54.22616603 5.8125 58.8125 C3.875 58.5 3.875 58.5 1.8125 57.8125 C1.4825 56.8225 1.1525 55.8325 0.8125 54.8125 C-3.00847239 55.34319061 -5.24921403 56.30951566 -8.1875 58.8125 C-7.6925 62.7725 -7.6925 62.7725 -7.1875 66.8125 C-12.28840902 68.48841796 -16.86388988 69.12399698 -22.25 69.0625 C-22.93126953 69.07023437 -23.61253906 69.07796875 -24.31445312 69.0859375 C-28.6438543 69.06930195 -32.16468736 68.39401136 -36.1875 66.8125 C-36.1875 66.1525 -36.1875 65.4925 -36.1875 64.8125 C-36.93128906 64.70808594 -37.67507812 64.60367188 -38.44140625 64.49609375 C-44.91116467 62.88555645 -49.14320948 57.28189748 -52.5 51.8125 C-58.34486927 41.63003434 -59.74561226 32.14320689 -57.6015625 20.6796875 C-53.97594558 9.00453578 -44.68551856 1.43978547 -34.30078125 -4.21484375 C-23.16990132 -9.27857739 -9.83298904 -6.48621867 0 0 Z " fill="#04BF91" transform="translate(173.1875,76.1875)"/>
<path d="M0 0 C6.47759716 0.10215202 10.81845882 1.37141925 15.85473633 5.72973633 C19.93081024 10.45427654 19.22973633 17.57752667 19.22973633 23.32348633 C13.28973633 23.32348633 7.34973633 23.32348633 1.22973633 23.32348633 C1.22973633 19.69348633 1.22973633 16.06348633 1.22973633 12.32348633 C-0.09026367 12.65348633 -1.41026367 12.98348633 -2.77026367 13.32348633 C-2.90683583 14.71652238 -3.00297516 16.11354753 -3.08276367 17.51098633 C-3.14077148 18.28829102 -3.1987793 19.0655957 -3.25854492 19.86645508 C-2.07329318 25.83064186 4.71876589 29.19060471 9.47973633 32.38598633 C10.1165332 32.80686523 10.75333008 33.22774414 11.40942383 33.66137695 C16.08476957 36.86945994 16.08476957 36.86945994 16.91625977 39.47363281 C17.01970703 40.08408447 17.1231543 40.69453613 17.22973633 41.32348633 C17.88973633 41.32348633 18.54973633 41.32348633 19.22973633 41.32348633 C22.19062008 47.24525383 21.12523984 56.91070133 20.22973633 63.32348633 C18.06041058 68.18879495 15.32730564 70.44453328 10.47973633 72.47583008 C3.72620479 74.23726799 -4.77452383 74.68063995 -11.44995117 72.41333008 C-15.80186005 69.85966279 -18.34984146 66.788748 -20.77026367 62.32348633 C-21.22181451 59.50094625 -21.15313119 56.7969072 -21.02026367 53.94848633 C-20.93776367 51.43223633 -20.85526367 48.91598633 -20.77026367 46.32348633 C-15.16026367 46.32348633 -9.55026367 46.32348633 -3.77026367 46.32348633 C-3.27526367 53.25348633 -3.27526367 53.25348633 -2.77026367 60.32348633 C-0.29526367 59.82848633 -0.29526367 59.82848633 2.22973633 59.32348633 C3.30287233 55.6589256 3.44194997 52.96982498 2.22973633 49.32348633 C-1.01745945 45.88715564 -5.05716725 43.42557205 -9.00073242 40.86645508 C-13.96559397 37.62860932 -18.40141742 33.85593833 -20.77026367 28.32348633 C-21.11448611 25.04121115 -21.05360282 21.80637856 -20.95776367 18.51098633 C-20.94422852 17.62733398 -20.93069336 16.74368164 -20.91674805 15.83325195 C-20.88155584 13.6630661 -20.82775353 11.493196 -20.77026367 9.32348633 C-20.11026367 9.32348633 -19.45026367 9.32348633 -18.77026367 9.32348633 C-18.64651367 8.70473633 -18.52276367 8.08598633 -18.39526367 7.44848633 C-17.77026367 5.32348633 -17.77026367 5.32348633 -15.77026367 3.32348633 C-14.11209583 2.63595332 -12.44567031 1.9678735 -10.77026367 1.32348633 C-8.54193018 -0.90484716 -3.09412263 0.01539705 0 0 Z " fill="#00C794" transform="translate(54.770263671875,70.676513671875)"/>
<path d="M0 0 C9.9 0 19.8 0 30 0 C30 4.62 30 9.24 30 14 C26.04 14 22.08 14 18 14 C18 18.62 18 23.24 18 28 C21.63 28 25.26 28 29 28 C29 32.29 29 36.58 29 41 C25.37 41 21.74 41 18 41 C18 46.28 18 51.56 18 57 C22.62 57 27.24 57 32 57 C32 61.62 32 66.24 32 71 C21.44 71 10.88 71 0 71 C0 47.57 0 24.14 0 0 Z " fill="#00C994" transform="translate(81,72)"/>
<path d="M0 0 C7.6246793 -0.5033145 12.69019721 1.33029631 18.53125 6.25390625 C23.08160921 10.85876078 24.89283961 14.95601899 25.09375 21.44140625 C24.7647686 27.47018165 23.34536427 31.23822373 19.28125 35.75390625 C17.17547407 38.20031267 17.17547407 38.20031267 17.78125 41.56640625 C18.02875 42.45328125 18.27625 43.34015625 18.53125 44.25390625 C15.53125 46.25390625 15.53125 46.25390625 13.34375 45.87890625 C12.745625 45.67265625 12.1475 45.46640625 11.53125 45.25390625 C11.53125 44.59390625 11.53125 43.93390625 11.53125 43.25390625 C10.71914062 43.48980469 10.71914062 43.48980469 9.890625 43.73046875 C3.73412494 45.09631479 -3.17017839 45.51175231 -8.78125 42.31640625 C-13.88447939 38.59040822 -18.46301361 33.27111541 -20.46875 27.25390625 C-21.18119627 20.3838886 -21.22817815 14.69727796 -17.0234375 9.0078125 C-13.67495614 5.23025438 -10.61480794 1.93674287 -5.71875 0.37890625 C-3.80973187 0.30548248 -1.90040506 0.19545305 0 0 Z " fill="#08CD98" transform="translate(152.46875,86.74609375)"/>
<path d="M0 0 C7.6246793 -0.5033145 12.69019721 1.33029631 18.53125 6.25390625 C23.08160921 10.85876078 24.89283961 14.95601899 25.09375 21.44140625 C24.7647686 27.47018165 23.34536427 31.23822373 19.28125 35.75390625 C17.17547407 38.20031267 17.17547407 38.20031267 17.78125 41.56640625 C18.02875 42.45328125 18.27625 43.34015625 18.53125 44.25390625 C15.53125 46.25390625 15.53125 46.25390625 13.34375 45.87890625 C12.745625 45.67265625 12.1475 45.46640625 11.53125 45.25390625 C11.53125 44.59390625 11.53125 43.93390625 11.53125 43.25390625 C10.71914062 43.48980469 10.71914062 43.48980469 9.890625 43.73046875 C3.73412494 45.09631479 -3.17017839 45.51175231 -8.78125 42.31640625 C-13.88447939 38.59040822 -18.46301361 33.27111541 -20.46875 27.25390625 C-21.18119627 20.3838886 -21.22817815 14.69727796 -17.0234375 9.0078125 C-13.67495614 5.23025438 -10.61480794 1.93674287 -5.71875 0.37890625 C-3.80973187 0.30548248 -1.90040506 0.19545305 0 0 Z M-8.46875 9.25390625 C-9.4175 10.07890625 -10.36625 10.90390625 -11.34375 11.75390625 C-14.29576817 15.54248983 -14.21628072 19.62063443 -14.03125 24.26953125 C-13.15061066 28.94181221 -10.8759942 32.02075482 -7.46875 35.25390625 C-2.79112483 38.37232303 2.05499948 37.84142452 7.53125 37.25390625 C12.00995656 35.09452987 14.71323188 32.32437686 17.53125 28.25390625 C19.30497951 22.93271771 19.41586572 18.09390694 16.96875 13.00390625 C13.44778523 9.03153574 10.45722834 5.78716696 5.06640625 4.8046875 C-0.60254953 4.55746988 -4.10721643 5.39952774 -8.46875 9.25390625 Z " fill="#E5F1EF" transform="translate(152.46875,86.74609375)"/>
<path d="M0 0 C0.58265625 0.21527344 1.1653125 0.43054688 1.765625 0.65234375 C1.765625 1.64234375 1.765625 2.63234375 1.765625 3.65234375 C2.755625 3.98234375 3.745625 4.31234375 4.765625 4.65234375 C6.37548828 6.98144531 6.37548828 6.98144531 8.0859375 10.04296875 C8.70339844 11.14511719 9.32085937 12.24726563 9.95703125 13.3828125 C10.27430176 13.9607959 10.59157227 14.5387793 10.91845703 15.13427734 C11.88269734 16.88792585 12.86511959 18.63153674 13.84765625 20.375 C19.05444113 29.75157906 19.05444113 29.75157906 19.765625 34.65234375 C17.765625 35.65234375 15.765625 36.65234375 13.765625 37.65234375 C13.023125 38.06484375 12.280625 38.47734375 11.515625 38.90234375 C10.938125 39.14984375 10.360625 39.39734375 9.765625 39.65234375 C7.07853697 38.30879973 6.86544537 36.58587136 5.77832031 33.90771484 C3.11967783 27.98665909 -0.42030563 22.44754855 -3.671875 16.83789062 C-4.24164063 15.84466797 -4.81140625 14.85144531 -5.3984375 13.828125 C-6.17888428 12.4810144 -6.17888428 12.4810144 -6.97509766 11.10668945 C-8.09879647 8.91658782 -8.77157508 7.05631278 -9.234375 4.65234375 C-8.16330383 3.78285058 -7.07691556 2.9322017 -5.984375 2.08984375 C-5.38109375 1.61417969 -4.7778125 1.13851562 -4.15625 0.6484375 C-2.234375 -0.34765625 -2.234375 -0.34765625 0 0 Z " fill="#DF5050" transform="translate(173.234375,130.34765625)"/>
<path d="M0 0 C1.98 0.495 1.98 0.495 4 1 C4 1.99 4 2.98 4 4 C4.99 4.33 5.98 4.66 7 5 C8.60986328 7.32910156 8.60986328 7.32910156 10.3203125 10.390625 C10.93777344 11.49277344 11.55523437 12.59492188 12.19140625 13.73046875 C12.50867676 14.30845215 12.82594727 14.88643555 13.15283203 15.48193359 C14.11707234 17.2355821 15.09949459 18.97919299 16.08203125 20.72265625 C21.28881613 30.09923531 21.28881613 30.09923531 22 35 C19.525 35.495 19.525 35.495 17 36 C12.31732043 28.59665744 7.80181285 21.09529971 3.4375 13.5 C2.98391113 12.73510254 2.53032227 11.97020508 2.06298828 11.18212891 C-1.05055662 5.68827954 -1.05055662 5.68827954 -0.77734375 1.96875 C-0.52082031 1.3190625 -0.26429688 0.669375 0 0 Z " fill="#BC4848" transform="translate(171,130)"/>
<path d="M0 0 C2.97 0.33 5.94 0.66 9 1 C9 2.65 9 4.3 9 6 C8.34 6 7.68 6 7 6 C6.67 8.97 6.34 11.94 6 15 C3.03 15 0.06 15 -3 15 C-2.88529863 13.24929483 -2.75780972 11.49942464 -2.625 9.75 C-2.55539063 8.77546875 -2.48578125 7.8009375 -2.4140625 6.796875 C-2 4 -2 4 0 0 Z " fill="#045B63" transform="translate(123,90)"/>
<path d="M0 0 C3.63 0 7.26 0 11 0 C11.33 3.96 11.66 7.92 12 12 C9.36 12.33 6.72 12.66 4 13 C0.88303339 8.66335081 0.44033187 5.19591612 0 0 Z " fill="#045D64" transform="translate(119,110)"/>
<path d="M0 0 C0.89203125 0.01804687 1.7840625 0.03609375 2.703125 0.0546875 C3.71632812 0.08949219 3.71632812 0.08949219 4.75 0.125 C5.08 0.785 5.41 1.445 5.75 2.125 C4.76 2.125 3.77 2.125 2.75 2.125 C2.75 3.115 2.75 4.105 2.75 5.125 C1.5125 5.2075 0.275 5.29 -1 5.375 C-4.00259699 5.75763183 -5.15972587 6.0601878 -7.6875 7.875 C-9.40096845 10.34239457 -9.92054081 12.1598673 -10.25 15.125 C-11.57 15.125 -12.89 15.125 -14.25 15.125 C-14.58 17.435 -14.91 19.745 -15.25 22.125 C-15.58 22.125 -15.91 22.125 -16.25 22.125 C-17.31266118 12.0044173 -17.31266118 12.0044173 -14.83203125 7.6171875 C-10.40142386 2.49695466 -6.9235282 -0.18219811 0 0 Z " fill="#4CD7B0" transform="translate(155.25,91.875)"/>
<path d="M0 0 C2.02734375 2.08203125 2.02734375 2.08203125 3.9375 4.8125 C7.02269895 8.95146709 9.13778659 11.29822531 14 13 C14 13.66 14 14.32 14 15 C7.0206757 14.44900071 -0.01570294 11.17861262 -5.125 6.375 C-7 4 -7 4 -7 1 C-4.38563342 -0.30718329 -2.90060968 -0.40202191 0 0 Z " fill="#046367" transform="translate(134,126)"/>
<path d="M0 0 C-0.69867188 0.62648438 -1.39734375 1.25296875 -2.1171875 1.8984375 C-3.02726563 2.71570313 -3.93734375 3.53296875 -4.875 4.375 C-5.77992188 5.18710938 -6.68484375 5.99921875 -7.6171875 6.8359375 C-9.10896183 8.19076205 -10.57505435 9.57505435 -12 11 C-15.125 11.125 -15.125 11.125 -18 11 C-18 7 -18 7 -16.4609375 5.3671875 C-6.35680774 -1.86086038 -6.35680774 -1.86086038 0 0 Z " fill="#046266" transform="translate(147,76)"/>
<path d="M0 0 C1.98 0 3.96 0 6 0 C6.50636607 1.74816858 7.00484619 3.49862263 7.5 5.25 C7.7784375 6.22453125 8.056875 7.1990625 8.34375 8.203125 C9 11 9 11 9 15 C7.02 15 5.04 15 3 15 C2 10 1 5 0 0 Z " fill="#045B63" transform="translate(176,90)"/>
<path d="M0 0 C1.98 0 3.96 0 6 0 C5.88512252 1.58409994 5.75765492 3.16728963 5.625 4.75 C5.55539063 5.63171875 5.48578125 6.5134375 5.4140625 7.421875 C5.00149945 9.99066382 4.28839043 11.75841015 3 14 C1.35 13.67 -0.3 13.34 -2 13 C-1.34 8.71 -0.68 4.42 0 0 Z " fill="#045E64" transform="translate(179,110)"/>
<path d="M0 0 C5 4 5 4 5.48828125 6.140625 C5.32552083 8.09375 5.16276042 10.046875 5 12 C3.35 12.33 1.7 12.66 0 13 C0 8.71 0 4.42 0 0 Z " fill="#045661" transform="translate(52,119)"/>
<path d="M0 0 C5.44208234 0.34013015 8.93668198 3.70296528 13 7 C12.67 7.99 12.34 8.98 12 10 C8 10 8 10 6.11328125 8.3203125 C5.51902344 7.59585938 4.92476562 6.87140625 4.3125 6.125 C3.71050781 5.40570313 3.10851562 4.68640625 2.48828125 3.9453125 C1 2 1 2 0 0 Z " fill="#046A6A" transform="translate(164,77)"/>
<path d="M0 0 C6.92307692 4.46153846 6.92307692 4.46153846 9 7 C9 7.66 9 8.32 9 9 C6.69 9 4.38 9 2 9 C0.14223235 5.86501708 -0.20140476 3.62528568 0 0 Z " fill="#0B6268" transform="translate(159,79)"/>
<path d="M0 0 C0 0.66 0 1.32 0 2 C-1.2375 2.0825 -2.475 2.165 -3.75 2.25 C-6.79016346 2.63136326 -7.86742295 2.89882278 -10.375 4.8125 C-11.86681428 6.82071153 -13.01601418 8.70403309 -14 11 C-14.33 11 -14.66 11 -15 11 C-15.3125 8.25 -15.3125 8.25 -15 5 C-10.28521049 0.28521049 -6.47955063 -0.12225567 0 0 Z " fill="#D2EFE7" transform="translate(158,95)"/>
<path d="M0 0 C-1.875 6.875 -1.875 6.875 -3 8 C-4.66617115 8.04063832 -6.33388095 8.042721 -8 8 C-6.48291727 4.46014029 -4.24676932 0 0 0 Z " fill="#056D6B" transform="translate(147,81)"/>
<path d="M0 0 C1.9375 0.6875 1.9375 0.6875 4 2 C4.75 4.625 4.75 4.625 5 7 C3.02 7 1.04 7 -1 7 C-0.67 4.69 -0.34 2.38 0 0 Z " fill="#056C6B" transform="translate(151,79)"/>
<path d="M0 0 C2.86724686 0.57344937 3.8614515 0.8614515 6 3 C6.1953125 5.3828125 6.1953125 5.3828125 6.125 8.125 C6.10695313 9.03507812 6.08890625 9.94515625 6.0703125 10.8828125 C6.04710937 11.58148438 6.02390625 12.28015625 6 13 C5.67 13 5.34 13 5 13 C4.87625 11.39125 4.87625 11.39125 4.75 9.75 C3.93299965 5.66499825 3.0438363 4.65108323 0 2 C0 1.34 0 0.68 0 0 Z " fill="#017B78" transform="translate(52,117)"/>
<path d="M0 0 C1.32 0 2.64 0 4 0 C3.6875 1.9375 3.6875 1.9375 3 4 C2.01 4.33 1.02 4.66 0 5 C0 5.66 0 6.32 0 7 C-0.66 7 -1.32 7 -2 7 C-1.125 1.125 -1.125 1.125 0 0 Z " fill="#127372" transform="translate(160,130)"/>
<path d="M0 0 C3.36591866 1.44253657 5.51047079 3.33264727 8 6 C7.67 6.99 7.34 7.98 7 9 C5.82737096 7.88121617 4.66204862 6.75476949 3.5 5.625 C2.8503125 4.99851563 2.200625 4.37203125 1.53125 3.7265625 C0 2 0 2 0 0 Z " fill="#116C6E" transform="translate(138,125)"/>
<path d="M0 0 C1.65 0 3.3 0 5 0 C4.38722388 2.96175123 3.74627478 4.38058783 2 7 C1.67 6.01 1.34 5.02 1 4 C0.34 3.34 -0.32 2.68 -1 2 C-0.67 1.34 -0.34 0.68 0 0 Z " fill="#176968" transform="translate(173,127)"/>
<path d="M0 0 C0.33 0.99 0.66 1.98 1 3 C-0.375 5.6875 -0.375 5.6875 -2 8 C-2.33 8 -2.66 8 -3 8 C-3.1875 5.125 -3.1875 5.125 -3 2 C-2.01 1.34 -1.02 0.68 0 0 Z " fill="#C4ECE1" transform="translate(146,98)"/>
</svg>
