<?xml version="1.0" encoding="UTF-8"?>
<svg version="1.1" xmlns="http://www.w3.org/2000/svg" width="220" height="220">
<path d="M0 0 C17.95723372 14.43336796 30.64598847 32.34225803 37.90625 54.3359375 C38.22384277 55.29234131 38.22384277 55.29234131 38.54785156 56.26806641 C47.40144667 84.46346951 42.3955262 115.23051966 29.09375 141.0234375 C14.78834815 166.13239804 -7.73687393 184.3052487 -35.09375 193.3359375 C-36.05015381 193.65353027 -36.05015381 193.65353027 -37.02587891 193.97753906 C-65.22128201 202.83113417 -95.98833216 197.8252137 -121.78125 184.5234375 C-146.89021054 170.21803565 -165.0630612 147.69281357 -174.09375 120.3359375 C-174.30547852 119.69833496 -174.51720703 119.06073242 -174.73535156 118.40380859 C-183.58894667 90.20840549 -178.5830262 59.44135534 -165.28125 33.6484375 C-150.97584815 8.53947696 -128.45062607 -9.6333737 -101.09375 -18.6640625 C-100.45614746 -18.87579102 -99.81854492 -19.08751953 -99.16162109 -19.30566406 C-65.39055284 -29.91006519 -27.53136748 -21.35809693 0 0 Z " fill="#F87133" transform="translate(178.09375,22.6640625)"/>
<path d="M0 0 C0.99 0 1.98 0 3 0 C3 0.66 3 1.32 3 2 C3.71800781 2.24105469 4.43601562 2.48210938 5.17578125 2.73046875 C15.16575579 7.22112121 25.41513108 19.52542637 30.1484375 29.39453125 C30.80780402 31.24855647 31.40743852 33.12355532 32 35 C33.30581356 37.0180755 34.63636792 39.02053408 36 41 C40.69582985 51.42474226 40.19804123 62.65765816 39.5703125 73.8203125 C39.38017488 80.80354883 40.47288368 85.01026788 44.50097656 90.75927734 C46.97450969 94.45668565 48.26336517 97.74958143 48.1953125 102.20703125 C48.18564453 103.33334961 48.18564453 103.33334961 48.17578125 104.48242188 C48.15064453 105.63581055 48.15064453 105.63581055 48.125 106.8125 C48.11597656 107.60076172 48.10695312 108.38902344 48.09765625 109.20117188 C48.07422504 111.13424666 48.03835838 113.0671638 48 115 C47.34 115 46.68 115 46 115 C44.73828125 113.57421875 44.73828125 113.57421875 43.3125 111.6875 C39.85253386 107.55894137 36.49383473 105.4989325 31.04248047 104.72045898 C24.12898675 104.39531547 19.47699309 106.90238033 13.4375 110 C-1.01290133 116.84815671 -17.06108626 117.70994869 -32.44140625 112.93359375 C-33.28574219 112.62550781 -34.13007812 112.31742187 -35 112 C-36.56041016 111.46052734 -36.56041016 111.46052734 -38.15234375 110.91015625 C-40.78460273 109.97741379 -43.39647738 109.00963377 -46 108 C-46 107.34 -46 106.68 -46 106 C-47.08474609 105.83564453 -47.08474609 105.83564453 -48.19140625 105.66796875 C-61.40108342 102.526307 -73.00416668 88.31672127 -81 78 C-81 77.34 -81 76.68 -81 76 C-77.66666667 77.33333333 -74.33333333 78.66666667 -71 80 C-71 80.66 -71 81.32 -71 82 C-69.989375 82.268125 -68.97875 82.53625 -67.9375 82.8125 C-65.36129682 83.53753922 -63.20820296 84.36544479 -60.75 85.5 C-47.49050227 91.21580099 -31.01131432 89.76198621 -17 88 C-17 87.34 -17 86.68 -17 86 C-14.09399739 84.74335022 -12.20395416 84 -9 84 C-12.93552008 80.0046241 -17.00770482 76.18181408 -21.125 72.375 C-38.06352007 56.62565685 -53.19954305 39.58405092 -67 21 C-66.67 20.34 -66.34 19.68 -66 19 C-65.28199219 19.63164063 -64.56398438 20.26328125 -63.82421875 20.9140625 C-57.13877797 26.71949221 -50.24723561 32.17610363 -43.125 37.4375 C-42.32924561 38.02805176 -41.53349121 38.61860352 -40.71362305 39.22705078 C-36.28015633 42.47308957 -31.83010364 45.37886376 -27 48 C-27 48.66 -27 49.32 -27 50 C-24.1575146 51.57273568 -24.1575146 51.57273568 -21 52 C-21.64066406 51.31035156 -22.28132813 50.62070313 -22.94140625 49.91015625 C-28.26000012 44.13183296 -33.26586883 38.27222442 -38 32 C-38.82422173 30.9312885 -39.64984048 29.86365353 -40.4765625 28.796875 C-44.75641585 23.2707778 -48.99966942 17.73380716 -53 12 C-52.67 11.34 -52.34 10.68 -52 10 C-51.40481567 10.61089478 -51.40481567 10.61089478 -50.79760742 11.23413086 C-42.86964522 19.34281995 -34.93858004 27.00750721 -26 34 C-24.20569276 35.4759624 -22.41407377 36.95519824 -20.625 38.4375 C-10.77973122 46.46216431 -1.19237441 53.90973501 10 60 C12.62795743 52.11612772 12.25803145 44.19808591 12 36 C11.97035156 34.88238281 11.94070312 33.76476562 11.91015625 32.61328125 C11.55743188 25.89431218 10.04896095 20.94762101 7 15 C6.30562692 13.3987964 5.6180437 11.79463012 4.9375 10.1875 C3.58800076 7.12579025 2.09828239 4.62285299 0 2 C0 1.34 0 0.68 0 0 Z " fill="#FDFAF9" transform="translate(119,42)"/>
<path d="M0 0 C2.31 0.33 4.62 0.66 7 1 C7 2.32 7 3.64 7 5 C6.01 5 5.02 5 4 5 C4 6.32 4 7.64 4 9 C3.34 9 2.68 9 2 9 C2 9.66 2 10.32 2 11 C2.66 11 3.32 11 4 11 C4.495 16.94 4.495 16.94 5 23 C7.475 23.99 7.475 23.99 10 25 C10 24.01 10 23.02 10 22 C9.34 22 8.68 22 8 22 C8 18.7 8 15.4 8 12 C8.99 12 9.98 12 11 12 C11.33 10.35 11.66 8.7 12 7 C14 9 14 9 14.1875 12.9375 C14.16190316 15.67636155 13.88664156 17.34007532 13 20 C13.66 20 14.32 20 15 20 C15.495 21.485 15.495 21.485 16 23 C16.55171875 22.67257813 17.1034375 22.34515625 17.671875 22.0078125 C20.38780923 20.83212285 22.30551759 20.79751362 25.25 20.875 C26.14203125 20.89304688 27.0340625 20.91109375 27.953125 20.9296875 C28.96632812 20.96449219 28.96632812 20.96449219 30 21 C30 22.32 30 23.64 30 25 C31.32 25 32.64 25 34 25 C34 23.68 34 22.36 34 21 C34.66 21 35.32 21 36 21 C36 19.68 36 18.36 36 17 C35.34 17 34.68 17 34 17 C33.91913853 15.20906809 33.86087298 13.41710372 33.8125 11.625 C33.76029297 10.12839844 33.76029297 10.12839844 33.70703125 8.6015625 C33.85205078 7.31378906 33.85205078 7.31378906 34 6 C34.99 5.34 35.98 4.68 37 4 C37 7 37 7 36 9 C35.66666667 12 35.66666667 12 36 15 C36.99 15.66 37.98 16.32 39 17 C39.36328125 19.2421875 39.36328125 19.2421875 39.3125 21.875 C39.30863281 22.73867187 39.30476563 23.60234375 39.30078125 24.4921875 C38.97212932 27.23237635 38.61625878 28.75916924 37 31 C32.92032926 33.27825769 28.44698623 34.6061025 24 36 C22.74316406 36.39832031 21.48632812 36.79664063 20.19140625 37.20703125 C-4.64311275 44.20978806 -31.57403111 41.09882758 -55 31 C-54.34 30.67 -53.68 30.34 -53 30 C-53.33 29.01 -53.66 28.02 -54 27 C-50.83759418 24.89172945 -49.49342531 24.66182535 -45.8125 24.375 C-44.91144531 24.30023438 -44.01039062 24.22546875 -43.08203125 24.1484375 C-42.39496094 24.09945312 -41.70789063 24.05046875 -41 24 C-40.34 21.36 -39.68 18.72 -39 16 C-39.99 15.67 -40.98 15.34 -42 15 C-42 14.34 -42 13.68 -42 13 C-44.64 12.67 -47.28 12.34 -50 12 C-46.91111478 9.94074319 -46.29064073 9.7609626 -42.8125 9.875 C-40.9253125 9.936875 -40.9253125 9.936875 -39 10 C-38.67 8.68 -38.34 7.36 -38 6 C-33 19.18181818 -33 19.18181818 -33 24 C-32.01 24 -31.02 24 -30 24 C-29.01 21.03 -28.02 18.06 -27 15 C-26.34 15.33 -25.68 15.66 -25 16 C-24.40644386 18.64860427 -24.25790731 21.29197322 -24 24 C-22.68 24 -21.36 24 -20 24 C-19.814375 22.515 -19.814375 22.515 -19.625 21 C-19.04805273 16.91119976 -18.05036346 12.99138113 -17 9 C-17.66 9 -18.32 9 -19 9 C-18.67 6.69 -18.34 4.38 -18 2 C-17.34 2 -16.68 2 -16 2 C-15.7525 2.61875 -15.505 3.2375 -15.25 3.875 C-13.79371361 6.35068687 -12.62187494 6.95125002 -10 8 C-10.99 8.66 -11.98 9.32 -13 10 C-13.38411275 12.609621 -13.60293197 15.0058074 -13.6875 17.625 C-13.72166016 18.33140625 -13.75582031 19.0378125 -13.79101562 19.765625 C-13.87351308 21.50985688 -13.93843335 23.25490395 -14 25 C-12.68 25 -11.36 25 -10 25 C-10 20.38 -10 15.76 -10 11 C-9.01 11.33 -8.02 11.66 -7 12 C-6.505 17.94 -6.505 17.94 -6 24 C-5.01 24.33 -4.02 24.66 -3 25 C-3 20.38 -3 15.76 -3 11 C-2.01 11 -1.02 11 0 11 C0 10.34 0 9.68 0 9 C-0.99 9 -1.98 9 -3 9 C-3 8.34 -3 7.68 -3 7 C-1.68 7 -0.36 7 1 7 C0.505 3.535 0.505 3.535 0 0 Z " fill="#FB4729" transform="translate(119,180)"/>
<path d="M0 0 C0.99 0.33 1.98 0.66 3 1 C3.71530897 2.64637642 4.37651682 4.31670236 5 6 C6.35077424 8.07488324 6.35077424 8.07488324 7.94140625 10.0390625 C8.52067871 10.77906494 9.09995117 11.51906738 9.69677734 12.28149414 C10.31246582 13.05485107 10.9281543 13.82820801 11.5625 14.625 C12.50923584 15.82660767 12.50923584 15.82660767 13.47509766 17.05249023 C15.30916441 19.37447028 17.15225949 21.68889261 19 24 C19.46486816 24.58249512 19.92973633 25.16499023 20.40869141 25.76513672 C25.41455107 32.01702229 30.62240185 38.06559332 36 44 C35.01 44.495 35.01 44.495 34 45 C31.96166576 43.7260411 29.96147874 42.38938077 28 41 C28 40.34 28 39.68 28 39 C27.41984131 38.88769043 26.83968262 38.77538086 26.24194336 38.65966797 C23.77345735 37.93334224 22.21088542 36.9478036 20.12890625 35.4453125 C19.39559082 34.91784424 18.66227539 34.39037598 17.90673828 33.84692383 C17.13313965 33.27868896 16.35954102 32.7104541 15.5625 32.125 C14.76569824 31.54580811 13.96889648 30.96661621 13.14794922 30.36987305 C7.58387291 26.28139916 2.23136595 22.0040241 -2.93920898 17.42822266 C-5.49424225 15.18054574 -7.85469916 13.3341442 -11 12 C-11 13.32 -11 14.64 -11 16 C-14.67230705 12.92000054 -15.56802365 10.7517398 -16 6 C-15.01 6 -14.02 6 -13 6 C-12.67 6.66 -12.34 7.32 -12 8 C-10.906875 7.979375 -9.81375 7.95875 -8.6875 7.9375 C-5 8 -5 8 -2 9 C-1.67 7.35 -1.34 5.7 -1 4 C-1.66 4 -2.32 4 -3 4 C-2.67 3.01 -2.34 2.02 -2 1 C-1.34 0.67 -0.68 0.34 0 0 Z " fill="#F4803E" transform="translate(64,51)"/>
<path d="M0 0 C3.95214546 3.27943985 7.66669013 6.63234392 11.25 10.3125 C16.17731213 15.29827176 21.52475037 19.63480098 27 24 C29.00267438 25.62170291 31.00274314 27.24662963 33 28.875 C33.886875 29.59429687 34.77375 30.31359375 35.6875 31.0546875 C37.56384007 32.6330952 39.30766759 34.22973123 41 36 C40.34 36 39.68 36 39 36 C39 36.66 39 37.32 39 38 C37.35 38 35.7 38 34 38 C34.495 39.98 34.495 39.98 35 42 C32 42 32 42 29.765625 39.91015625 C28.93546875 38.97042969 28.1053125 38.03070313 27.25 37.0625 C26.80462891 36.55960449 26.35925781 36.05670898 25.90039062 35.53857422 C22.06668534 31.16964385 18.49970358 26.63673808 15 22 C14.17577827 20.9312885 13.35015952 19.86365353 12.5234375 18.796875 C0 2.63139375 0 2.63139375 0 0 Z " fill="#FAF5F1" transform="translate(66,52)"/>
<path d="M0 0 C4.29700138 2.74956933 8.1644384 5.75875606 12 9.125 C17.22381155 13.64067958 22.63801349 17.74348095 28.33007812 21.65087891 C31.53289683 23.8661307 34.34370585 26.14886765 37 29 C35.35 29.99 33.7 30.98 32 32 C32.495 35.96 32.495 35.96 33 40 C21.16311442 30.76145516 12.23397259 17.72004213 3 6 C2.43023437 5.28714844 1.86046875 4.57429688 1.2734375 3.83984375 C0 2 0 2 0 0 Z " fill="#FBF7F4" transform="translate(52,61)"/>
<path d="M0 0 C1.39040505 1.25763779 2.73654565 2.56560825 4.0390625 3.9140625 C4.77979004 4.67138672 5.52051758 5.42871094 6.28369141 6.20898438 C7.44263916 7.40491211 7.44263916 7.40491211 8.625 8.625 C14.55883181 14.67555898 20.46169417 20.34939018 27.2265625 25.46875 C27.81179687 25.9740625 28.39703125 26.479375 29 27 C29 27.66 29 28.32 29 29 C25.91190305 30.76462683 24.76687864 31 21 31 C21 31.66 21 32.32 21 33 C18.03 33 15.06 33 12 33 C12.33 30.69 12.66 28.38 13 26 C14.32 25.67 15.64 25.34 17 25 C17 23.35 17 21.7 17 20 C16.01 19.67 15.02 19.34 14 19 C14 18.34 14 17.68 14 17 C12.68 17 11.36 17 10 17 C8.65835921 16.7018576 7.32148827 16.37756808 6 16 C4.875 12.25 4.875 12.25 6 10 C4.35 10.33 2.7 10.66 1 11 C1 10.34 1 9.68 1 9 C0.01 9.33 -0.98 9.66 -2 10 C-2 9.34 -2 8.68 -2 8 C-2.66 8 -3.32 8 -4 8 C-4 5.69 -4 3.38 -4 1 C-5.98 1 -7.96 1 -10 1 C-9.67 0.01 -9.34 -0.98 -9 -2 C-5.19981111 -3.90009445 -3.28962775 -2.20723014 0 0 Z " fill="#DC562E" transform="translate(81,97)"/>
<path d="M0 0 C6.28519907 9.4277986 5.67198848 22.06898738 5 33 C4.28465988 35.994447 3.38220716 38.23558569 2 41 C-3.47297724 39.56599511 -7.25842467 36.92263925 -11.6875 33.5625 C-12.35072266 33.07201172 -13.01394531 32.58152344 -13.69726562 32.07617188 C-16.66501205 29.86156956 -19.42308068 27.66862116 -22 25 C-21 23 -21 23 -19 22 C-19 22.66 -19 23.32 -19 24 C-18.01 24 -17.02 24 -16 24 C-16 23.34 -16 22.68 -16 22 C-15.01 22 -14.02 22 -13 22 C-13 22.66 -13 23.32 -13 24 C-11.68 24.33 -10.36 24.66 -9 25 C-9.33 26.32 -9.66 27.64 -10 29 C-9.01 29.33 -8.02 29.66 -7 30 C-7 30.66 -7 31.32 -7 32 C-6.34 32 -5.68 32 -5 32 C-5 31.34 -5 30.68 -5 30 C-3.02 30.33 -1.04 30.66 1 31 C0.34 25.39 -0.32 19.78 -1 14 C-0.34 14 0.32 14 1 14 C0.67 9.38 0.34 4.76 0 0 Z " fill="#DA4C1F" transform="translate(127,61)"/>
<path d="M0 0 C1.32 0 2.64 0 4 0 C4.66 1.32 5.32 2.64 6 4 C6.66 3.01 7.32 2.02 8 1 C11.125 0.3125 11.125 0.3125 14 0 C14 0.66 14 1.32 14 2 C13.01 2 12.02 2 11 2 C11 2.99 11 3.98 11 5 C11.99 5 12.98 5 14 5 C14 5.66 14 6.32 14 7 C13.01 7 12.02 7 11 7 C11 11.62 11 16.24 11 21 C9.68 20.67 8.36 20.34 7 20 C7 16.04 7 12.08 7 8 C6.34 8 5.68 8 5 8 C4.67 12.29 4.34 16.58 4 21 C2.68 21 1.36 21 0 21 C-0.08076963 18.54101345 -0.14037143 16.08466258 -0.1875 13.625 C-0.21263672 12.92632812 -0.23777344 12.22765625 -0.26367188 11.5078125 C-0.29296875 9.4765625 -0.29296875 9.4765625 0 6 C0.99 5.34 1.98 4.68 3 4 C2.01 3.67 1.02 3.34 0 3 C0 2.01 0 1.02 0 0 Z " fill="#FC9E8B" transform="translate(105,184)"/>
<path d="M0 0 C4.87597436 1.39062085 7.32331666 4.29161 10.375 8.125 C11.33670818 9.29861274 12.29894791 10.4717901 13.26171875 11.64453125 C13.72626465 12.2163916 14.19081055 12.78825195 14.66943359 13.37744141 C16.46238187 15.56385135 18.31785752 17.69154101 20.1875 19.8125 C21.01314453 20.75029297 21.01314453 20.75029297 21.85546875 21.70703125 C22.23316406 22.13371094 22.61085938 22.56039062 23 23 C22.34 23.33 21.68 23.66 21 24 C18.96166576 22.7260411 16.96147874 21.38938077 15 20 C15 19.34 15 18.68 15 18 C14.46890625 17.92394531 13.9378125 17.84789063 13.390625 17.76953125 C10.06646955 16.69950082 7.51424996 14.75407443 4.75 12.6875 C3.91855469 12.1006543 3.91855469 12.1006543 3.0703125 11.50195312 C1.484375 10.32421875 1.484375 10.32421875 -1 8 C-1 4.88742431 -0.82638376 2.89234315 0 0 Z " fill="#EC743D" transform="translate(77,72)"/>
<path d="M0 0 C1.65 0 3.3 0 5 0 C5 4.29 5 8.58 5 13 C5.99 13 6.98 13 8 13 C8 13.66 8 14.32 8 15 C7.01 15 6.02 15 5 15 C5 16.32 5 17.64 5 19 C4.34 19 3.68 19 3 19 C3 17.68 3 16.36 3 15 C-0.3 15 -3.6 15 -7 15 C-6.40563232 11.07292782 -5.22704839 8.12695274 -3.25 4.6875 C-2.51523438 3.36298828 -2.51523438 3.36298828 -1.765625 2.01171875 C-0.89164063 1.01591797 -0.89164063 1.01591797 0 0 Z " fill="#FCDBD2" transform="translate(147,185)"/>
<path d="M0 0 C2.4375 1.375 2.4375 1.375 4 3 C4 3.66 4 4.32 4 5 C3.1646875 4.505 3.1646875 4.505 2.3125 4 C-0.30284522 2.8690399 -2.1806646 2.84337026 -5 3 C-5.33 4.32 -5.66 5.64 -6 7 C-4.1128125 7.4021875 -4.1128125 7.4021875 -2.1875 7.8125 C0.23856525 8.43082459 1.89556895 8.93146712 4 10.3125 C5.44956113 12.7586344 5.477189 14.20503583 5 17 C3.5 19.3125 3.5 19.3125 1 21 C-2.59789922 21.65153105 -5.84475103 21.75813214 -9 19.6875 C-10 18 -10 18 -10 15 C-9.01 15 -8.02 15 -7 15 C-6.67 15.66 -6.34 16.32 -6 17 C-3.69 17 -1.38 17 1 17 C0.67 15.68 0.34 14.36 0 13 C-1.093125 12.731875 -2.18625 12.46375 -3.3125 12.1875 C-8.39370079 10.5511811 -8.39370079 10.5511811 -10 8 C-10.42317323 5.17884512 -10.38718434 3.66049093 -8.9375 1.1875 C-5.89729821 -0.67584949 -3.48171989 -0.36649683 0 0 Z " fill="#FBC9BD" transform="translate(75,184)"/>
<path d="M0 0 C0.99 0 1.98 0 3 0 C3.66 2.64 4.32 5.28 5 8 C6.32 5.36 7.64 2.72 9 0 C9.66 0 10.32 0 11 0 C10.44854729 5.23880078 9.57077907 9.97350697 8 15 C6.68 15 5.36 15 4 15 C3.34 12.36 2.68 9.72 2 7 C0.68 9.64 -0.64 12.28 -2 15 C-2.99 15 -3.98 15 -5 15 C-5.50692692 13.4188708 -6.00526443 11.83498617 -6.5 10.25 C-6.7784375 9.36828125 -7.056875 8.4865625 -7.34375 7.578125 C-8 5 -8 5 -8 1 C-7.01 1 -6.02 1 -5 1 C-4.34 3.64 -3.68 6.28 -3 9 C-2.01 6.03 -1.02 3.06 0 0 Z " fill="#FACDC2" transform="translate(91,189)"/>
<path d="M0 0 C1.45792884 -0.05399736 2.91642712 -0.09279177 4.375 -0.125 C5.18710938 -0.14820313 5.99921875 -0.17140625 6.8359375 -0.1953125 C9 0 9 0 11 2 C11.33 2 11.66 2 12 2 C12 3.65 12 5.3 12 7 C10.94039062 6.90460938 9.88078125 6.80921875 8.7890625 6.7109375 C7.40108691 6.59839894 6.01306339 6.48645035 4.625 6.375 C3.92632812 6.31054688 3.22765625 6.24609375 2.5078125 6.1796875 C0.67630889 6.03880261 -1.16312748 6.01238341 -3 6 C-5.46278801 8.46278801 -5.99771255 10.70676982 -7 14 C-7.99 13.67 -8.98 13.34 -10 13 C-10 12.01 -10 11.02 -10 10 C-9.34 9.67 -8.68 9.34 -8 9 C-8 6.69 -8 4.38 -8 2 C-5.36 2.33 -2.72 2.66 0 3 C0 2.01 0 1.02 0 0 Z " fill="#FA542E" transform="translate(71,179)"/>
<path d="M0 0 C2.6875 1.1875 2.6875 1.1875 3.625 3.25 C3.645625 3.889375 3.66625 4.52875 3.6875 5.1875 C2.6875 6.1875 2.6875 6.1875 -0.875 6.25 C-2.009375 6.229375 -3.14375 6.20875 -4.3125 6.1875 C-4.6425 5.1975 -4.9725 4.2075 -5.3125 3.1875 C-6.3025 3.1875 -7.2925 3.1875 -8.3125 3.1875 C-7.9825 5.1675 -7.6525 7.1475 -7.3125 9.1875 C-8.3025 9.5175 -9.2925 9.8475 -10.3125 10.1875 C-10.3125 8.8675 -10.3125 7.5475 -10.3125 6.1875 C-10.9725 6.1875 -11.6325 6.1875 -12.3125 6.1875 C-12.065 5.2903125 -12.065 5.2903125 -11.8125 4.375 C-11.2010876 2.07405664 -11.2010876 2.07405664 -11.3125 -0.8125 C-7.67600381 -2.63074809 -3.79771638 -0.93151534 0 0 Z " fill="#F95131" transform="translate(73.3125,195.8125)"/>
<path d="M0 0 C2 1 2 1 3.10546875 3.80078125 C3.46253906 4.95964844 3.81960937 6.11851562 4.1875 7.3125 C4.55230469 8.46363281 4.91710937 9.61476562 5.29296875 10.80078125 C5.95478247 13.79539693 6.08640853 15.19748119 5 18 C4.34 18 3.68 18 3 18 C3 17.34 3 16.68 3 16 C1.35 16.66 -0.3 17.32 -2 18 C-1.34 15.36 -0.68 12.72 0 10 C-0.99 9.67 -1.98 9.34 -3 9 C-3 8.34 -3 7.68 -3 7 C-5.64 6.67 -8.28 6.34 -11 6 C-7.91111478 3.94074319 -7.29064073 3.7609626 -3.8125 3.875 C-1.9253125 3.936875 -1.9253125 3.936875 0 4 C0 2.68 0 1.36 0 0 Z " fill="#FA5331" transform="translate(80,186)"/>
<path d="M0 0 C5.66340319 4.69941967 10.84191625 9.75514475 16 15 C17.01964976 16.02201554 18.0402197 17.04311568 19.0625 18.0625 C19.701875 18.701875 20.34125 19.34125 21 20 C18.525 21.485 18.525 21.485 16 23 C14.26883192 20.81405921 12.54003837 18.62630663 10.8125 16.4375 C10.32974609 15.82841797 9.84699219 15.21933594 9.34960938 14.59179688 C0 2.73222525 0 2.73222525 0 0 Z " fill="#FAF2ED" transform="translate(66,52)"/>
<path d="M0 0 C0.99 0 1.98 0 3 0 C3 0.66 3 1.32 3 2 C3.680625 2.20625 4.36125 2.4125 5.0625 2.625 C8.97009851 4.45408866 11.83857939 7.10279034 15 10 C14.01 10.495 14.01 10.495 13 11 C12.27840576 12.64363134 11.60648579 14.31050386 11 16 C9.12890625 15.76953125 9.12890625 15.76953125 7 15 C5.83984375 13.07421875 5.83984375 13.07421875 4.9375 10.6875 C3.60841646 7.37792439 2.23891558 4.79864448 0 2 C0 1.34 0 0.68 0 0 Z " fill="#FAEEE6" transform="translate(119,42)"/>
<path d="M0 0 C0.309375 0.639375 0.61875 1.27875 0.9375 1.9375 C1.8345163 3.93610821 1.8345163 3.93610821 3 5 C2.82364548 7.69082872 2.38164079 10.32851446 2 13 C2.66 13.33 3.32 13.66 4 14 C3.01 16.97 2.02 19.94 1 23 C0.34 23 -0.32 23 -1 23 C-2.59412284 19.81175432 -2.10174735 16.37103338 -2.0625 12.875 C-2.05798828 12.12089844 -2.05347656 11.36679688 -2.04882812 10.58984375 C-2.03703499 8.72652873 -2.01909942 6.86325445 -2 5 C-1.34 5 -0.68 5 0 5 C0 3.35 0 1.7 0 0 Z " fill="#FC5F30" transform="translate(170,139)"/>
<path d="M0 0 C1.64666203 0.1135629 3.29236082 0.24117381 4.9375 0.375 C5.85402344 0.44460937 6.77054688 0.51421875 7.71484375 0.5859375 C8.84599609 0.79089844 8.84599609 0.79089844 10 1 C10.33 1.66 10.66 2.32 11 3 C10.34 3 9.68 3 9 3 C9 3.66 9 4.32 9 5 C13.41522109 3.73025028 13.41522109 3.73025028 17 1 C17.66 3.31 18.32 5.62 19 8 C19.86625 8.1546875 19.86625 8.1546875 20.75 8.3125 C23.348115 9.10636847 24.89545449 10.30278588 27 12 C27.99 12.66 28.98 13.32 30 14 C25.13922426 13.52345336 22.08294274 12.61727099 18 10 C16.01548229 9.28856912 14.01797888 8.61008664 12 8 C12 7.34 12 6.68 12 6 C10.9171875 5.814375 10.9171875 5.814375 9.8125 5.625 C6.30921405 4.84649201 3.20312233 3.60156117 0 2 C0 1.34 0 0.68 0 0 Z " fill="#EE7B4E" transform="translate(36,116)"/>
<path d="M0 0 C2.31 0.33 4.62 0.66 7 1 C7 2.32 7 3.64 7 5 C6.01 5 5.02 5 4 5 C4 6.32 4 7.64 4 9 C3.34 9 2.68 9 2 9 C2 9.66 2 10.32 2 11 C2.66 11.33 3.32 11.66 4 12 C3.34 12 2.68 12 2 12 C2 12.66 2 13.32 2 14 C0.68 14.33 -0.64 14.66 -2 15 C-2 18.3 -2 21.6 -2 25 C-2.33 25 -2.66 25 -3 25 C-3 20.38 -3 15.76 -3 11 C-2.01 11 -1.02 11 0 11 C0 10.34 0 9.68 0 9 C-0.99 9 -1.98 9 -3 9 C-3 8.34 -3 7.68 -3 7 C-1.68 7 -0.36 7 1 7 C0.67 4.69 0.34 2.38 0 0 Z " fill="#FA512B" transform="translate(119,180)"/>
<path d="M0 0 C5 2 5 2 10 4 C10 4.66 10 5.32 10 6 C12.31 6.66 14.62 7.32 17 8 C16.01 8.33 15.02 8.66 14 9 C13.26676204 11.01508358 13.26676204 11.01508358 13 13 C10 13 10 13 7.51953125 10.6640625 C6.60862148 9.65873726 5.70656694 8.64533316 4.8125 7.625 C4.34908203 7.11710937 3.88566406 6.60921875 3.40820312 6.0859375 C0 2.27115933 0 2.27115933 0 0 Z " fill="#FAF7F5" transform="translate(38,118)"/>
<path d="M0 0 C1.134375 0.020625 2.26875 0.04125 3.4375 0.0625 C4.0975 1.7125 4.7575 3.3625 5.4375 5.0625 C4.57125 5.041875 3.705 5.02125 2.8125 5 C-2.3239611 6.61703405 -3.98603705 10.53998525 -6.5625 15.0625 C-7.43633267 11.89567783 -7.58126069 10.21139667 -6.5625 7.0625 C-6.2325 6.010625 -5.9025 4.95875 -5.5625 3.875 C-4.2109896 0.07387701 -4.2109896 0.07387701 0 0 Z " fill="#F9532C" transform="translate(148.5625,178.9375)"/>
<path d="M0 0 C2.10945378 2.24908666 4.07817592 4.58946465 6 7 C5.05125 7.309375 4.1025 7.61875 3.125 7.9375 C0.13919592 8.87394742 0.13919592 8.87394742 -2 10 C-2 9.34 -2 8.68 -2 8 C-2.66 8 -3.32 8 -4 8 C-4 5.69 -4 3.38 -4 1 C-5.98 1 -7.96 1 -10 1 C-9.67 0.01 -9.34 -0.98 -9 -2 C-5.21193212 -3.89403394 -3.17376601 -2.41810744 0 0 Z " fill="#E55D2C" transform="translate(81,97)"/>
<path d="M0 0 C1.32 0 2.64 0 4 0 C4 1.65 4 3.3 4 5 C7.3 5 10.6 5 14 5 C14 6.32 14 7.64 14 9 C14.66 9 15.32 9 16 9 C16 7.68 16 6.36 16 5 C16.99 5.33 17.98 5.66 19 6 C18.34 6 17.68 6 17 6 C17 7.32 17 8.64 17 10 C15.68 10 14.36 10 13 10 C13 8.68 13 7.36 13 6 C10.87439563 6.30836232 8.74952935 6.62181614 6.625 6.9375 C5.44164062 7.11152344 4.25828125 7.28554687 3.0390625 7.46484375 C0.09297619 7.83462786 0.09297619 7.83462786 -2 9 C-2 7.68 -2 6.36 -2 5 C-2.66 5 -3.32 5 -4 5 C-3.67 3.68 -3.34 2.36 -3 1 C-2.01 1.33 -1.02 1.66 0 2 C0 1.34 0 0.68 0 0 Z " fill="#FA6346" transform="translate(136,195)"/>
<path d="M0 0 C0.66 0 1.32 0 2 0 C2 1.32 2 2.64 2 4 C2.99 4.33 3.98 4.66 5 5 C4.01 5 3.02 5 2 5 C2 8.63 2 12.26 2 16 C2.99 16 3.98 16 5 16 C5 16.99 5 17.98 5 19 C0.125 18.125 0.125 18.125 -1 17 C-1.07244053 14.98035801 -1.08377188 12.95832876 -1.0625 10.9375 C-1.05347656 9.83277344 -1.04445313 8.72804687 -1.03515625 7.58984375 C-1.02355469 6.73519531 -1.01195313 5.88054687 -1 5 C-1.66 4.67 -2.32 4.34 -3 4 C-2.01 4 -1.02 4 0 4 C0 2.68 0 1.36 0 0 Z " fill="#FCB8A8" transform="translate(124,186)"/>
<path d="M0 0 C0.99 0 1.98 0 3 0 C3.33 0.66 3.66 1.32 4 2 C5.093125 1.938125 6.18625 1.87625 7.3125 1.8125 C11 2 11 2 12.9375 3.5 C13.288125 3.995 13.63875 4.49 14 5 C13.67 5.99 13.34 6.98 13 8 C10.23723823 7.47731534 7.6739124 6.89130413 5 6 C5 7.32 5 8.64 5 10 C1.32769295 6.92000054 0.43197635 4.7517398 0 0 Z " fill="#F78740" transform="translate(48,57)"/>
<path d="M0 0 C1.4606285 2.64738916 2 3.89448334 2 7 C1.34 7 0.68 7 0 7 C-0.33 7.66 -0.66 8.32 -1 9 C-1.33 7.35 -1.66 5.7 -2 4 C-2.33 4.99 -2.66 5.98 -3 7 C-8.94 7.495 -8.94 7.495 -15 8 C-14 4 -14 4 -13 3 C-9.83379087 2.65770712 -8.39516153 2.74367901 -5.6875 4.5 C-4.8521875 5.2425 -4.8521875 5.2425 -4 6 C-4.66 4.68 -5.32 3.36 -6 2 C-4.35 2 -2.7 2 -1 2 C-0.67 1.34 -0.34 0.68 0 0 Z " fill="#FA6D4F" transform="translate(83,183)"/>
<path d="M0 0 C0.99 0.33 1.98 0.66 3 1 C3 4.3 3 7.6 3 11 C0.36 11.33 -2.28 11.66 -5 12 C-4.67 9.69 -4.34 7.38 -4 5 C-2.68 4.67 -1.36 4.34 0 4 C0 2.68 0 1.36 0 0 Z " fill="#DB481C" transform="translate(98,118)"/>
<path d="M0 0 C0.61875 0.66 1.2375 1.32 1.875 2 C3.75637427 4.2284549 3.75637427 4.2284549 6 4 C6 5.32 6 6.64 6 8 C6.99 8 7.98 8 9 8 C9.33 9.65 9.66 11.3 10 13 C9.34 13 8.68 13 8 13 C7.34 12.34 6.68 11.68 6 11 C4.35 11.66 2.7 12.32 1 13 C0.83052421 11.58366664 0.66454493 10.16691467 0.5 8.75 C0.4071875 7.96109375 0.314375 7.1721875 0.21875 6.359375 C0 4 0 4 0 0 Z " fill="#E6622C" transform="translate(117,47)"/>
<path d="M0 0 C1.65 0 3.3 0 5 0 C5 0.66 5 1.32 5 2 C6.98 1.34 8.96 0.68 11 0 C10.67 0.66 10.34 1.32 10 2 C10.66 2.66 11.32 3.32 12 4 C11.21625 4.433125 10.4325 4.86625 9.625 5.3125 C6.78301625 6.89220247 6.78301625 6.89220247 5 10 C4.566875 9.236875 4.13375 8.47375 3.6875 7.6875 C2.26313215 5.41906232 0.96739903 3.7800277 -1 2 C-0.67 1.34 -0.34 0.68 0 0 Z " fill="#FA512C" transform="translate(106,179)"/>
<path d="M0 0 C0.66 0.33 1.32 0.66 2 1 C2.625 3.0625 2.625 3.0625 3 5 C4.65 5.33 6.3 5.66 8 6 C8.33 7.32 8.66 8.64 9 10 C10.32 10.33 11.64 10.66 13 11 C13.33 12.65 13.66 14.3 14 16 C11.17131143 14.70396588 9.0298979 13.30810402 6.765625 11.1796875 C6.19199219 10.64472656 5.61835937 10.10976562 5.02734375 9.55859375 C4.44082031 9.00300781 3.85429688 8.44742188 3.25 7.875 C2.64800781 7.31167969 2.04601562 6.74835938 1.42578125 6.16796875 C-0.05334151 4.78275854 -1.52719641 3.3919271 -3 2 C-2.01 1.34 -1.02 0.68 0 0 Z " fill="#EC7B42" transform="translate(78,59)"/>
<path d="M0 0 C2.64 0 5.28 0 8 0 C8.66 1.32 9.32 2.64 10 4 C10.99 4 11.98 4 13 4 C13.99 4.66 14.98 5.32 16 6 C15.67 7.65 15.34 9.3 15 11 C14.44570312 10.57847656 13.89140625 10.15695313 13.3203125 9.72265625 C12.59585938 9.17480469 11.87140625 8.62695312 11.125 8.0625 C10.04605469 7.24458984 10.04605469 7.24458984 8.9453125 6.41015625 C7.05642921 4.96035376 7.05642921 4.96035376 5 4 C5 3.34 5 2.68 5 2 C3.68 2.33 2.36 2.66 1 3 C0.67 2.01 0.34 1.02 0 0 Z " fill="#F9994F" transform="translate(117,40)"/>
<path d="M0 0 C0.66 0.33 1.32 0.66 2 1 C2.59355614 3.64860427 2.74209269 6.29197322 3 9 C4.32 9.33 5.64 9.66 7 10 C5.35 10.66 3.7 11.32 2 12 C2 11.34 2 10.68 2 10 C1.236875 10.20625 0.47375 10.4125 -0.3125 10.625 C-3 11 -3 11 -6 9 C-5.01 9 -4.02 9 -3 9 C-2.01 6.03 -1.02 3.06 0 0 Z " fill="#F95134" transform="translate(92,195)"/>
<path d="M0 0 C1.32 0 2.64 0 4 0 C4 4.29 4 8.58 4 13 C4.99 13 5.98 13 7 13 C7 13.66 7 14.32 7 15 C6.01 15 5.02 15 4 15 C4 16.32 4 17.64 4 19 C3.34 19 2.68 19 2 19 C2 17.68 2 16.36 2 15 C0.68 14.67 -0.64 14.34 -2 14 C-1.01 13.67 -0.02 13.34 1 13 C1.33 9.37 1.66 5.74 2 2 C1.34 2 0.68 2 0 2 C0 1.34 0 0.68 0 0 Z " fill="#FBE9E6" transform="translate(148,185)"/>
<path d="M0 0 C0 0.33 0 0.66 0 1 C-1.216875 1.0825 -2.43375 1.165 -3.6875 1.25 C-7.91117266 1.76598095 -9.68954989 3.32011181 -13 6 C-17.88519875 7.97486758 -21.84984085 9.46477405 -27 8 C-24.20051177 6.63806234 -21.38376934 5.31614772 -18.5625 4 C-17.77939453 3.6184375 -16.99628906 3.236875 -16.18945312 2.84375 C-10.49627725 0.21973478 -6.26164605 -0.40114649 0 0 Z " fill="#FB8963" transform="translate(152,146)"/>
<path d="M0 0 C-0.33 0.99 -0.66 1.98 -1 3 C-5.97093824 2.58846263 -10.44508386 2.20399168 -15 0 C-10.42292156 -4.57707844 -4.86787693 -3.24525129 0 0 Z " fill="#DE4D20" transform="translate(73,127)"/>
<path d="M0 0 C3.125 0.375 3.125 0.375 5 2.5625 C6.147074 5.43018499 6.38656512 7.32340693 6.125 10.375 C4.805 10.045 3.485 9.715 2.125 9.375 C1 5.625 1 5.625 2.125 3.375 C0.475 3.705 -1.175 4.035 -2.875 4.375 C-3.205 3.385 -3.535 2.395 -3.875 1.375 C-2.875 0.375 -2.875 0.375 0 0 Z " fill="#DC4F23" transform="translate(84.875,103.625)"/>
<path d="M0 0 C1.98 0.66 3.96 1.32 6 2 C6 2.66 6 3.32 6 4 C6.66 4 7.32 4 8 4 C8 3.34 8 2.68 8 2 C9.65 2.33 11.3 2.66 13 3 C12.67 4.65 12.34 6.3 12 8 C10.35 8 8.7 8 7 8 C7 7.01 7 6.02 7 5 C5.576875 4.8453125 5.576875 4.8453125 4.125 4.6875 C1 4 1 4 -1 1 C-0.67 0.67 -0.34 0.34 0 0 Z " fill="#DA481B" transform="translate(114,89)"/>
<path d="M0 0 C0.33 0.99 0.66 1.98 1 3 C0.34 3 -0.32 3 -1 3 C-0.67 4.65 -0.34 6.3 0 8 C-0.99 8.33 -1.98 8.66 -3 9 C-5.31 6.69 -7.62 4.38 -10 2 C-6.00889681 0.0044484 -4.30013434 -0.19546065 0 0 Z " fill="#F6843D" transform="translate(77,51)"/>
<path d="M0 0 C0.66 0 1.32 0 2 0 C2 3.3 2 6.6 2 10 C-0.31 10 -2.62 10 -5 10 C-3.66749209 6.4124787 -2.169283 3.1635377 0 0 Z " fill="#FB6A4A" transform="translate(148,188)"/>
<path d="M0 0 C0 0.66 0 1.32 0 2 C-0.99 2 -1.98 2 -3 2 C-3 2.99 -3 3.98 -3 5 C-2.01 5 -1.02 5 0 5 C0 5.66 0 6.32 0 7 C-0.99 7.33 -1.98 7.66 -3 8 C-3.33 11.96 -3.66 15.92 -4 20 C-4.33 20 -4.66 20 -5 20 C-5.07347656 18.73542969 -5.07347656 18.73542969 -5.1484375 17.4453125 C-5.22320312 16.34960938 -5.29796875 15.25390625 -5.375 14.125 C-5.44460937 13.03445312 -5.51421875 11.94390625 -5.5859375 10.8203125 C-5.73253491 7.86953526 -5.73253491 7.86953526 -8 6 C-7.34 5.67 -6.68 5.34 -6 5 C-5.835 4.34 -5.67 3.68 -5.5 3 C-5.335 2.34 -5.17 1.68 -5 1 C-3 0 -3 0 0 0 Z " fill="#FAE5DD" transform="translate(119,184)"/>
<path d="M0 0 C-0.33 0.99 -0.66 1.98 -1 3 C-6.5049505 4.1260126 -6.5049505 4.1260126 -8.71875 3.5625 C-12.02421574 2.74745365 -15.36340857 2.63275716 -18.75 2.4375 C-19.44738281 2.39431641 -20.14476563 2.35113281 -20.86328125 2.30664062 C-22.57531922 2.20110404 -24.28763561 2.1001009 -26 2 C-26 1.67 -26 1.34 -26 1 C-22.60426181 0.83135681 -19.20839586 0.66543535 -15.8125 0.5 C-14.37293945 0.42845703 -14.37293945 0.42845703 -12.90429688 0.35546875 C-11.50727539 0.28779297 -11.50727539 0.28779297 -10.08203125 0.21875 C-9.22843018 0.17685547 -8.3748291 0.13496094 -7.49536133 0.09179688 C-4.99442835 -0.00020496 -2.50237795 -0.0156766 0 0 Z " fill="#F97449" transform="translate(125,156)"/>
<path d="M0 0 C3.36591866 1.44253657 5.51047079 3.33264727 8 6 C7.2575 5.896875 6.515 5.79375 5.75 5.6875 C2.74927133 5.7254586 2.74927133 5.7254586 0.6875 8.5 C-0.1478125 9.7375 -0.1478125 9.7375 -1 11 C-1.99 9.68 -2.98 8.36 -4 7 C-2.68 6.34 -1.36 5.68 0 5 C0 3.35 0 1.7 0 0 Z " fill="#FCEFE7" transform="translate(78,82)"/>
<path d="M0 0 C4.52615993 3.67832017 8.39424999 7.41086363 12 12 C11.34 12 10.68 12 10 12 C9.67 12.66 9.34 13.32 9 14 C7.49412261 12.04594482 5.99521356 10.08718716 4.5 8.125 C4.07074219 7.56941406 3.64148438 7.01382813 3.19921875 6.44140625 C0 2.2265625 0 2.2265625 0 0 Z " fill="#FCE7DD" transform="translate(66,52)"/>
<path d="M0 0 C0.33 0 0.66 0 1 0 C1.125 6.75 1.125 6.75 0 9 C-4.67105792 7.44298069 -8.08705685 4.91552627 -12 2 C-9.50907189 0.75453595 -8.58919267 1.2232422 -6 2 C-6 2.99 -6 3.98 -6 5 C-4.35 4.67 -2.7 4.34 -1 4 C-0.67 2.68 -0.34 1.36 0 0 Z " fill="#DC5E38" transform="translate(127,92)"/>
<path d="M0 0 C2.875 -0.1875 2.875 -0.1875 6 0 C6.66 0.99 7.32 1.98 8 3 C7.67 3.66 7.34 4.32 7 5 C7.66 5 8.32 5 9 5 C9 6.65 9 8.3 9 10 C5.73991357 6.83047153 2.77762123 3.60062011 0 0 Z " fill="#FB8C3F" transform="translate(133,51)"/>
<path d="M0 0 C3.85478218 -0.35858439 5.57759458 -0.2754818 8.875 1.875 C9.57625 2.57625 10.2775 3.2775 11 4 C11 4.66 11 5.32 11 6 C10.34 6 9.68 6 9 6 C9 5.34 9 4.68 9 4 C6.36 4.66 3.72 5.32 1 6 C1.33 5.01 1.66 4.02 2 3 C1.34 2.67 0.68 2.34 0 2 C0 1.34 0 0.68 0 0 Z " fill="#F86330" transform="translate(54,141)"/>
<path d="M0 0 C0.598125 0.639375 1.19625 1.27875 1.8125 1.9375 C3.90810337 4.20310389 3.90810337 4.20310389 7 5 C8.35335895 5.97272675 9.68662604 6.9739266 11 8 C11.99 8.66 12.98 9.32 14 10 C8.29290936 9.53411505 4.84060277 8.06242216 0 5 C0 4.34 0 3.68 0 3 C-0.99 3 -1.98 3 -3 3 C-3 2.34 -3 1.68 -3 1 C-2.01 0.67 -1.02 0.34 0 0 Z " fill="#E87345" transform="translate(52,120)"/>
<path d="M0 0 C3.45195767 1.4258086 5.1014256 3.09746334 7.25 6.125 C7.77078125 6.84945312 8.2915625 7.57390625 8.828125 8.3203125 C9.40820312 9.15175781 9.40820312 9.15175781 10 10 C7.0280615 8.87548273 4.66559313 7.77706209 2 6 C2 5.34 2 4.68 2 4 C0.68 3.67 -0.64 3.34 -2 3 C-1.34 2.67 -0.68 2.34 0 2 C0 1.34 0 0.68 0 0 Z " fill="#E8754E" transform="translate(90,86)"/>
<path d="M0 0 C3.73487777 0.4979837 5.81237635 0.87491756 9 3 C9 3.66 9 4.32 9 5 C6.36 5 3.72 5 1 5 C0.67 3.35 0.34 1.7 0 0 Z " fill="#FA5F2E" transform="translate(69,149)"/>
<path d="M0 0 C0.99 0.33 1.98 0.66 3 1 C3 2.32 3 3.64 3 5 C3.99 4.67 4.98 4.34 6 4 C6.66 4.33 7.32 4.66 8 5 C7.67 7.31 7.34 9.62 7 12 C0 3.55172414 0 3.55172414 0 0 Z " fill="#FC955A" transform="translate(148,71)"/>
<path d="M0 0 C4.2026393 2.63886654 7.56638098 5.36440339 11 9 C9.02 9.99 9.02 9.99 7 11 C5.82750647 9.54634731 4.66216184 8.08692581 3.5 6.625 C2.52546875 5.40683594 2.52546875 5.40683594 1.53125 4.1640625 C0 2 0 2 0 0 Z " fill="#FCEBE2" transform="translate(52,61)"/>
<path d="M0 0 C0.598125 0.350625 1.19625 0.70125 1.8125 1.0625 C1.1525 1.0625 0.4925 1.0625 -0.1875 1.0625 C-0.1875 1.7225 -0.1875 2.3825 -0.1875 3.0625 C-1.5075 3.3925 -2.8275 3.7225 -4.1875 4.0625 C-4.1875 7.3625 -4.1875 10.6625 -4.1875 14.0625 C-4.5175 14.0625 -4.8475 14.0625 -5.1875 14.0625 C-5.1875 9.4425 -5.1875 4.8225 -5.1875 0.0625 C-2.1875 -0.9375 -2.1875 -0.9375 0 0 Z " fill="#F95E40" transform="translate(121.1875,190.9375)"/>
<path d="M0 0 C0.66 0 1.32 0 2 0 C1.25 7.625 1.25 7.625 -1 11 C-1.99 10.67 -2.98 10.34 -4 10 C-2.68 6.7 -1.36 3.4 0 0 Z " fill="#FCB8AB" transform="translate(100,189)"/>
<path d="M0 0 C2.00720923 0.28674418 4.0085944 0.61866701 6 1 C7.25 8.625 7.25 8.625 5 12 C4.34 8.7 3.68 5.4 3 2 C1.68 1.67 0.36 1.34 -1 1 C-0.67 0.67 -0.34 0.34 0 0 Z " fill="#FA522E" transform="translate(91,187)"/>
<path d="M0 0 C1.2065625 0.0309375 1.2065625 0.0309375 2.4375 0.0625 C2.7675 1.3825 3.0975 2.7025 3.4375 4.0625 C0.7975 4.3925 -1.8425 4.7225 -4.5625 5.0625 C-3.43829114 0.08386076 -3.43829114 0.08386076 0 0 Z " fill="#FC6543" transform="translate(72.5625,185.9375)"/>
<path d="M0 0 C0.99 0 1.98 0 3 0 C3.33 0.66 3.66 1.32 4 2 C7.02934491 2.65772428 7.02934491 2.65772428 10 3 C10.33 3.99 10.66 4.98 11 6 C3.5577342 6.36601307 3.5577342 6.36601307 1 4.6875 C0 3 0 3 0 0 Z " fill="#FBBAB0" transform="translate(65,199)"/>
<path d="M0 0 C0.66 0 1.32 0 2 0 C2 1.32 2 2.64 2 4 C2.99 4.33 3.98 4.66 5 5 C4.01 5.33 3.02 5.66 2 6 C1.67 9.3 1.34 12.6 1 16 C0.67 16 0.34 16 0 16 C-0.07347656 14.95199219 -0.07347656 14.95199219 -0.1484375 13.8828125 C-0.26058594 12.51769531 -0.26058594 12.51769531 -0.375 11.125 C-0.44460937 10.22007812 -0.51421875 9.31515625 -0.5859375 8.3828125 C-0.79568132 5.82058097 -0.79568132 5.82058097 -3 4 C-2.01 4 -1.02 4 0 4 C0 2.68 0 1.36 0 0 Z " fill="#FBEDE6" transform="translate(124,186)"/>
<path d="M0 0 C1.65 0.33 3.3 0.66 5 1 C5.33 2.98 5.66 4.96 6 7 C3 7 3 7 0.8125 5 C0.214375 4.34 -0.38375 3.68 -1 3 C-0.67 2.01 -0.34 1.02 0 0 Z " fill="#F8853C" transform="translate(144,61)"/>
<path d="M0 0 C2.3125 0.1875 2.3125 0.1875 5 1 C7.20970874 3.89548041 8 5.33157745 8 9 C7.34 9 6.68 9 6 9 C6 7.68 6 6.36 6 5 C5.34 5 4.68 5 4 5 C3.67 5.99 3.34 6.98 3 8 C2.690625 7.05125 2.38125 6.1025 2.0625 5.125 C1.12605258 2.13919592 1.12605258 2.13919592 0 0 Z " fill="#E8763F" transform="translate(117,46)"/>
<path d="M0 0 C1.75 0.125 1.75 0.125 4 1 C6.25 4.0625 6.25 4.0625 8 7 C6.68 7 5.36 7 4 7 C4 6.34 4 5.68 4 5 C2.68 4.67 1.36 4.34 0 4 C0 2.68 0 1.36 0 0 Z " fill="#FA7645" transform="translate(39,123)"/>
<path d="M0 0 C1.98 0.99 3.96 1.98 6 3 C2.25 6 2.25 6 0 6 C-0.33 6.66 -0.66 7.32 -1 8 C-4 4.25 -4 4.25 -4 2 C-3.34 2 -2.68 2 -2 2 C-2 2.99 -2 3.98 -2 5 C-1.01 5 -0.02 5 1 5 C0.67 3.35 0.34 1.7 0 0 Z " fill="#FBEFE6" transform="translate(70,76)"/>
<path d="M0 0 C0.99 0 1.98 0 3 0 C4.64826111 2.96687001 5.44271087 5.65626525 6 9 C5.01 9 4.02 9 3 9 C1.35173889 6.03312999 0.55728913 3.34373475 0 0 Z " fill="#FB9B5D" transform="translate(48,57)"/>
<path d="M0 0 C1.32 0 2.64 0 4 0 C4.33 3.3 4.66 6.6 5 10 C4.01 10.495 4.01 10.495 3 11 C2.86722656 10.37351563 2.73445313 9.74703125 2.59765625 9.1015625 C2.42105469 8.28429687 2.24445313 7.46703125 2.0625 6.625 C1.80146484 5.40683594 1.80146484 5.40683594 1.53515625 4.1640625 C1.07669307 1.970537 1.07669307 1.970537 0 0 Z " fill="#FD4E2A" transform="translate(84,188)"/>
<path d="M0 0 C5 2 5 2 10 4 C8.68 4.33 7.36 4.66 6 5 C6.33 6.32 6.66 7.64 7 9 C4.03595495 6.19195732 1.55500981 3.81684226 0 0 Z " fill="#FBE3D9" transform="translate(38,118)"/>
<path d="M0 0 C0.66 0.33 1.32 0.66 2 1 C2.625 3.0625 2.625 3.0625 3 5 C3.99 5 4.98 5 6 5 C5.34 6.32 4.68 7.64 4 9 C1.69 6.69 -0.62 4.38 -3 2 C-2.01 1.34 -1.02 0.68 0 0 Z " fill="#F28B51" transform="translate(78,59)"/>
<path d="M0 0 C0.66 0.33 1.32 0.66 2 1 C1.38722388 3.96175123 0.74627478 5.38058783 -1 8 C-1.33 8.66 -1.66 9.32 -2 10 C-1.34 10.33 -0.68 10.66 0 11 C-2.97 10.505 -2.97 10.505 -6 10 C-5.01 9.67 -4.02 9.34 -3 9 C-1.97718482 6.90280128 -1.97718482 6.90280128 -1.3125 4.4375 C-1.06113281 3.61121094 -0.80976562 2.78492188 -0.55078125 1.93359375 C-0.36902344 1.29550781 -0.18726562 0.65742188 0 0 Z " fill="#FB684C" transform="translate(92,195)"/>
<path d="M0 0 C0.33 0.66 0.66 1.32 1 2 C1.66 2.33 2.32 2.66 3 3 C2.34 3 1.68 3 1 3 C0.7525 3.78375 0.505 4.5675 0.25 5.375 C-1.15389099 8.32317108 -2.00675737 8.9024777 -5 10 C-3.66511872 6.40608886 -2.03977277 3.24509304 0 0 Z " fill="#FCCAC2" transform="translate(147,185)"/>
<path d="M0 0 C1.98 1.65 3.96 3.3 6 5 C3.3260876 5.89130413 0.76276177 6.47731534 -2 7 C-1.34 4.69 -0.68 2.38 0 0 Z " fill="#EA7241" transform="translate(73,89)"/>
<path d="M0 0 C1.98 0 3.96 0 6 0 C6.66 1.98 7.32 3.96 8 6 C4.08597051 4.73058503 2.20927127 3.48832306 0 0 Z " fill="#E16240" transform="translate(107,87)"/>
<path d="M0 0 C0.99 0 1.98 0 3 0 C3 1.65 3 3.3 3 5 C1.68 5 0.36 5 -1 5 C-1 1 -1 1 0 0 Z " fill="#FB5F2C" transform="translate(152,148)"/>
<path d="M0 0 C2.475 0.99 2.475 0.99 5 2 C4.67 3.98 4.34 5.96 4 8 C0.21284635 5.55667506 0.21284635 5.55667506 -0.8125 2.875 C-0.874375 2.25625 -0.93625 1.6375 -1 1 C-0.67 0.67 -0.34 0.34 0 0 Z " fill="#F99244" transform="translate(128,43)"/>
<path d="M0 0 C0.33 0 0.66 0 1 0 C0.67 2.31 0.34 4.62 0 7 C-2.97 7 -5.94 7 -9 7 C-9 6.67 -9 6.34 -9 6 C-7.88625 5.7525 -6.7725 5.505 -5.625 5.25 C-1.95384802 4.38994661 -1.95384802 4.38994661 -0.5625 1.875 C-0.376875 1.25625 -0.19125 0.6375 0 0 Z " fill="#FCE7E2" transform="translate(78,197)"/>
<path d="M0 0 C0.99 0.99 1.98 1.98 3 3 C1.35 3.66 -0.3 4.32 -2 5 C-1.67 6.32 -1.34 7.64 -1 9 C-3.50037734 6.82575883 -4.43628586 5.26954202 -5 2 C-3.68 2.33 -2.36 2.66 -1 3 C-0.67 2.01 -0.34 1.02 0 0 Z " fill="#F9EBE4" transform="translate(91,75)"/>
<path d="M0 0 C0.99 0 1.98 0 3 0 C3.33 2.64 3.66 5.28 4 8 C3.01 7.67 2.02 7.34 1 7 C0.67 4.69 0.34 2.38 0 0 Z " fill="#FAC1B5" transform="translate(83,190)"/>
<path d="M0 0 C1.65 0.33 3.3 0.66 5 1 C4.67 2.32 4.34 3.64 4 5 C2.02 4.34 0.04 3.68 -2 3 C-1.34 2.67 -0.68 2.34 0 2 C0 1.34 0 0.68 0 0 Z " fill="#EC6B2D" transform="translate(79,77)"/>
<path d="M0 0 C0.66 0 1.32 0 2 0 C4 3 4 3 3.625 5.1875 C3.41875 5.785625 3.2125 6.38375 3 7 C2.34 7 1.68 7 1 7 C1 5.68 1 4.36 1 3 C0.34 3 -0.32 3 -1 3 C-0.67 2.01 -0.34 1.02 0 0 Z " fill="#FC4929" transform="translate(62,199)"/>
<path d="M0 0 C3.71599191 -0.20086443 4.77208445 -0.1519437 8 2 C8.1875 4.625 8.1875 4.625 8 7 C7.34 6.01 6.68 5.02 6 4 C4.68352881 3.30062468 3.34977849 2.63270867 2 2 C1.34 1.34 0.68 0.68 0 0 Z " fill="#F9D3CB" transform="translate(72,194)"/>
<path d="M0 0 C2.31 1.98 4.62 3.96 7 6 C6.01 7.485 6.01 7.485 5 9 C4.16094435 7.87926138 3.32892169 6.75325453 2.5 5.625 C2.0359375 4.99851562 1.571875 4.37203125 1.09375 3.7265625 C0 2 0 2 0 0 Z " fill="#F7CEAF" transform="translate(66,52)"/>
<path d="M0 0 C0.33 0 0.66 0 1 0 C1 1.98 1 3.96 1 6 C-0.32 6 -1.64 6 -3 6 C-3 4.35 -3 2.7 -3 1 C-2.01 1.33 -1.02 1.66 0 2 C0 1.34 0 0.68 0 0 Z " fill="#FCD9D1" transform="translate(98,198)"/>
<path d="M0 0 C2.29633824 3.44450737 2.54016485 5.93812283 3 10 C2.01 10 1.02 10 0 10 C0 6.7 0 3.4 0 0 Z " fill="#F96B4C" transform="translate(83,194)"/>
<path d="M0 0 C0 1.65 0 3.3 0 5 C-2.31 4.34 -4.62 3.68 -7 3 C-2.5 0 -2.5 0 0 0 Z " fill="#F75127" transform="translate(83,181)"/>
<path d="M0 0 C-0.33 0.99 -0.66 1.98 -1 3 C-2.98 3.33 -4.96 3.66 -7 4 C-7 3.01 -7 2.02 -7 1 C-3.375 -1.125 -3.375 -1.125 0 0 Z " fill="#FB5F33" transform="translate(142,152)"/>
<path d="M0 0 C1.32 1.32 2.64 2.64 4 4 C1.525 5.485 1.525 5.485 -1 7 C-1.66 6.01 -2.32 5.02 -3 4 C-2.01 4 -1.02 4 0 4 C0 2.68 0 1.36 0 0 Z " fill="#FCE8D8" transform="translate(83,68)"/>
<path d="M0 0 C0.33 0.66 0.66 1.32 1 2 C1.99 2 2.98 2 4 2 C4.66 3.32 5.32 4.64 6 6 C4.02 6 2.04 6 0 6 C0 4.02 0 2.04 0 0 Z " fill="#F68037" transform="translate(47,62)"/>
<path d="M0 0 C0.99 0.33 1.98 0.66 3 1 C3 4.63 3 8.26 3 12 C2.67 12 2.34 12 2 12 C2 9.36 2 6.72 2 4 C1.34 4 0.68 4 0 4 C0 2.68 0 1.36 0 0 Z " fill="#F64D25" transform="translate(109,191)"/>
<path d="M0 0 C0.99 0.33 1.98 0.66 3 1 C2.01 1.33 1.02 1.66 0 2 C-0.73323796 4.01508358 -0.73323796 4.01508358 -1 6 C-1.99 6 -2.98 6 -4 6 C-4.33 5.34 -4.66 4.68 -5 4 C-4.01 3.67 -3.02 3.34 -2 3 C-1.34 2.01 -0.68 1.02 0 0 Z " fill="#FDE7E1" transform="translate(52,125)"/>
<path d="M0 0 C2 3 2 3 1.625 5.1875 C1.41875 5.785625 1.2125 6.38375 1 7 C-0.65 5.02 -2.3 3.04 -4 1 C-2.68 0.67 -1.36 0.34 0 0 Z " fill="#F7E2D8" transform="translate(83,94)"/>
<path d="M0 0 C0.99 0.33 1.98 0.66 3 1 C3 1.99 3 2.98 3 4 C1.02 4 -0.96 4 -3 4 C-2.67 3.01 -2.34 2.02 -2 1 C-1.34 0.67 -0.68 0.34 0 0 Z " fill="#F88D44" transform="translate(64,51)"/>
<path d="M0 0 C2.31 0.66 4.62 1.32 7 2 C7 2.66 7 3.32 7 4 C5.68 4.33 4.36 4.66 3 5 C3 4.34 3 3.68 3 3 C2.01 2.67 1.02 2.34 0 2 C0 1.34 0 0.68 0 0 Z " fill="#F9E7E0" transform="translate(95,94)"/>
</svg>
