<svg width="364" height="471" viewBox="0 0 364 471" fill="none" xmlns="http://www.w3.org/2000/svg">
<path d="M249.264 464.939H293.996L273.141 285.195L249.264 464.939Z" fill="#E0E0E0"/>
<path d="M29.1575 285.195L0.0343628 467.06L248.551 470.297L273.141 285.195H29.1575Z" fill="#FAFAFA"/>
<path d="M262.074 368.512H15.8151L21.1727 335.019H266.521L262.074 368.512Z" fill="#EBEBEB"/>
<path d="M262.091 368.538H15.7893L21.1554 335.053H266.547L262.091 368.538ZM15.8408 368.495H262.056L266.495 335.01H21.1984L15.8408 368.495Z" fill="#263238"/>
<path d="M29.1575 285.195L21.1727 335.019H266.521L273.141 285.195H29.1575Z" fill="#FE0F56"/>
<path d="M29.1918 285.204L273.175 284.998H273.407V285.229C266.221 339.414 258.064 400.863 249.444 465.763V465.961H246.456L0.240402 465.892H0V465.678L29.1918 285.204C28.9514 286.698 17.8585 356.423 0.455047 465.763L0.274753 465.549H246.396H249.186L248.972 465.738C257.6 400.837 265.774 339.397 273.012 285.212L273.209 285.435L29.1918 285.204Z" fill="#263238"/>
<path d="M266.521 335.027C266.521 335.147 211.572 335.25 143.855 335.25C76.1391 335.25 21.1727 335.147 21.1727 335.027C21.1727 334.907 76.1219 334.804 143.855 334.804C211.589 334.804 266.521 334.898 266.521 335.027Z" fill="#263238"/>
<path d="M262.074 368.512C262.074 368.641 206.832 368.735 138.713 368.735C70.5926 368.735 15.3428 368.641 15.3428 368.512C15.3428 368.383 70.5668 368.289 138.713 368.289C206.858 368.289 262.074 368.392 262.074 368.512Z" fill="#263238"/>
<path d="M257.059 399.326C257.059 399.455 201.827 399.55 133.707 399.55C65.5871 399.55 10.303 399.455 10.303 399.326C10.303 399.198 65.527 399.103 133.673 399.103C201.818 399.103 257.059 399.206 257.059 399.326Z" fill="#263238"/>
<path d="M252.054 430.141C252.054 430.261 196.813 430.364 128.693 430.364C60.573 430.364 5.32318 430.261 5.32318 430.141C5.32318 430.021 60.5472 429.918 128.693 429.918C196.839 429.918 252.054 430.021 252.054 430.141Z" fill="#263238"/>
<path d="M34.9185 466.012C34.7983 466.012 39.3058 436.649 44.9982 400.485C50.6906 364.322 55.3871 335.001 55.5073 335.027C55.6275 335.053 51.1199 364.373 45.4361 400.554C39.7523 436.735 35.0473 466.03 34.9185 466.012Z" fill="#263238"/>
<path d="M72.8936 466.012C72.7648 466.012 77.281 436.649 82.9648 400.485C88.6486 364.322 93.3536 335.001 93.4824 335.027C93.6112 335.053 89.0951 364.373 83.4027 400.554C77.7103 436.735 72.9795 466.03 72.8936 466.012Z" fill="#263238"/>
<path d="M108.181 464.699C108.061 464.699 112.526 435.636 118.149 399.833C123.773 364.03 128.452 335.001 128.564 335.027C128.676 335.053 124.22 364.082 118.596 399.902C112.972 435.722 108.293 464.716 108.181 464.699Z" fill="#263238"/>
<path d="M143.083 465.738C142.962 465.738 147.461 436.434 153.137 400.348C158.812 364.262 163.508 335.001 163.629 335.027C163.749 335.053 159.25 364.313 153.575 400.417C147.899 436.52 143.203 465.755 143.083 465.738Z" fill="#263238"/>
<path d="M178.156 465.738C178.036 465.738 182.535 436.434 188.21 400.348C193.885 364.262 198.581 335.001 198.702 335.027C198.822 335.053 194.331 364.313 188.656 400.417C182.981 436.52 178.285 465.755 178.156 465.738Z" fill="#263238"/>
<path d="M213.203 465.892C213.083 465.892 217.59 436.554 223.274 400.408C228.958 364.262 233.655 334.967 233.783 334.993C233.912 335.019 229.396 364.322 223.712 400.477C218.028 436.632 213.323 465.944 213.203 465.892Z" fill="#263238"/>
<g opacity="0.2">
<path opacity="0.2" d="M191.138 337.362C195.362 335.491 198.006 331.095 199.097 326.604C200.187 322.114 200.015 317.426 200.178 312.798C200.342 308.171 200.891 303.406 203.252 299.43C204.652 297.086 206.618 295.137 208.172 292.879C209.726 290.621 210.876 287.874 210.301 285.152L183.874 285.289L191.138 337.362Z" fill="black"/>
</g>
<path d="M81.5653 370.993C81.4948 371.108 81.408 371.212 81.3077 371.302L80.5178 372.161C79.8224 372.873 78.8007 373.878 77.5128 375.131C74.937 377.604 71.3567 380.97 67.2785 384.576C63.2002 388.182 59.4225 391.324 56.6493 393.557C55.2584 394.673 54.125 395.566 53.3351 396.132L52.4164 396.819C52.3142 396.909 52.1982 396.981 52.073 397.034C52.073 397.034 52.1674 396.922 52.3563 396.751L53.2149 395.995L56.4346 393.273C59.1649 390.981 62.9083 387.796 66.978 384.207C71.0477 380.618 74.7052 377.287 77.281 374.874L80.3805 372.015L81.239 371.251C81.3365 371.151 81.4461 371.065 81.5653 370.993Z" fill="#263238"/>
<path d="M79.582 397.377C79.2172 397.059 78.8758 396.714 78.5602 396.347L75.8729 393.479C73.5547 391.015 70.4466 387.701 67.0209 384.035L58.0745 374.676L55.3614 371.835C55.0189 371.497 54.7005 371.135 54.4083 370.753C54.7972 371.04 55.1593 371.362 55.4901 371.714C56.1598 372.35 57.1214 373.286 58.2977 374.453C60.6502 376.789 63.8613 380.06 67.3386 383.734C70.8158 387.409 73.9067 390.792 76.1047 393.273C77.2037 394.51 78.088 395.523 78.6805 396.227C79.0157 396.582 79.3175 396.967 79.582 397.377Z" fill="#263238"/>
<path d="M88.7516 378.883C88.7516 378.883 88.8375 378.66 89.0178 378.222C89.3025 377.587 89.6475 376.98 90.0481 376.411C91.627 374.205 93.8536 372.545 96.4188 371.663C98.2562 370.998 100.216 370.741 102.163 370.907C104.481 371.132 106.715 371.894 108.688 373.131C110.966 374.535 112.89 376.444 114.312 378.712C115.956 381.243 116.775 384.222 116.656 387.237C116.557 388.864 116.052 390.441 115.187 391.822C114.281 393.255 113.074 394.474 111.65 395.394C108.617 397.339 105.047 398.273 101.45 398.064C99.5663 397.963 97.7111 397.56 95.9551 396.871C94.1282 396.157 92.485 395.042 91.1471 393.608C90.4824 392.854 89.9222 392.013 89.4814 391.11C89.0616 390.187 88.7726 389.21 88.6228 388.208C88.3377 386.154 88.5167 384.062 89.1466 382.086C90.4594 377.966 93.3058 374.507 97.097 372.427C99.0624 371.347 101.249 370.733 103.489 370.63C105.729 370.527 107.963 370.939 110.019 371.835C112.149 372.732 114.014 374.16 115.436 375.981C116.861 377.853 117.751 380.075 118.012 382.412C118.309 384.783 117.925 387.189 116.905 389.35C116.38 390.434 115.691 391.43 114.861 392.303C114.017 393.164 113.064 393.911 112.028 394.527C109.937 395.678 107.631 396.387 105.255 396.609C102.878 396.83 100.481 396.56 98.2132 395.815C95.9803 395.129 93.9275 393.956 92.2031 392.38C90.4932 390.804 89.3244 388.727 88.8632 386.448C88.3794 384.206 88.6985 381.866 89.7647 379.836C90.3054 378.836 91.048 377.959 91.9455 377.261C92.8291 376.594 93.815 376.075 94.8647 375.724C96.9266 375.063 99.0893 374.772 101.253 374.865C103.359 374.881 105.454 375.169 107.486 375.724C109.495 376.252 111.351 377.246 112.904 378.626C114.391 380.014 115.406 381.834 115.806 383.829C116.2 385.757 116.084 387.755 115.471 389.624C114.863 391.428 113.836 393.061 112.474 394.389C109.888 396.918 106.463 398.409 102.85 398.579C101.158 398.669 99.4661 398.424 97.8698 397.858C96.3372 397.308 94.9592 396.398 93.8516 395.205C92.8033 394.066 92.01 392.717 91.5249 391.247C91.0466 389.869 90.8339 388.412 90.8981 386.954C91.0206 384.255 92.0977 381.687 93.9375 379.708C95.5103 377.987 97.5005 376.7 99.7157 375.973C101.575 375.367 103.545 375.179 105.485 375.423C108.167 375.757 110.715 376.783 112.878 378.403C113.439 378.816 113.97 379.269 114.466 379.759C114.801 380.094 114.964 380.274 114.964 380.274C114.964 380.274 114.775 380.111 114.44 379.794C113.93 379.32 113.391 378.878 112.826 378.471C110.659 376.9 108.126 375.91 105.468 375.595C103.372 375.352 101.249 375.616 99.2753 376.363C97.302 377.109 95.5364 378.318 94.1264 379.888C92.3342 381.824 91.2902 384.335 91.1814 386.971C91.1232 388.401 91.3358 389.828 91.8082 391.178C92.2868 392.604 93.0622 393.912 94.0834 395.016C95.1595 396.173 96.4958 397.056 97.9814 397.592C99.5386 398.133 101.186 398.367 102.832 398.279C106.359 398.105 109.699 396.641 112.217 394.166C113.532 392.88 114.524 391.3 115.11 389.556C115.698 387.748 115.804 385.819 115.419 383.958C115.033 382.042 114.057 380.295 112.629 378.961C111.118 377.633 109.319 376.675 107.374 376.162C105.376 375.615 103.316 375.326 101.244 375.303C99.1321 375.223 97.0224 375.514 95.0107 376.162C92.9586 376.79 91.2216 378.174 90.1511 380.034C89.1346 381.975 88.8308 384.211 89.2925 386.353C89.7375 388.543 90.8646 390.536 92.5122 392.046C94.1826 393.589 96.1776 394.739 98.3506 395.411C100.558 396.137 102.891 396.401 105.204 396.185C107.517 395.97 109.761 395.279 111.796 394.158C112.801 393.568 113.722 392.846 114.535 392.011C115.332 391.173 115.995 390.218 116.501 389.178C117.489 387.093 117.861 384.77 117.574 382.481C117.329 380.225 116.477 378.077 115.11 376.265C113.735 374.504 111.932 373.124 109.873 372.255C107.878 371.384 105.71 370.982 103.535 371.08C101.36 371.178 99.237 371.774 97.3288 372.822C93.6443 374.851 90.8785 378.216 89.6016 382.223C88.9896 384.141 88.8107 386.17 89.0779 388.165C89.2323 389.133 89.5213 390.075 89.9365 390.964C90.3614 391.831 90.8983 392.64 91.5334 393.368C92.8283 394.756 94.4187 395.836 96.1869 396.527C97.9039 397.206 99.7184 397.606 101.562 397.712C105.081 397.927 108.579 397.026 111.556 395.136C112.931 394.294 114.09 393.141 114.939 391.769C115.787 390.397 116.302 388.845 116.441 387.237C116.561 384.288 115.766 381.373 114.166 378.892C112.776 376.653 110.89 374.764 108.654 373.371C106.716 372.145 104.521 371.384 102.24 371.148C100.322 370.966 98.3881 371.206 96.5733 371.852C94.0312 372.711 91.8136 374.329 90.2198 376.488C89.8087 377.048 89.4523 377.646 89.1552 378.274C88.8632 378.669 88.7516 378.883 88.7516 378.883Z" fill="#0F4C81"/>
<path d="M112.011 402.589C112.088 402.683 105.279 408.505 96.7966 415.596C88.3138 422.688 81.3421 428.346 81.2906 428.252C81.2391 428.158 88.0219 422.336 96.5047 415.253C104.987 408.17 111.933 402.494 112.011 402.589Z" fill="#263238"/>
<path d="M113.496 427.488C113.092 427.25 112.71 426.977 112.354 426.672L109.332 424.32C106.799 422.311 103.322 419.512 99.4926 416.404C95.6633 413.295 92.2204 410.462 89.7391 408.393L86.8113 405.92C86.4403 405.637 86.0955 405.321 85.781 404.976C86.1833 405.216 86.5652 405.489 86.9229 405.791L89.9365 408.144C92.4694 410.153 95.9466 412.952 99.7759 416.06C103.605 419.168 107.048 422.001 109.538 424.071L112.457 426.535C112.826 426.827 113.173 427.146 113.496 427.488Z" fill="#263238"/>
<path d="M183.685 402.924C183.754 403.018 177.246 408.007 169.132 414.085C161.019 420.164 154.39 424.964 154.313 424.861C154.236 424.758 160.752 419.778 168.866 413.699C176.98 407.62 183.608 402.821 183.685 402.924Z" fill="#263238"/>
<path d="M186.209 424.045C186.149 424.148 179.229 419.864 170.755 414.463C162.281 409.063 155.489 404.615 155.549 404.504C155.609 404.392 162.53 408.693 171.004 414.085C179.478 419.477 186.312 423.942 186.209 424.045Z" fill="#263238"/>
<path d="M113.127 465.746C113.032 465.66 119.798 458.568 128.229 449.923C136.661 441.277 143.572 434.314 143.684 434.399C143.795 434.485 137.013 441.577 128.581 450.232C120.15 458.886 113.213 465.832 113.127 465.746Z" fill="#0F4C81"/>
<path d="M141.726 465.738C141.726 465.738 141.615 465.643 141.443 465.437L140.722 464.579C140.052 463.72 139.159 462.612 138.069 461.256C135.828 458.457 132.651 454.653 128.968 450.609C125.284 446.566 121.79 443.054 119.214 440.564L116.158 437.559L115.299 436.752C115.2 436.662 115.111 436.561 115.033 436.451C115.033 436.451 115.162 436.52 115.359 436.683L116.218 437.43C116.982 438.083 118.064 439.053 119.386 440.272C122.013 442.71 125.55 446.196 129.251 450.249C132.951 454.301 136.12 458.148 138.266 460.998C139.365 462.424 140.232 463.574 140.842 464.433L141.503 465.377C141.592 465.488 141.667 465.609 141.726 465.738Z" fill="#0F4C81"/>
<path d="M71.4426 429.626C71.4426 429.626 71.7174 450.721 66.3942 463.351L33.9484 457.822C33.9484 457.822 43.719 437.834 41.0574 426.724L71.4426 429.626Z" fill="#EBEBEB"/>
<path d="M71.434 428.836C71.434 428.836 67.3643 454.731 64.8744 462.458L32.6261 456.053C32.6261 456.053 39.2629 431.017 39.1771 424.045L71.434 428.836Z" fill="#0F4C81"/>
<path d="M42.4484 435.653C42.4484 435.773 47.2393 436.889 53.2064 438.143C59.1735 439.396 64.0245 440.315 64.0503 440.203C64.076 440.092 59.2594 438.967 53.2923 437.714C47.3251 436.46 42.4741 435.533 42.4484 435.653Z" fill="white"/>
<path d="M41.624 441.139C41.624 441.259 46.4149 442.367 52.3821 443.629C58.3492 444.891 63.2002 445.801 63.226 445.69C63.2517 445.578 58.4351 444.453 52.4679 443.2C46.5008 441.946 41.6498 440.993 41.624 441.139Z" fill="white"/>
<path d="M46.3634 447.347C46.9134 447.586 47.4898 447.759 48.0806 447.862C49.1881 448.128 50.725 448.48 52.4164 448.841C54.1078 449.201 55.6619 449.493 56.7866 449.699C57.3874 449.85 58.0046 449.925 58.624 449.923C58.053 449.682 57.4568 449.506 56.8467 449.399C55.7477 449.124 54.2108 448.772 52.5109 448.42C50.8109 448.068 49.2654 447.759 48.1493 447.561C47.5648 447.418 46.9652 447.346 46.3634 447.347Z" fill="white"/>
<path d="M224.949 370.392C224.949 370.392 228.271 390.947 224.906 404.057L192.417 403.362C192.417 403.362 199.062 382.429 194.847 371.963L224.949 370.392Z" fill="#EBEBEB"/>
<path d="M224.803 369.619C224.803 369.619 224.588 395.471 223.274 403.362L190.846 401.825C190.846 401.825 193.688 376.411 192.563 369.619H224.803Z" fill="#455A64"/>
<path d="M197.165 381.124C197.165 381.245 202.042 381.348 208.06 381.356C214.079 381.365 218.964 381.279 218.964 381.159C218.964 381.039 214.087 380.935 208.06 380.927C202.033 380.918 197.165 381.004 197.165 381.124Z" fill="white"/>
<path d="M197.474 386.594C197.474 386.714 202.351 386.817 208.369 386.825C214.388 386.834 219.273 386.748 219.273 386.628C219.273 386.508 214.397 386.405 208.369 386.396C202.342 386.387 197.474 386.473 197.474 386.594Z" fill="white"/>
<path d="M203.286 391.633C203.884 391.762 204.496 391.816 205.107 391.797C206.231 391.797 207.785 391.857 209.503 391.865C211.22 391.874 212.765 391.865 213.89 391.805C214.5 391.83 215.112 391.781 215.71 391.659C215.112 391.532 214.501 391.48 213.89 391.505C212.765 391.462 211.22 391.436 209.503 391.427C207.785 391.419 206.231 391.427 205.107 391.487C204.496 391.463 203.885 391.512 203.286 391.633Z" fill="white"/>
<path d="M231.817 311.124C225.756 311.124 219.651 307.321 216.44 301.336C213.318 295.377 212.351 288.523 213.701 281.932C215.478 273.347 221.162 266.306 228.185 264.057C234.152 262.142 244.816 263.198 249.847 271.621C252.244 275.74 253.434 280.449 253.282 285.212C253.259 285.55 253.17 285.881 253.02 286.185C252.87 286.489 252.661 286.76 252.406 286.983C252.151 287.206 251.854 287.377 251.533 287.486C251.212 287.594 250.872 287.639 250.534 287.616C249.851 287.571 249.214 287.256 248.763 286.74C248.312 286.225 248.085 285.552 248.13 284.869C248.177 281.15 247.222 277.488 245.366 274.265C241.485 267.783 232.976 267.912 229.696 268.959C223.686 270.882 219.84 277.382 218.681 282.971C217.568 288.383 218.36 294.012 220.922 298.907C223.455 303.629 228.58 306.565 233.122 305.87C233.793 305.776 234.473 305.951 235.016 306.355C235.559 306.759 235.921 307.361 236.023 308.03C236.126 308.699 235.961 309.382 235.564 309.93C235.168 310.479 234.571 310.849 233.903 310.961C233.213 311.068 232.516 311.123 231.817 311.124Z" fill="#263238"/>
<path d="M65.527 311.124C59.4568 311.124 53.3609 307.321 50.1498 301.336C47.0254 295.378 46.0548 288.524 47.4023 281.932C48.9048 274.686 53.9876 266.341 61.9982 264.04C65.8605 262.993 69.9553 263.201 73.6921 264.632L71.8376 269.44C69.1482 268.418 66.2073 268.259 63.4234 268.985C57.5164 270.702 53.67 277.245 52.4851 282.971C51.3722 288.382 52.1638 294.012 54.726 298.907C57.2588 303.637 62.3932 306.565 66.9265 305.87L67.7078 310.961C66.9862 311.073 66.2571 311.127 65.527 311.124Z" fill="#263238"/>
<path d="M229.696 285.341L227.327 298.314H262.194L265.293 285.47L229.696 285.341Z" fill="#0F4C81"/>
<path d="M74.3618 309.072C74.3635 310.17 74.0395 311.243 73.4307 312.157C72.8219 313.07 71.9558 313.782 70.9419 314.203C69.9281 314.624 68.8122 314.735 67.7355 314.521C66.6588 314.307 65.6697 313.779 64.8935 313.003C64.1173 312.226 63.5889 311.237 63.3751 310.161C63.1614 309.084 63.272 307.968 63.6928 306.954C64.1137 305.94 64.8259 305.074 65.7393 304.465C66.6528 303.857 67.7263 303.533 68.824 303.534C70.292 303.537 71.6993 304.121 72.7374 305.159C73.7754 306.197 74.3596 307.604 74.3618 309.072Z" fill="#263238"/>
<path d="M240.506 309.072C240.508 310.17 240.184 311.243 239.575 312.157C238.966 313.07 238.1 313.782 237.086 314.203C236.072 314.624 234.956 314.735 233.88 314.521C232.803 314.307 231.814 313.779 231.038 313.003C230.262 312.226 229.733 311.237 229.519 310.161C229.306 309.084 229.416 307.968 229.837 306.954C230.258 305.94 230.97 305.074 231.884 304.465C232.797 303.857 233.871 303.533 234.968 303.534C236.436 303.537 237.844 304.121 238.882 305.159C239.92 306.197 240.504 307.604 240.506 309.072Z" fill="#263238"/>
<path d="M165.487 53.0559L157.317 60.043L168.222 72.7933L176.392 65.8062L165.487 53.0559Z" fill="#263238"/>
<path d="M172.547 52.0647L155.736 66.5061L143.948 52.7688C148.584 46.2607 154.114 41.3496 160.733 38.3274L172.547 52.0647Z" fill="#455A64"/>
<path d="M158.57 64.0849C158.475 64.1707 155.633 61.0455 152.216 57.1218C148.799 53.198 146.103 49.9526 146.206 49.8667C146.309 49.7809 149.143 52.9061 152.56 56.8298C155.977 60.7536 158.664 64.0076 158.57 64.0849Z" fill="#263238"/>
<path d="M161.746 61.3374C161.067 60.6764 160.436 59.9677 159.858 59.2167C158.724 57.8859 157.187 56.0399 155.496 53.9793L151.203 48.6905L149.915 47.0849C149.606 46.69 149.443 46.5097 149.443 46.4839C149.615 46.3294 152.474 49.5834 155.857 53.696C157.574 55.7566 159.051 57.6369 160.15 59.0192C160.749 59.7434 161.283 60.5191 161.746 61.3374Z" fill="#263238"/>
<path d="M166.039 57.6713C165.35 57.0125 164.71 56.3036 164.125 55.5506C162.983 54.2026 161.437 52.3223 159.737 50.2359L155.445 44.8612L154.157 43.2213C153.99 43.0258 153.84 42.8161 153.71 42.5946C154.448 43.204 155.111 43.8986 155.685 44.6637C156.844 45.9945 158.407 47.8663 160.098 49.9526C161.789 52.039 163.309 53.9536 164.391 55.3531C165.005 56.0782 165.556 56.8536 166.039 57.6713Z" fill="#263238"/>
<path d="M169.912 54.2369C169.817 54.3142 166.992 51.1632 163.601 47.1965C160.21 43.2299 157.548 39.9415 157.642 39.8557C157.737 39.7698 160.553 42.9294 163.944 46.9046C167.336 50.8799 170.006 54.1596 169.912 54.2369Z" fill="#263238"/>
<path d="M309.351 61.7349L301.924 53.9634L289.795 65.5542L297.222 73.3257L309.351 61.7349Z" fill="#263238"/>
<path d="M309.706 69.3823L294.406 53.3698L307.482 40.8774C314.214 45.1703 319.417 50.4334 322.774 56.89L309.706 69.3823Z" fill="#455A64"/>
<path d="M296.965 56.0571C296.879 55.9627 299.841 52.9576 303.584 49.343C307.328 45.7284 310.453 42.8693 310.513 42.9551C310.573 43.041 307.637 46.046 303.893 49.6693C300.15 53.2925 297.05 56.143 296.965 56.0571Z" fill="#263238"/>
<path d="M299.884 59.1051C300.494 58.3841 301.16 57.7123 301.876 57.096C303.138 55.894 304.907 54.2541 306.873 52.4511L311.93 47.8748L313.467 46.5011C313.836 46.1748 314.016 46.0117 314.042 46.0031C314.205 46.1663 311.105 49.1971 307.173 52.7859C305.207 54.5804 303.404 56.2203 302.082 57.3278C301.397 57.9771 300.662 58.5714 299.884 59.1051Z" fill="#263238"/>
<path d="M303.765 63.1662C304.383 62.4384 305.057 61.7609 305.782 61.1399C307.062 59.9293 308.856 58.2808 310.857 56.4778L316.008 51.893L317.579 50.5193C317.771 50.3485 317.972 50.188 318.18 50.0385C317.613 50.8089 316.955 51.5092 316.223 52.1248C314.952 53.3526 313.158 55.0096 311.166 56.8127C309.174 58.6157 307.336 60.247 306.014 61.3803C305.311 62.0325 304.559 62.6295 303.765 63.1662Z" fill="#263238"/>
<path d="M307.396 66.8667C307.311 66.7722 310.316 63.7929 314.102 60.1955C317.888 56.598 321.031 53.7647 321.117 53.8591C321.202 53.9536 318.197 56.9329 314.411 60.5217C310.625 64.1106 307.482 66.9439 307.396 66.8667Z" fill="#263238"/>
<path d="M240.805 24.633H228.081V44.492H240.805V24.633Z" fill="#263238"/>
<path d="M247.605 30.5744H221.418V9.16995C230.596 6.90329 239.354 6.76592 247.631 9.16995L247.605 30.5744Z" fill="url(#paint0_linear_1114_2216)"/>
<path d="M247.94 9.25581C247.633 9.44772 247.308 9.60878 246.97 9.73661C246.073 10.1314 245.152 10.4698 244.213 10.7497C242.807 11.183 241.373 11.5215 239.921 11.7629C238.157 12.0428 236.375 12.192 234.589 12.2093C232.804 12.212 231.022 12.08 229.257 11.8144C227.806 11.5893 226.371 11.2651 224.964 10.8442C224.024 10.5691 223.101 10.2395 222.199 9.85681C221.858 9.73859 221.533 9.58006 221.229 9.38459C221.229 9.30732 222.672 9.89974 225.05 10.5351C226.446 10.904 227.862 11.1907 229.291 11.3937C231.039 11.6301 232.8 11.7505 234.563 11.7543C236.327 11.7342 238.089 11.5965 239.835 11.3422C241.258 11.1363 242.668 10.8496 244.059 10.4836C246.497 9.78813 247.905 9.17853 247.94 9.25581Z" fill="#263238"/>
<path d="M230.072 30.5143C229.952 30.5143 229.849 26.4017 229.849 21.336C229.849 16.2704 229.952 12.1578 230.072 12.1578C230.193 12.1578 230.296 16.2618 230.296 21.336C230.296 26.4103 230.201 30.5143 230.072 30.5143Z" fill="#263238"/>
<path d="M235.061 30.6345C234.941 30.6345 234.838 26.5047 234.838 21.4133C234.838 16.3219 234.941 12.2007 235.061 12.2007C235.181 12.2007 235.284 16.3219 235.284 21.4133C235.284 26.5047 235.19 30.6345 235.061 30.6345Z" fill="#263238"/>
<path d="M240.049 30.5572C239.929 30.5572 239.826 26.4275 239.826 21.3361C239.826 16.2447 239.929 12.1149 240.049 12.1149C240.169 12.1149 240.273 16.2447 240.273 21.3361C240.273 26.4275 240.178 30.5572 240.049 30.5572Z" fill="#263238"/>
<path d="M244.171 30.5572C244.042 30.5572 243.947 26.0926 243.947 20.5891C243.947 15.0856 244.042 10.6209 244.171 10.6209C244.299 10.6209 244.394 15.0856 244.394 20.5891C244.394 26.0926 244.325 30.5572 244.171 30.5572Z" fill="#263238"/>
<path d="M225.359 30.4284C225.239 30.4284 225.136 25.9638 225.136 20.4603C225.136 14.9568 225.239 10.4922 225.359 10.4922C225.479 10.4922 225.582 14.9568 225.582 20.4603C225.582 25.9638 225.488 30.4284 225.359 30.4284Z" fill="#263238"/>
<path d="M298.37 196.394C334.525 160.239 334.525 101.62 298.37 65.4646C262.215 29.3095 203.596 29.3095 167.441 65.4646C131.286 101.62 131.286 160.239 167.441 196.394C203.596 232.549 262.215 232.549 298.37 196.394Z" fill="url(#paint1_linear_1114_2216)"/>
<path d="M232.897 207.949C275.839 207.949 310.65 173.138 310.65 130.196C310.65 87.2538 275.839 52.4425 232.897 52.4425C189.955 52.4425 155.144 87.2538 155.144 130.196C155.144 173.138 189.955 207.949 232.897 207.949Z" fill="#FAFAFA"/>
<path d="M310.659 130.196C310.659 130.196 310.659 129.775 310.599 128.942C310.539 128.109 310.599 126.864 310.436 125.242C310.129 120.507 309.388 115.811 308.221 111.212C307.379 107.893 306.315 104.635 305.035 101.459C303.531 97.6725 301.722 94.0144 299.626 90.5206C294.499 81.9851 287.798 74.5003 279.879 68.4636C270.268 61.1517 259.081 56.1886 247.21 53.9708C237.148 52.1195 226.823 52.2391 216.807 54.3228C213.29 55.0863 209.826 56.0757 206.436 57.2849C192.01 62.5398 179.463 71.9472 170.375 84.3217C168.004 87.5442 165.891 90.949 164.056 94.5044C163.103 96.2817 162.288 98.1277 161.48 99.9822C160.673 101.837 159.952 103.76 159.343 105.718C158.025 109.635 157.037 113.656 156.389 117.738C155.737 121.865 155.396 126.035 155.367 130.213C155.398 134.393 155.736 138.566 156.38 142.697C157.038 146.777 158.026 150.797 159.334 154.717C159.952 156.666 160.725 158.555 161.472 160.444C162.219 162.332 163.12 164.153 164.048 165.93C165.882 169.487 167.998 172.892 170.375 176.113C179.461 188.491 192.008 197.902 206.436 203.158C209.826 204.367 213.29 205.357 216.807 206.12C220.237 206.837 223.71 207.321 227.205 207.571C233.893 208.077 240.618 207.707 247.21 206.472C259.081 204.254 270.268 199.291 279.879 191.979C287.8 185.945 294.501 178.46 299.626 169.922C301.721 166.428 303.53 162.77 305.035 158.984C308.085 151.393 309.908 143.365 310.436 135.201C310.582 133.579 310.556 132.334 310.599 131.501C310.642 130.668 310.659 130.239 310.659 130.239C310.659 130.239 310.659 130.668 310.659 131.501C310.659 132.334 310.659 133.579 310.539 135.201C310.069 143.388 308.28 151.445 305.241 159.061C303.746 162.865 301.943 166.541 299.85 170.051C294.734 178.63 288.032 186.156 280.102 192.228C270.457 199.585 259.226 204.583 247.304 206.824C240.682 208.075 233.925 208.456 227.205 207.957C223.693 207.708 220.203 207.224 216.756 206.506C213.218 205.745 209.733 204.753 206.324 203.536C191.813 198.261 179.19 188.805 170.049 176.362C167.663 173.124 165.539 169.702 163.696 166.127C162.734 164.342 161.91 162.47 161.068 160.607C160.227 158.744 159.54 156.812 158.922 154.846C157.605 150.909 156.611 146.872 155.951 142.774C154.589 134.461 154.589 125.982 155.951 117.669C156.615 113.589 157.608 109.569 158.922 105.649C159.549 103.683 160.321 101.785 161.077 99.8877C161.832 97.9903 162.734 96.1615 163.696 94.3757C165.545 90.8028 167.672 87.3808 170.058 84.1414C179.195 71.6996 191.815 62.2461 206.324 56.9758C209.73 55.7598 213.212 54.7674 216.747 54.0051C220.197 53.2885 223.691 52.8037 227.205 52.5541C233.923 52.0552 240.677 52.4362 247.296 53.6874C259.22 55.9186 270.454 60.918 280.094 68.2833C288.023 74.3594 294.725 81.8885 299.841 90.4691C303.687 96.9463 306.579 103.944 308.427 111.247C309.572 115.861 310.288 120.572 310.565 125.319C310.693 126.942 310.65 128.187 310.685 129.019C310.719 129.852 310.659 130.196 310.659 130.196Z" fill="#263238"/>
<path d="M299.248 127.38C296.784 127.483 294.775 127.38 294.767 127.165C294.758 126.95 296.741 126.658 299.205 126.521C301.67 126.384 303.679 126.469 303.696 126.727C303.713 126.985 301.695 127.277 299.248 127.38Z" fill="#263238"/>
<path d="M297.591 145.281C295.187 144.714 293.299 144.088 293.299 143.873C293.299 143.658 295.342 143.916 297.755 144.44C300.167 144.963 302.048 145.599 302.048 145.848C302.048 146.097 299.978 145.839 297.591 145.281Z" fill="#263238"/>
<path d="M291.178 162.066C289.006 160.881 287.34 159.757 287.443 159.568C287.546 159.379 289.401 160.16 291.581 161.285C293.762 162.41 295.436 163.569 295.316 163.792C295.196 164.015 293.341 163.26 291.178 162.066Z" fill="#263238"/>
<path d="M280.488 176.525C278.72 174.808 277.406 173.279 277.561 173.09C277.715 172.902 279.278 174.181 281.081 175.881C282.884 177.581 284.18 179.101 284.009 179.315C283.837 179.53 282.249 178.251 280.488 176.525Z" fill="#263238"/>
<path d="M266.322 187.6C265.085 185.463 264.227 183.642 264.416 183.531C264.605 183.419 265.789 185.05 267.06 187.163C268.331 189.275 269.189 191.095 268.975 191.232C268.76 191.37 267.567 189.721 266.322 187.6Z" fill="#263238"/>
<path d="M249.708 194.461C249.09 192.065 248.755 190.082 248.97 190.03C249.184 189.979 249.88 191.859 250.541 194.237C251.202 196.616 251.528 198.599 251.279 198.668C251.03 198.736 250.326 196.847 249.708 194.461Z" fill="#263238"/>
<path d="M231.858 196.59C231.858 194.117 232.107 192.117 232.322 192.117C232.537 192.117 232.717 194.126 232.717 196.59C232.717 199.054 232.502 201.063 232.253 201.063C232.004 201.063 231.815 199.071 231.858 196.59Z" fill="#263238"/>
<path d="M214.12 193.902C214.824 191.533 215.562 189.67 215.777 189.73C215.992 189.79 215.614 191.765 214.918 194.143C214.223 196.521 213.51 198.436 213.261 198.316C213.012 198.195 213.373 196.272 214.12 193.902Z" fill="#263238"/>
<path d="M197.695 186.51C199.009 184.424 200.22 182.818 200.408 182.93C200.597 183.041 199.704 184.853 198.425 186.965C197.146 189.077 195.927 190.674 195.712 190.545C195.497 190.417 196.382 188.605 197.695 186.51Z" fill="#263238"/>
<path d="M183.881 175.005C185.71 173.339 187.315 172.12 187.452 172.283C187.59 172.447 186.268 173.94 184.465 175.632C182.662 177.323 181.073 178.542 180.893 178.362C180.713 178.182 182.061 176.671 183.881 175.005Z" fill="#263238"/>
<path d="M173.646 160.22C175.853 159.113 177.725 158.366 177.819 158.555C177.914 158.744 176.231 159.834 174.041 160.984C171.852 162.135 169.989 162.882 169.869 162.65C169.748 162.418 171.448 161.336 173.646 160.22Z" fill="#263238"/>
<path d="M167.757 143.238C170.186 142.757 172.187 142.542 172.23 142.757C172.273 142.971 170.35 143.564 167.937 144.079C165.524 144.594 163.515 144.809 163.464 144.56C163.412 144.311 165.353 143.718 167.757 143.238Z" fill="#263238"/>
<path d="M166.666 125.328C169.13 125.508 171.114 125.834 171.105 126.049C171.096 126.263 169.079 126.323 166.615 126.178C164.151 126.032 162.159 125.714 162.176 125.456C162.193 125.199 164.202 125.104 166.666 125.328Z" fill="#263238"/>
<path d="M170.401 107.701C172.728 108.559 174.548 109.418 174.479 109.598C174.411 109.779 172.453 109.315 170.118 108.508C167.782 107.701 165.962 106.859 166.039 106.619C166.117 106.379 168.083 106.859 170.401 107.701Z" fill="#263238"/>
<path d="M178.738 91.7741C180.747 93.208 182.275 94.513 182.172 94.6933C182.069 94.8736 180.3 93.8777 178.266 92.4782C176.231 91.0787 174.703 89.7736 174.831 89.559C174.96 89.3443 176.72 90.3403 178.738 91.7741Z" fill="#263238"/>
<path d="M191.024 78.655C192.578 80.5696 193.703 82.2353 193.54 82.3812C193.377 82.5272 191.943 81.0934 190.363 79.1959C188.783 77.2984 187.65 75.6414 187.847 75.4782C188.045 75.3151 189.47 76.7403 191.024 78.655Z" fill="#263238"/>
<path d="M206.393 69.2965C207.372 71.5631 208.015 73.4692 207.809 73.5894C207.603 73.7096 206.625 71.9237 205.611 69.6742C204.598 67.4248 203.954 65.5187 204.186 65.3813C204.418 65.244 205.388 67.0384 206.393 69.2965Z" fill="#263238"/>
<path d="M223.685 64.4283C224.02 66.8752 224.123 68.8843 223.899 68.9187C223.676 68.953 223.204 66.9954 222.835 64.5571C222.466 62.1187 222.363 60.101 222.611 60.0667C222.86 60.0323 223.35 61.9813 223.685 64.4283Z" fill="#263238"/>
<path d="M241.663 64.3682C241.337 66.8151 240.899 68.7813 240.685 68.7555C240.47 68.7298 240.521 66.7121 240.813 64.2651C241.105 61.8182 241.543 59.8434 241.792 59.8778C242.041 59.9121 241.99 61.9126 241.663 64.3682Z" fill="#263238"/>
<path d="M258.998 69.1161C258.028 71.3914 257.075 73.1601 256.869 73.0742C256.663 72.9883 257.272 71.0737 258.208 68.7813C259.144 66.4889 260.106 64.7288 260.338 64.8318C260.569 64.9348 259.977 66.8495 258.998 69.1161Z" fill="#263238"/>
<path d="M274.418 78.3631C272.873 80.2949 271.482 81.7459 271.31 81.6085C271.138 81.4711 272.229 79.7797 273.749 77.8307C275.268 75.8818 276.651 74.3964 276.857 74.5939C277.063 74.7914 275.938 76.4398 274.418 78.3631Z" fill="#263238"/>
<path d="M286.808 91.3964C284.799 92.8388 283.073 93.8691 282.944 93.6888C282.815 93.5085 284.318 92.1777 286.301 90.7009C288.284 89.2241 290.01 88.2024 290.165 88.4085C290.319 88.6146 288.817 89.9539 286.808 91.3964Z" fill="#263238"/>
<path d="M295.247 107.297C292.929 108.156 290.955 108.662 290.903 108.465C290.852 108.268 292.62 107.375 294.947 106.49C297.274 105.606 299.188 105.082 299.283 105.323C299.377 105.563 297.566 106.439 295.247 107.297Z" fill="#263238"/>
<path d="M299.12 124.83C296.655 125.027 294.646 125.01 294.629 124.83C294.612 124.649 296.587 124.254 299.042 123.971C301.498 123.688 303.516 123.756 303.533 124.014C303.55 124.271 301.558 124.632 299.12 124.83Z" fill="#263238"/>
<path d="M202.709 46.0804L202.443 46.2006L201.653 46.5183C200.966 46.8102 199.936 47.1622 198.623 47.7375C194.921 49.2848 191.327 51.0775 187.865 53.1036C185.667 54.3743 183.34 55.894 180.893 57.6026C178.446 59.3112 175.947 61.3031 173.449 63.544C162.48 73.2128 154.101 85.4698 149.074 99.2009C147.898 102.343 147.013 105.417 146.249 108.293C145.485 111.17 144.97 113.917 144.583 116.424C143.956 120.385 143.592 124.383 143.493 128.393C143.424 129.818 143.493 130.917 143.493 131.664C143.493 132.024 143.493 132.299 143.493 132.522C143.501 132.62 143.501 132.717 143.493 132.814C143.482 132.72 143.482 132.625 143.493 132.531C143.493 132.316 143.493 132.033 143.493 131.672C143.493 130.925 143.399 129.827 143.441 128.401C143.472 124.377 143.791 120.36 144.395 116.381C144.755 113.857 145.313 111.118 146.009 108.207C146.785 105.114 147.719 102.062 148.808 99.0635C153.81 85.2405 162.238 72.9128 173.303 63.2349C175.819 60.994 178.377 59.0622 180.798 57.3021C183.22 55.542 185.606 54.0824 187.83 52.8289C191.316 50.8237 194.94 49.0678 198.674 47.5743C199.988 47.0248 201.044 46.7158 201.748 46.4324L202.555 46.1577C202.604 46.1282 202.656 46.1023 202.709 46.0804Z" fill="white"/>
<path d="M228.553 41.0663C227.67 41.2496 226.774 41.3673 225.874 41.4183C224.208 41.59 221.925 41.839 219.4 42.1653C216.876 42.4915 214.601 42.835 212.952 43.0925C212.069 43.2741 211.174 43.3889 210.274 43.436C211.128 43.1383 212.007 42.9199 212.901 42.7834C214.541 42.4486 216.816 42.0536 219.34 41.7274C221.865 41.4011 224.174 41.1951 225.848 41.1006C226.747 41.0046 227.652 40.9931 228.553 41.0663Z" fill="white"/>
<g opacity="0.4">
<path opacity="0.4" d="M170.762 176.937C170.762 176.937 211.055 240.523 273.56 207.957C338.812 173.958 302.752 96.0241 302.752 96.0241C302.752 96.0241 333.454 158.134 269.851 198.625C254.01 208.713 236.761 208.722 223.607 207.399C189.994 204.034 170.762 176.937 170.762 176.937Z" fill="black"/>
</g>
<path d="M254.576 88.8721C254.963 100.276 254.619 111.693 253.546 123.052C253.151 127.165 252.688 131.32 251.099 135.141C249.511 138.962 246.806 142.465 242.994 144.079C239.182 145.693 234.305 145.023 231.652 141.864L254.576 88.8721Z" fill="#E0E0E0"/>
<path d="M231.214 124.065L259.47 76.4742L242.419 130.196L233.704 132.806L231.214 124.065Z" fill="url(#paint2_linear_1114_2216)"/>
<g opacity="0.4">
<path opacity="0.4" d="M259.47 76.4742L238.512 125.096L242.419 130.196L259.47 76.4742Z" fill="black"/>
</g>
<path d="M233.704 141.898C238.726 141.898 242.797 137.827 242.797 132.806C242.797 127.784 238.726 123.713 233.704 123.713C228.683 123.713 224.612 127.784 224.612 132.806C224.612 137.827 228.683 141.898 233.704 141.898Z" fill="#FAFAFA"/>
<path d="M242.797 132.806C242.715 132.067 242.592 131.333 242.427 130.608C241.901 128.65 240.734 126.924 239.113 125.705C237.922 124.809 236.526 124.226 235.052 124.009C233.578 123.791 232.072 123.946 230.673 124.46C229.868 124.745 229.112 125.154 228.432 125.671C227.709 126.196 227.074 126.834 226.552 127.56C225.436 129.081 224.834 130.919 224.834 132.806C224.834 134.693 225.436 136.53 226.552 138.052C227.595 139.466 229.027 140.546 230.673 141.16C231.848 141.591 233.1 141.771 234.349 141.69C235.598 141.609 236.816 141.267 237.925 140.688C239.034 140.108 240.01 139.303 240.79 138.324C241.569 137.345 242.136 136.214 242.453 135.004C242.619 134.279 242.742 133.545 242.822 132.806C242.875 133.558 242.809 134.315 242.625 135.047C242.156 137.094 240.99 138.915 239.328 140.198C238.188 141.083 236.856 141.686 235.439 141.958C233.808 142.27 232.125 142.139 230.562 141.58C229.713 141.287 228.916 140.861 228.201 140.318C227.441 139.77 226.775 139.103 226.226 138.344C225.044 136.752 224.406 134.822 224.406 132.84C224.406 130.858 225.044 128.928 226.226 127.337C226.777 126.579 227.443 125.913 228.201 125.362C228.919 124.826 229.716 124.404 230.562 124.108C232.124 123.545 233.809 123.415 235.439 123.731C237.17 124.063 238.769 124.888 240.043 126.107C241.318 127.325 242.214 128.885 242.625 130.599C242.796 131.321 242.854 132.066 242.797 132.806Z" fill="#263238"/>
<path d="M240.365 134.16C241.106 130.498 238.737 126.929 235.075 126.188C231.412 125.448 227.843 127.816 227.102 131.479C226.362 135.141 228.731 138.711 232.393 139.451C236.056 140.191 239.625 137.823 240.365 134.16Z" fill="#455A64"/>
<path d="M149.007 201.724L139.889 236.307L108.413 239.682V245.271L152.639 246.825L160.95 208.026L149.007 201.724Z" fill="#FFBE9D"/>
<path d="M162.272 247.744C162.272 247.744 113.092 245.4 99.0889 256.329C85.0854 267.259 91.8682 285.204 91.8682 285.204L171.012 284.998L178.001 244.876L162.272 247.744Z" fill="#263238"/>
<path d="M170.643 274.214C170.404 274.22 170.166 274.202 169.93 274.162C169.467 274.111 168.789 274.042 167.913 273.93C166.196 273.716 163.62 273.355 160.529 272.831C152.414 271.451 144.387 269.596 136.489 267.276C131.87 265.911 127.499 264.538 123.464 263.533C119.902 262.611 116.259 262.036 112.586 261.816C110.108 261.677 107.622 261.821 105.176 262.245C104.318 262.348 103.657 262.571 103.193 262.649C102.964 262.705 102.732 262.748 102.497 262.777C102.716 262.683 102.943 262.612 103.176 262.563C103.821 262.362 104.478 262.198 105.142 262.073C107.593 261.578 110.096 261.385 112.594 261.498C116.32 261.676 120.019 262.225 123.636 263.138C127.697 264.117 132.076 265.491 136.678 266.856C144.533 269.156 152.503 271.044 160.555 272.514C163.654 273.08 166.17 273.484 167.913 273.759L169.922 274.076C170.166 274.102 170.407 274.148 170.643 274.214Z" fill="#455A64"/>
<path d="M124.932 263.267C123.566 262.14 122.11 261.126 120.579 260.236C118.975 259.485 117.312 258.865 115.608 258.381C116.137 258.335 116.67 258.388 117.179 258.536C118.435 258.806 119.648 259.245 120.785 259.841C121.921 260.44 122.972 261.188 123.911 262.065C124.322 262.399 124.669 262.806 124.932 263.267Z" fill="#455A64"/>
<path d="M167.484 354.646L168.145 375.312L163.989 391.814C163.922 392.096 163.913 392.39 163.964 392.676C164.015 392.962 164.125 393.234 164.286 393.476C164.447 393.718 164.657 393.924 164.901 394.081C165.145 394.238 165.42 394.343 165.706 394.389C166.038 394.45 166.38 394.43 166.703 394.332C167.025 394.233 167.32 394.059 167.561 393.823C170.686 390.766 182.157 379.467 182.011 377.965C181.856 376.248 182.758 356.105 182.758 356.105L167.484 354.646Z" fill="url(#paint3_linear_1114_2216)"/>
<g opacity="0.6">
<path opacity="0.6" d="M165.629 394.424L181.942 376.6V377.458C181.952 378.217 181.69 378.954 181.204 379.536C179.907 381.09 176.224 385.306 167.561 393.84C167.313 394.085 167.009 394.265 166.675 394.364C166.341 394.463 165.987 394.477 165.646 394.407L165.629 394.424Z" fill="white"/>
</g>
<g opacity="0.6">
<path opacity="0.6" d="M177.615 369.963C177.353 370.154 177.173 370.437 177.111 370.756C177.049 371.074 177.109 371.404 177.28 371.68C177.461 371.937 177.733 372.116 178.041 372.18C178.348 372.243 178.669 372.188 178.937 372.023C179.206 371.824 179.391 371.531 179.454 371.202C179.518 370.873 179.456 370.532 179.28 370.246C179.067 369.995 178.764 369.836 178.435 369.804C178.107 369.772 177.779 369.869 177.52 370.074" fill="white"/>
</g>
<path d="M170.274 385.34C170.154 385.4 169.673 384.327 168.445 383.752C167.685 383.453 166.874 383.307 166.058 383.322C166.058 383.271 166.299 383.108 166.78 383.03C167.417 382.953 168.063 383.06 168.641 383.338C169.219 383.617 169.705 384.055 170.042 384.602C170.283 385.022 170.317 385.323 170.274 385.34Z" fill="#263238"/>
<path d="M168.823 388.13C168.229 387.806 167.615 387.519 166.986 387.272C166.315 387.154 165.639 387.073 164.959 387.031C165.275 386.828 165.635 386.705 166.008 386.67C166.382 386.636 166.758 386.692 167.106 386.834C168.325 387.16 168.926 388.07 168.823 388.13Z" fill="#263238"/>
<path d="M172.979 381.751C172.101 381.173 171.183 380.659 170.231 380.214C169.226 379.907 168.198 379.677 167.157 379.527C168.239 379.301 169.362 379.39 170.395 379.784C171.427 380.179 172.324 380.861 172.979 381.751Z" fill="#263238"/>
<path d="M173.305 375.466C173.253 375.595 172.103 375.123 170.617 375.089C169.132 375.054 167.956 375.415 167.904 375.286C168.737 374.827 169.679 374.601 170.629 374.633C171.58 374.665 172.504 374.953 173.305 375.466Z" fill="#263238"/>
<path d="M173.262 369.396C172.358 369.112 171.419 368.953 170.471 368.924C169.533 369.033 168.614 369.273 167.741 369.637C167.741 369.594 167.93 369.327 168.402 369.053C169.034 368.696 169.742 368.493 170.467 368.462C171.192 368.431 171.914 368.571 172.575 368.872C173.047 369.104 173.296 369.345 173.262 369.396Z" fill="#263238"/>
<path d="M170.497 367.765C170.444 367.507 170.444 367.241 170.497 366.984C170.561 366.266 170.769 365.568 171.107 364.932C171.308 364.442 171.668 364.033 172.128 363.772C172.288 363.701 172.466 363.68 172.637 363.712C172.809 363.744 172.967 363.828 173.09 363.953C173.311 364.211 173.43 364.54 173.425 364.88C173.384 365.572 173.106 366.229 172.636 366.739C172.167 367.249 171.535 367.581 170.849 367.679C170.164 367.755 169.472 367.626 168.861 367.308C168.249 366.99 167.746 366.498 167.415 365.893C167.331 365.741 167.282 365.572 167.27 365.398C167.258 365.225 167.284 365.051 167.346 364.889C167.427 364.735 167.552 364.609 167.705 364.528C167.858 364.447 168.032 364.414 168.205 364.434C168.715 364.542 169.189 364.782 169.578 365.129C170.142 365.575 170.624 366.116 171.004 366.726C171.155 366.941 171.266 367.183 171.33 367.439C170.784 366.663 170.128 365.971 169.381 365.387C169.033 365.101 168.62 364.903 168.179 364.811C168.084 364.795 167.986 364.81 167.899 364.853C167.813 364.896 167.742 364.966 167.698 365.052C167.668 365.162 167.66 365.277 167.674 365.391C167.689 365.504 167.726 365.614 167.784 365.713C168.085 366.224 168.527 366.639 169.056 366.907C169.586 367.174 170.181 367.285 170.772 367.224C171.357 367.149 171.9 366.876 172.308 366.449C172.715 366.022 172.964 365.468 173.013 364.88C173.024 364.645 172.951 364.413 172.807 364.227C172.742 364.154 172.655 364.104 172.559 364.083C172.463 364.063 172.363 364.075 172.274 364.116C171.898 364.346 171.599 364.684 171.416 365.086C170.959 365.92 170.648 366.826 170.497 367.765Z" fill="#263238"/>
<path d="M177.958 244.876C177.958 244.876 156.691 285.083 156.399 292.098C156.107 299.113 156.399 363.772 156.399 363.772H189.317C190.176 363.772 195.113 334.641 194.108 327.935C193.104 321.23 189.558 285.186 189.558 285.186H208.498C208.498 285.186 213.692 279.631 213.504 272.582C213.392 268.693 210.851 260.743 208.352 256.527C206.729 253.822 196.332 239.664 196.332 239.664L177.958 244.876Z" fill="#263238"/>
<path d="M176.533 247.598C176.51 247.678 176.478 247.756 176.439 247.829C176.361 248.001 176.258 248.216 176.13 248.482L174.893 250.989C174.335 252.079 173.674 253.402 172.901 254.939L171.665 257.403L170.368 260.21L163.989 274.025C162.779 276.601 161.508 279.357 160.186 282.181L158.185 286.474C157.539 287.959 157.049 289.507 156.726 291.093C156.399 292.684 156.23 294.303 156.219 295.927C156.167 297.533 156.133 299.121 156.107 300.675C156.107 303.8 156.047 306.805 156.056 309.673C156.056 315.408 156.125 320.577 156.185 324.913C156.245 329.249 156.296 332.726 156.339 335.216C156.339 336.401 156.339 337.337 156.339 338.006C156.339 338.307 156.339 338.547 156.339 338.736C156.339 338.925 156.339 338.985 156.339 338.985C156.325 338.903 156.325 338.819 156.339 338.736C156.339 338.547 156.339 338.307 156.339 338.015C156.339 337.337 156.271 336.409 156.219 335.216C156.133 332.795 156.022 329.283 155.927 324.913C155.833 320.543 155.73 315.417 155.704 309.673C155.704 306.805 155.704 303.792 155.704 300.675C155.704 299.113 155.755 297.524 155.815 295.91C155.824 294.26 155.993 292.616 156.322 290.999C156.655 289.383 157.155 287.806 157.816 286.294L159.825 282.001L163.654 273.862L170.162 260.081L171.485 257.282C171.94 256.424 172.343 255.565 172.755 254.836L174.807 250.92C175.365 249.864 175.812 249.04 176.121 248.448C176.267 248.19 176.387 247.984 176.473 247.812C176.559 247.641 176.524 247.589 176.533 247.598Z" fill="#455A64"/>
<path d="M169.647 261.292C168.965 259.658 168.391 257.98 167.93 256.269C167.327 254.604 166.837 252.9 166.462 251.169C167.262 252.756 167.895 254.422 168.351 256.141C168.959 257.809 169.393 259.535 169.647 261.292Z" fill="#455A64"/>
<path d="M194.177 326.673C194.122 326.527 194.087 326.374 194.074 326.218C194.034 325.869 193.974 325.431 193.894 324.904C193.739 323.694 193.542 322.045 193.293 320.045C192.82 315.889 192.185 310.248 191.481 304.015C190.777 297.782 190.202 292.072 189.85 287.96C189.687 285.951 189.549 284.302 189.446 283.091C189.446 282.551 189.377 282.113 189.352 281.761C189.34 281.606 189.34 281.451 189.352 281.297C189.406 281.443 189.438 281.597 189.446 281.752C189.489 282.104 189.549 282.542 189.618 283.074C189.755 284.285 189.944 285.925 190.167 287.934C190.622 292.089 191.241 297.739 191.884 303.972C192.528 310.205 193.138 315.846 193.602 320.01C193.791 322.02 193.954 323.668 194.065 324.879C194.108 325.411 194.143 325.857 194.168 326.209C194.184 326.363 194.187 326.519 194.177 326.673Z" fill="#455A64"/>
<path d="M185.814 137.193C185.308 133.758 188.253 130.453 191.653 130.049C195.053 129.646 198.478 131.766 200.041 134.866C200.768 136.425 201.166 138.116 201.211 139.836C201.255 141.555 200.945 143.266 200.299 144.86C199.44 147.032 197.852 149.23 195.542 149.402C193.232 149.573 191.464 147.813 189.936 146.191" fill="#263238"/>
<path d="M161.645 154.227C154.777 139.176 171.09 131.612 179.959 134.119C188.304 136.48 191.867 140.636 193.241 146.216C194.746 151.815 194.445 157.746 192.382 163.165C191.301 165.792 189.36 168.454 186.544 168.78" fill="#263238"/>
<path d="M185.282 142.473C185.989 142.546 186.641 142.883 187.111 143.416C187.58 143.949 187.832 144.639 187.815 145.349L186.209 183.659C186.149 188.184 179.547 190.742 174.696 190.639C169.81 190.536 169.647 188.132 169.544 183.831C169.433 176.644 169.433 173.94 169.433 173.983C169.433 174.026 163.251 172.953 161.972 164.89C161.328 160.881 161.534 154.304 161.869 148.929C162.178 144.096 165.38 138.154 170.205 138.626L185.282 142.473Z" fill="#FFBE9D"/>
<path d="M165.028 153.514C165.023 153.785 165.125 154.046 165.311 154.242C165.498 154.438 165.754 154.553 166.024 154.562C166.156 154.572 166.288 154.556 166.414 154.514C166.539 154.473 166.655 154.406 166.754 154.319C166.854 154.232 166.934 154.125 166.992 154.006C167.049 153.887 167.082 153.758 167.089 153.626C167.091 153.356 166.989 153.096 166.803 152.901C166.617 152.705 166.362 152.59 166.093 152.578C165.961 152.568 165.828 152.584 165.703 152.626C165.577 152.667 165.462 152.734 165.362 152.821C165.263 152.908 165.182 153.015 165.125 153.134C165.067 153.253 165.034 153.382 165.028 153.514Z" fill="#263238"/>
<path d="M163.32 152.355C163.448 152.484 164.238 151.909 165.346 151.909C166.453 151.909 167.278 152.467 167.398 152.329C167.518 152.192 167.329 152.029 166.968 151.771C166.487 151.439 165.914 151.262 165.329 151.265C164.751 151.259 164.187 151.443 163.723 151.789C163.38 152.046 163.259 152.295 163.32 152.355Z" fill="#263238"/>
<path d="M175.906 153.514C175.903 153.778 176.001 154.034 176.18 154.228C176.358 154.423 176.605 154.542 176.868 154.562C177 154.572 177.132 154.556 177.258 154.514C177.383 154.473 177.499 154.406 177.598 154.319C177.698 154.232 177.778 154.125 177.836 154.006C177.893 153.887 177.926 153.758 177.933 153.626C177.935 153.356 177.832 153.096 177.647 152.901C177.461 152.705 177.206 152.59 176.937 152.578C176.676 152.567 176.422 152.659 176.229 152.834C176.035 153.009 175.92 153.254 175.906 153.514Z" fill="#263238"/>
<path d="M174.292 152.561C174.421 152.69 175.202 152.115 176.31 152.115C177.417 152.115 178.242 152.673 178.362 152.544C178.482 152.415 178.293 152.235 177.933 151.977C177.451 151.643 176.878 151.466 176.293 151.471C175.715 151.471 175.153 151.654 174.687 151.995C174.292 152.252 174.198 152.51 174.292 152.561Z" fill="#263238"/>
<path d="M170.223 160.812C169.637 160.632 169.031 160.522 168.419 160.486C168.136 160.486 167.861 160.4 167.818 160.211C167.792 159.912 167.858 159.613 168.007 159.353C168.274 158.666 168.548 157.945 168.866 157.189C169.644 155.356 170.276 153.464 170.755 151.531C169.825 153.296 169.041 155.133 168.411 157.026L167.604 159.207C167.426 159.55 167.375 159.945 167.458 160.323C167.501 160.423 167.565 160.511 167.647 160.583C167.729 160.654 167.825 160.706 167.93 160.735C168.087 160.776 168.249 160.8 168.411 160.804C169.012 160.881 169.621 160.884 170.223 160.812Z" fill="#263238"/>
<path d="M169.458 173.974C173.27 174.044 177.026 173.048 180.302 171.098C180.302 171.098 177.675 176.644 169.604 175.889L169.458 173.974Z" fill="#EB996E"/>
<path d="M170.695 163.491C170.907 163.226 171.183 163.02 171.497 162.891C171.811 162.762 172.152 162.714 172.489 162.753C172.736 162.773 172.976 162.844 173.194 162.961C173.413 163.077 173.605 163.237 173.76 163.431C173.908 163.616 173.995 163.842 174.01 164.079C174.026 164.315 173.968 164.55 173.846 164.753C173.667 164.954 173.433 165.096 173.173 165.162C172.912 165.228 172.638 165.214 172.386 165.122C171.857 164.936 171.372 164.644 170.961 164.264C170.836 164.175 170.729 164.064 170.643 163.937C170.603 163.876 170.582 163.805 170.582 163.731C170.582 163.658 170.603 163.587 170.643 163.525" fill="#EB996E"/>
<path d="M173.502 161.585C173.322 161.585 173.313 162.778 172.283 163.637C171.253 164.496 169.965 164.358 169.956 164.496C169.948 164.633 170.24 164.727 170.815 164.745C171.524 164.753 172.213 164.513 172.764 164.066C173.287 163.636 173.625 163.021 173.708 162.349C173.717 161.877 173.58 161.576 173.502 161.585Z" fill="#263238"/>
<path d="M173.76 150.612C173.872 150.913 174.988 150.767 176.293 150.93C177.598 151.093 178.654 151.436 178.826 151.17C178.903 151.042 178.714 150.758 178.293 150.458C177.727 150.094 177.083 149.87 176.413 149.805C175.746 149.722 175.068 149.801 174.438 150.037C173.957 150.226 173.717 150.466 173.76 150.612Z" fill="#263238"/>
<path d="M163.732 149.127C163.929 149.384 164.693 149.127 165.62 149.127C166.548 149.127 167.338 149.299 167.501 149.032C167.578 148.904 167.501 148.646 167.114 148.414C166.662 148.117 166.127 147.97 165.586 147.994C165.045 148.005 164.521 148.182 164.084 148.5C163.757 148.749 163.646 149.007 163.732 149.127Z" fill="#263238"/>
<path d="M174.232 135.982C171.495 136.122 168.838 136.948 166.505 138.386C165.197 139.064 164.035 139.993 163.087 141.12C162.138 142.247 161.421 143.55 160.976 144.954C160.862 145.246 160.81 145.558 160.822 145.871C160.834 146.184 160.909 146.492 161.044 146.774C161.299 147.098 161.66 147.322 162.062 147.408C162.465 147.494 162.886 147.437 163.251 147.247C163.979 146.851 164.598 146.282 165.054 145.59C165.235 146.346 165.669 147.019 166.282 147.498C166.896 147.976 167.655 148.232 168.433 148.223C169.211 148.214 169.964 147.941 170.566 147.448C171.169 146.956 171.587 146.273 171.751 145.512C171.812 146.286 172.17 147.006 172.748 147.522C173.327 148.039 174.083 148.312 174.859 148.285C175.633 148.219 176.37 147.927 176.98 147.446C177.59 146.966 178.047 146.317 178.293 145.581C178.482 146.977 178.965 148.317 179.71 149.513C180.091 150.107 180.646 150.569 181.298 150.836C181.951 151.103 182.671 151.163 183.359 151.007C183.07 152.194 183.088 153.435 183.41 154.613C183.84 155.747 185.548 175.142 186.699 174.747C187.849 174.352 187.806 154.57 188.064 153.42C188.635 151.213 188.923 148.942 188.922 146.663C188.999 144.314 188.238 142.015 186.775 140.176C185.312 138.338 183.243 137.079 180.938 136.626C178.636 136.098 176.274 135.881 173.914 135.982" fill="#263238"/>
<path d="M190.391 171.304C190.391 171.304 190.313 171.356 190.142 171.416C189.9 171.504 189.65 171.565 189.395 171.596C188.201 171.748 186.988 171.557 185.898 171.046C184.808 170.535 183.886 169.726 183.239 168.711C182.361 167.183 181.991 165.415 182.183 163.663C182.311 161.817 182.741 160.134 182.938 158.588C183.132 157.216 183.253 155.835 183.299 154.45C183.299 153.265 183.299 152.312 183.299 151.643C183.262 151.3 183.262 150.955 183.299 150.612C183.401 150.95 183.461 151.299 183.479 151.651C183.573 152.59 183.619 153.533 183.616 154.476C183.615 155.874 183.526 157.27 183.35 158.657C183.161 160.237 182.758 161.928 182.629 163.706C182.445 165.369 182.781 167.049 183.591 168.514C184.296 169.68 185.381 170.568 186.664 171.029C187.526 171.358 188.448 171.499 189.369 171.441C190.03 171.399 190.382 171.261 190.391 171.304Z" fill="#263238"/>
<path d="M171.39 134.943C171.702 135.531 171.848 136.193 171.811 136.858C171.841 138.485 171.225 140.057 170.099 141.232C168.973 142.406 167.428 143.087 165.801 143.125C165.14 143.189 164.475 143.07 163.878 142.782C163.878 142.705 164.616 142.911 165.784 142.782C167.31 142.678 168.743 142.011 169.804 140.91C170.866 139.809 171.48 138.352 171.528 136.823C171.553 135.681 171.313 134.96 171.39 134.943Z" fill="#455A64"/>
<path d="M172.575 144.439C172.618 144.439 172.515 144.989 171.897 145.59C171.486 145.959 171.005 146.241 170.483 146.419C169.961 146.598 169.408 146.669 168.857 146.628C167.778 146.532 166.738 146.176 165.826 145.59C165.131 145.152 164.753 144.817 164.788 144.731C165.203 144.862 165.601 145.044 165.972 145.272C166.878 145.743 167.867 146.034 168.883 146.13C169.892 146.19 170.888 145.885 171.691 145.272C172.317 144.877 172.523 144.405 172.575 144.439Z" fill="#455A64"/>
<path d="M192.022 141.975C192.079 142.714 192.027 143.458 191.867 144.181C191.625 145.975 190.947 147.681 189.893 149.153C189.342 149.882 188.649 150.492 187.854 150.943C187.06 151.395 186.182 151.68 185.274 151.78C184.721 151.83 184.165 151.774 183.634 151.617C183.264 151.505 183.084 151.394 183.093 151.368C183.801 151.494 184.523 151.526 185.239 151.462C186.947 151.185 188.484 150.263 189.532 148.886C190.538 147.464 191.226 145.842 191.55 144.13C191.663 143.403 191.82 142.683 192.022 141.975Z" fill="#455A64"/>
<path d="M193.499 145.881C193.578 146.102 193.621 146.334 193.627 146.568C193.685 147.193 193.7 147.822 193.67 148.449C193.625 150.561 192.869 152.597 191.524 154.227C190.765 155.123 189.777 155.796 188.665 156.176C187.754 156.474 186.781 156.533 185.84 156.348C185.208 156.227 184.609 155.975 184.08 155.609C183.719 155.343 183.565 155.146 183.582 155.128C184.287 155.577 185.071 155.886 185.892 156.038C186.778 156.166 187.681 156.08 188.528 155.79C189.559 155.409 190.475 154.77 191.189 153.935C192.464 152.366 193.223 150.44 193.361 148.423C193.499 146.869 193.421 145.89 193.499 145.881Z" fill="#455A64"/>
<path d="M80.3289 249.658L64.7371 285.289H86.2016L101.484 249.375L80.3289 249.658Z" fill="#455A64"/>
<path d="M68.9956 211.752L86.5707 246.318H142.001L139.76 241.802L123.704 241.321L110.611 212.181C110.213 211.293 109.567 210.54 108.751 210.011C107.934 209.482 106.982 209.201 106.009 209.202H70.5582C70.2541 209.191 69.9527 209.261 69.6846 209.405C69.4165 209.549 69.1915 209.761 69.0325 210.021C68.8735 210.28 68.7864 210.577 68.7799 210.881C68.7734 211.185 68.8478 211.486 68.9956 211.752Z" fill="#E0E0E0"/>
<path d="M96.7536 227.249C96.7536 227.669 96.6292 228.079 96.3962 228.427C96.1632 228.776 95.832 229.048 95.4445 229.209C95.057 229.369 94.6306 229.411 94.2192 229.329C93.8078 229.247 93.4299 229.045 93.1334 228.749C92.8368 228.452 92.6348 228.074 92.553 227.663C92.4711 227.252 92.5131 226.825 92.6736 226.438C92.8342 226.05 93.106 225.719 93.4547 225.486C93.8035 225.253 94.2135 225.129 94.6329 225.129C95.1947 225.131 95.7328 225.355 96.13 225.752C96.5272 226.149 96.7513 226.688 96.7536 227.249Z" fill="#263238"/>
<path d="M147.908 246.387H80.1486V249.693H147.908V246.387Z" fill="#455A64"/>
<path d="M127.044 248.036L147.65 285.324H157.507L159.653 281.065L161.628 276.566L147.908 249.693L127.044 248.036Z" fill="#455A64"/>
<path d="M162.856 184.114C162.856 184.114 150.887 188.33 148.311 201.724L160.95 208.026L162.856 184.114Z" fill="url(#paint4_linear_1114_2216)"/>
<path d="M162.856 184.114C162.856 184.114 154.485 202.883 154.802 213.134C154.914 216.697 157.249 226.013 157.249 226.013L161.602 249.074C161.602 249.074 194.924 244.567 195.662 244.567C196.401 244.567 194.546 225.635 194.546 225.635L199.981 189.257C199.981 189.257 197.491 184.303 186.244 182.586C179.504 181.53 162.856 184.114 162.856 184.114Z" fill="url(#paint5_linear_1114_2216)"/>
<path d="M159.696 195.01C159.774 195.052 158.898 196.452 157.842 198.873C157.229 200.291 156.713 201.748 156.296 203.235C155.795 205.057 155.43 206.914 155.206 208.79C155.008 210.669 154.948 212.56 155.026 214.448C155.104 215.989 155.284 217.524 155.566 219.041C156.047 221.617 156.597 223.197 156.511 223.223C156.331 222.881 156.187 222.521 156.082 222.149C155.928 221.724 155.797 221.291 155.687 220.853C155.549 220.338 155.369 219.762 155.249 219.136C154.927 217.607 154.714 216.058 154.613 214.499C154.511 212.587 154.559 210.669 154.759 208.764C154.988 206.862 155.37 204.981 155.901 203.14C156.343 201.644 156.897 200.183 157.558 198.77C157.8 198.221 158.069 197.685 158.365 197.165C158.571 196.761 158.797 196.368 159.044 195.988C159.227 195.641 159.446 195.313 159.696 195.01Z" fill="#263238"/>
<path d="M166.908 183.942L167.389 178.791C167.442 178.256 167.69 177.758 168.086 177.394C168.482 177.03 168.998 176.824 169.536 176.816L185.977 176.567C186.476 176.561 186.958 176.745 187.327 177.082C187.695 177.418 187.922 177.882 187.961 178.379L188.381 183.934C187.005 186.851 184.677 189.213 181.779 190.631C176.945 192.975 169.433 193.052 169.433 193.052L166.908 183.942Z" fill="url(#paint6_linear_1114_2216)"/>
<path d="M171.21 176.859C171.261 176.859 171.021 177.194 170.918 177.718C170.825 178.476 170.825 179.243 170.918 180.002C171.062 181.107 171.062 182.227 170.918 183.333C170.622 182.256 170.472 181.144 170.471 180.027C170.357 179.232 170.392 178.423 170.574 177.64C170.858 177.048 171.184 176.816 171.21 176.859Z" fill="#263238"/>
<path d="M175.151 183.23C174.864 182.178 174.725 181.092 174.739 180.002C174.675 179.23 174.675 178.455 174.739 177.683C174.824 177.065 175.073 176.747 175.125 176.825C175.176 176.902 175.048 177.185 175.056 177.752C175.065 178.319 175.151 179.126 175.151 179.984C175.295 181.061 175.295 182.153 175.151 183.23Z" fill="#263238"/>
<path d="M180.088 183.092C179.733 182.091 179.516 181.045 179.444 179.984C179.232 178.934 179.165 177.859 179.246 176.79C179.605 177.8 179.822 178.855 179.89 179.924C180.099 180.966 180.166 182.032 180.088 183.092Z" fill="#263238"/>
<path d="M184.346 183.419C183.954 182.315 183.745 181.155 183.728 179.984C183.563 178.817 183.592 177.631 183.814 176.473C184.039 177.604 184.159 178.754 184.174 179.907C184.341 181.07 184.399 182.245 184.346 183.419Z" fill="#263238"/>
<g opacity="0.3">
<path opacity="0.3" d="M187.609 203.089C186.948 208.867 187.386 218.827 189.429 224.279L199.028 208.421L187.609 203.089Z" fill="black"/>
</g>
<path d="M199.088 188.064L199.14 188.115C201.862 190.972 203.853 194.445 204.944 198.238L206.712 206.3L187.823 209.219C186.784 205.799 186.537 202.188 187.102 198.658C188.029 192.58 199.088 188.064 199.088 188.064Z" fill="url(#paint7_linear_1114_2216)"/>
<path d="M206.712 206.3C206.59 206.343 206.463 206.375 206.335 206.394L205.253 206.592L201.209 207.253L187.523 209.331H187.283V209.082C187.24 207.94 187.205 206.755 187.18 205.536C187.137 202.368 187.18 199.337 187.368 196.581C187.499 194.111 188.256 191.715 189.566 189.618C190.447 188.207 191.655 187.029 193.087 186.183C193.473 185.954 193.881 185.764 194.306 185.617C194.447 185.552 194.598 185.508 194.752 185.488C194.752 185.488 194.151 185.72 193.172 186.346C191.81 187.219 190.667 188.395 189.833 189.781C188.589 191.865 187.881 194.225 187.772 196.649C187.575 199.38 187.583 202.402 187.635 205.57C187.635 206.772 187.695 207.966 187.72 209.099L187.471 208.884L201.209 206.952L205.27 206.429L206.369 206.3C206.483 206.285 206.598 206.285 206.712 206.3Z" fill="#263238"/>
<path d="M166.814 194.46C165.853 193.9 164.969 193.216 164.187 192.425C163.305 191.745 162.519 190.947 161.851 190.056C163.695 191.296 165.364 192.777 166.814 194.46Z" fill="#FAFAFA"/>
<path d="M164.264 204.394C163.59 205.086 162.811 205.665 161.954 206.111C161.168 206.681 160.3 207.127 159.379 207.433C160.836 206.181 162.478 205.161 164.247 204.411L164.264 204.394Z" fill="#FAFAFA"/>
<path d="M174.799 206.841C174.646 205.621 174.646 204.386 174.799 203.166C174.805 201.939 174.955 200.718 175.245 199.526C175.395 200.743 175.395 201.974 175.245 203.192C175.242 204.422 175.092 205.647 174.799 206.841Z" fill="#FAFAFA"/>
<path d="M185.042 216.775C184.187 215.973 183.389 215.112 182.655 214.199C181.81 213.394 181.022 212.534 180.294 211.623C181.324 212.221 182.235 213.004 182.981 213.933C183.831 214.751 184.528 215.713 185.042 216.775Z" fill="#FAFAFA"/>
<path d="M186.484 196.005C185.747 196.772 184.906 197.431 183.986 197.963C183.143 198.612 182.215 199.143 181.229 199.543C181.968 198.775 182.812 198.116 183.737 197.585C184.579 196.94 185.503 196.409 186.484 196.005Z" fill="#FAFAFA"/>
<path d="M177.228 188.493C176.414 189.285 175.495 189.964 174.498 190.511C173.584 191.187 172.585 191.742 171.527 192.159C172.343 191.365 173.261 190.684 174.258 190.133C175.176 189.464 176.174 188.913 177.228 188.493Z" fill="#FAFAFA"/>
<path d="M185.574 191.481C185.011 190.65 184.572 189.742 184.269 188.785C183.846 187.875 183.557 186.909 183.41 185.917C183.98 186.747 184.42 187.659 184.715 188.622C185.143 189.526 185.432 190.49 185.574 191.481Z" fill="#FAFAFA"/>
<path d="M197.053 195.25C195.68 194.298 194.488 193.109 193.533 191.738C194.26 192.154 194.908 192.695 195.448 193.335C196.094 193.871 196.638 194.52 197.053 195.25Z" fill="#FAFAFA"/>
<path d="M192.322 203.621C192.05 202.773 191.925 201.884 191.953 200.994C191.825 200.115 191.851 199.22 192.03 198.349C192.425 200.078 192.524 201.86 192.322 203.621Z" fill="#FAFAFA"/>
<path d="M201.861 201.887C200.862 202.046 199.842 202.011 198.856 201.784C197.85 201.701 196.869 201.431 195.963 200.985C196.96 200.996 197.954 201.117 198.925 201.346C199.92 201.421 200.904 201.602 201.861 201.887Z" fill="#FAFAFA"/>
<path d="M163.397 219.187C162.697 218.218 162.12 217.165 161.68 216.053C161.104 215.004 160.66 213.888 160.357 212.731C161.057 213.7 161.634 214.753 162.074 215.864C162.652 216.913 163.096 218.029 163.397 219.187Z" fill="#FAFAFA"/>
<path d="M176.009 232.736C175.203 232.002 174.501 231.162 173.923 230.237C173.233 229.394 172.656 228.464 172.206 227.473C173.014 228.206 173.719 229.047 174.301 229.971C174.994 230.81 175.569 231.74 176.009 232.736Z" fill="#FAFAFA"/>
<path d="M186.432 227.052C185.549 227.628 184.589 228.079 183.582 228.391C182.627 228.842 181.612 229.151 180.568 229.31C182.405 228.28 184.38 227.52 186.432 227.052Z" fill="#FAFAFA"/>
<path d="M160.752 238.024C161.165 236.405 161.859 234.87 162.804 233.491C162.659 234.323 162.368 235.122 161.946 235.852C161.679 236.641 161.275 237.376 160.752 238.024Z" fill="#FAFAFA"/>
<path d="M152.673 199.225C152.177 198.596 151.878 197.834 151.814 197.036C151.612 196.262 151.648 195.445 151.918 194.692C152.094 195.437 152.209 196.195 152.261 196.959C152.459 197.702 152.597 198.46 152.673 199.225Z" fill="#FAFAFA"/>
<path d="M167.02 229.336C166.103 229.094 165.233 228.702 164.444 228.177C163.589 227.788 162.801 227.267 162.109 226.631C163.024 226.877 163.894 227.268 164.685 227.79C165.536 228.185 166.324 228.706 167.02 229.336Z" fill="#FAFAFA"/>
<path d="M175.305 215.032C173.897 216.718 172.262 218.2 170.446 219.436C171.097 218.547 171.865 217.75 172.73 217.067C173.491 216.274 174.358 215.589 175.305 215.032Z" fill="#FAFAFA"/>
<g opacity="0.3">
<path opacity="0.3" d="M170.231 214.765C170.647 217.758 171.982 220.548 174.052 222.75C176.198 224.845 179.521 225.901 182.311 224.811C182.616 224.727 182.896 224.571 183.128 224.356C183.36 224.14 183.536 223.872 183.642 223.575C183.689 223.208 183.608 222.837 183.412 222.524C183.217 222.211 182.919 221.975 182.569 221.857C181.873 221.634 181.145 221.529 180.414 221.548C178.332 221.412 176.319 220.745 174.567 219.612C172.815 218.479 171.382 216.917 170.403 215.075" fill="black"/>
</g>
<path d="M181.393 221.686C181.393 221.686 181.195 221.754 180.817 221.789C180.286 221.842 179.751 221.842 179.22 221.789C178.432 221.696 177.657 221.512 176.911 221.239C175.07 220.577 173.436 219.443 172.171 217.951C171.658 217.346 171.217 216.683 170.858 215.976C170.605 215.505 170.406 215.007 170.265 214.491C170.196 214.307 170.159 214.112 170.154 213.916C170.24 213.916 170.471 214.688 171.133 215.822C171.519 216.483 171.971 217.104 172.481 217.676C173.112 218.372 173.817 218.997 174.584 219.539C175.359 220.064 176.188 220.505 177.057 220.853C177.77 221.133 178.509 221.34 179.263 221.471C180.56 221.66 181.393 221.6 181.393 221.686Z" fill="#263238"/>
<path d="M134.128 235.526L146.56 234.075L155.326 239.819L188.811 231.783L189.601 208.841L204.48 206.884V234.659C204.397 238.031 202.98 241.232 200.54 243.561C198.1 245.89 194.836 247.156 191.464 247.083L142.387 245.717L140.301 241.545L129.766 241.227L134.128 235.526Z" fill="#FFBE9D"/>
<path d="M188.416 231.74C188.209 231.822 187.997 231.888 187.78 231.937L185.96 232.409L179.238 234.075L157.017 239.458L154.948 239.956H154.862H154.794L146.036 234.195H146.156L133.716 235.638L133.801 235.586L130.504 239.767L129.646 240.866C129.55 240.998 129.441 241.119 129.32 241.227C129.399 241.087 129.488 240.952 129.586 240.823L130.444 239.69L133.638 235.449H133.69L146.113 233.895H146.182H146.234L155.008 239.63H154.854L156.923 239.132L179.169 233.86L185.926 232.306L187.763 231.903C187.976 231.831 188.194 231.777 188.416 231.74Z" fill="#EB996E"/>
<path d="M140.919 239.089C139.315 239.277 137.699 239.34 136.085 239.278H135.227L135.347 239.235C134.376 240.128 133.327 240.932 132.213 241.639C133.098 240.662 134.063 239.76 135.098 238.943L135.149 238.892H136.102C137.711 238.826 139.322 238.892 140.919 239.089Z" fill="#EB996E"/>
<path d="M194.589 235.492C193.949 234.482 193.118 233.607 192.142 232.916C191.107 232.331 189.966 231.957 188.785 231.817C189.132 231.696 189.505 231.667 189.867 231.731C190.744 231.824 191.587 232.117 192.332 232.59C193.076 233.062 193.702 233.699 194.16 234.453C194.392 234.755 194.54 235.114 194.589 235.492Z" fill="#EB996E"/>
<defs>
<linearGradient id="paint0_linear_1114_2216" x1="234.524" y1="7.41806" x2="234.524" y2="30.5744" gradientUnits="userSpaceOnUse">
<stop stop-color="#238FFF"/>
<stop offset="1" stop-color="#F375F3"/>
</linearGradient>
<linearGradient id="paint1_linear_1114_2216" x1="167.441" y1="65.4646" x2="298.37" y2="196.394" gradientUnits="userSpaceOnUse">
<stop stop-color="#238FFF"/>
<stop offset="1" stop-color="#F375F3"/>
</linearGradient>
<linearGradient id="paint2_linear_1114_2216" x1="245.342" y1="76.4742" x2="245.342" y2="132.806" gradientUnits="userSpaceOnUse">
<stop stop-color="#238FFF"/>
<stop offset="1" stop-color="#F375F3"/>
</linearGradient>
<linearGradient id="paint3_linear_1114_2216" x1="173.345" y1="354.646" x2="173.345" y2="394.424" gradientUnits="userSpaceOnUse">
<stop stop-color="#0057C9"/>
<stop offset="1" stop-color="#238FFF"/>
</linearGradient>
<linearGradient id="paint4_linear_1114_2216" x1="155.584" y1="184.114" x2="155.584" y2="208.026" gradientUnits="userSpaceOnUse">
<stop stop-color="#0057C9"/>
<stop offset="1" stop-color="#238FFF"/>
</linearGradient>
<linearGradient id="paint5_linear_1114_2216" x1="177.387" y1="182.332" x2="177.387" y2="249.074" gradientUnits="userSpaceOnUse">
<stop stop-color="#0057C9"/>
<stop offset="1" stop-color="#238FFF"/>
</linearGradient>
<linearGradient id="paint6_linear_1114_2216" x1="177.645" y1="176.567" x2="177.645" y2="193.052" gradientUnits="userSpaceOnUse">
<stop stop-color="#0057C9"/>
<stop offset="1" stop-color="#238FFF"/>
</linearGradient>
<linearGradient id="paint7_linear_1114_2216" x1="196.759" y1="188.064" x2="196.759" y2="209.219" gradientUnits="userSpaceOnUse">
<stop stop-color="#0057C9"/>
<stop offset="1" stop-color="#238FFF"/>
</linearGradient>
</defs>
</svg>
